<?xml version="1.0" encoding="UTF-8"?>
<svg id="Layer_1" data-name="Layer 1" xmlns="http://www.w3.org/2000/svg" viewBox="0 0 512 512">
  <defs>
    <style>
      .cls-1 {
        fill: #fff;
        stroke-width: 0px;
      }
    </style>
  </defs>
  <path class="cls-1" d="m276.83,68.5V26.83c0-11.52-9.33-20.83-20.83-20.83s-20.83,9.31-20.83,20.83v41.67c-80.42,0-145.83,65.44-145.83,145.83v125c0,91.9,74.77,166.67,166.67,166.67s166.67-74.77,166.67-166.67v-125c0-80.4-65.42-145.83-145.83-145.83Zm104.17,145.83h-125v-104.17h20.83c57.44,0,104.17,46.73,104.17,104.17Zm-125,250c-68.94,0-125-56.06-125-125v-83.33h250v83.33c0,68.94-56.06,125-125,125Z"/>
</svg>