<?xml version="1.0" encoding="UTF-8"?>
<svg id="Layer_2" data-name="Layer 2" xmlns="http://www.w3.org/2000/svg" viewBox="0 0 500 500">
  <defs>
    <style>
      .cls-1 {
        fill: #fff;
        stroke-width: 0px;
      }
    </style>
  </defs>
  <g id="Layer_1-2" data-name="Layer 1">
    <path class="cls-1" d="m406.25,333.33c0,11.52-9.31,20.83-20.83,20.83h-41.67c-11.52,0-20.83-9.31-20.83-20.83s9.31-20.83,20.83-20.83h41.67c11.52,0,20.83,9.31,20.83,20.83Zm93.75-20.83v104.17c0,45.96-37.38,83.33-83.33,83.33H83.33c-45.96,0-83.33-37.38-83.33-83.33v-104.17c0-45.96,37.38-83.33,83.33-83.33h20.83V83.33C104.17,37.38,141.54,0,187.5,0h125c45.96,0,83.33,37.38,83.33,83.33v145.83h20.83c45.96,0,83.33,37.37,83.33,83.33Zm-354.17-83.33h208.33V83.33c0-22.98-18.69-41.67-41.67-41.67h-125c-22.98,0-41.67,18.69-41.67,41.67v145.83Zm-62.5,229.17h145.83v-187.5H83.33c-22.98,0-41.67,18.69-41.67,41.67v104.17c0,22.98,18.69,41.67,41.67,41.67Zm375-145.83c0-22.98-18.69-41.67-41.67-41.67h-145.83v187.5h145.83c22.98,0,41.67-18.69,41.67-41.67v-104.17Zm-302.08,0h-41.67c-11.52,0-20.83,9.31-20.83,20.83s9.31,20.83,20.83,20.83h41.67c11.52,0,20.83-9.31,20.83-20.83s-9.31-20.83-20.83-20.83Zm135.42-208.33c0-11.52-9.31-20.83-20.83-20.83h-41.67c-11.52,0-20.83,9.31-20.83,20.83s9.31,20.83,20.83,20.83h41.67c11.52,0,20.83-9.31,20.83-20.83Z"/>
  </g>
</svg>