<?xml version="1.0" encoding="UTF-8"?>
<svg id="Layer_2" data-name="Layer 2" xmlns="http://www.w3.org/2000/svg" viewBox="0 0 421.03 500">
  <defs>
    <style>
      .cls-1 {
        fill: #fff;
        stroke-width: 0px;
      }
    </style>
  </defs>
  <g id="Layer_1-2" data-name="Layer 1">
    <path class="cls-1" d="M420.75,163.01C415.72,72.14,340.45,0,248.33,0H77.36c-6.61,0-13.03.83-19.15,2.39C24.75,10.92,0,41.25,0,77.37h.08c-.35,19.24,6.17,37.95,18.71,52.69,6.08,7.16,13.29,13.08,21.26,17.61-3.76,2.58-7.37,5.47-10.76,8.63C10.66,173.71,0,198.29,0,223.71,0,240.37,4.5,256.68,13.03,270.87c.81,1.36,2.09,3.45,3.81,6.12,11.67,18.1,43.89,63.12,92,91.93l9.29,5.37c24.53,14.08,39.76,40.34,39.76,68.53v30.87c0,14.55,11.79,26.32,26.32,26.32s26.32-11.76,26.32-26.32l-.05-.03v-30.87c0-46.97-25.37-90.71-66.26-114.21l-8.53-4.95c-21.94-13.12-40.09-31.05-53.34-46.64-14.04-16.52-22.57-30.41-24.21-33.18-9.18-15.32-6.16-36.71,7.08-49.08,5.66-5.29,15.53-11.39,30.5-10.39,12,.79,23.79,8.68,31.53,21.11,23.5,37.76,52.29,57.68,83.26,57.68,23.21,0,45.16-10.18,60.21-27.92,15.03-17.74,21.42-41.03,17.66-64.24-6.21-37.47-40.95-65.74-80.84-65.74H78.92c-7.74,0-15.05-3.39-20.08-9.29-4.47-5.28-6.59-11.91-6.18-18.81.06-.94.16-1.88.31-2.82,2-12.18,14.63-21.71,28.76-21.71h155.08c72.55,0,131.58,59.03,131.58,131.58v289.47c0,14.55,11.79,26.32,26.32,26.32s26.32-11.76,26.32-26.32V179.74c0-5.58-.1-11.16-.28-16.73ZM207.5,157.87c14.21,0,29.29,10.13,29.29,26.29,0,21.61-18.61,26.34-26.32,26.34-11.53,0-25.58-11.97-38.58-32.87-4.58-7.34-9.95-13.97-15.92-19.76h51.53Z"/>
  </g>
</svg>