<?xml version="1.0" encoding="UTF-8"?>
<svg id="Layer_2" data-name="Layer 2" xmlns="http://www.w3.org/2000/svg" viewBox="0 0 460.01 500">
  <defs>
    <style>
      .cls-1 {
        fill: #fff;
        stroke-width: 0px;
      }
    </style>
  </defs>
  <g id="Layer_1-2" data-name="Layer 1">
    <g>
      <path class="cls-1" d="m423.05,240.62c-19.2,15.41-40.36,31.09-62.95,46.61-65,44.77-121.23,63.2-123.57,63.95l-6.52,2.09-6.5-2.09c-2.36-.77-58.57-19.18-123.61-63.95-22.7-15.64-43.89-31.32-62.93-46.59-9.75-7.84-24.09-6.27-31.95,3.5-7.86,9.8-6.3,24.09,3.5,31.95,19.91,15.98,41.98,32.32,65.61,48.59,69.27,47.7,128.84,67.66,135.45,69.79l13.48,4.32c2.25.73,4.61,1.09,6.95,1.09s4.7-.36,6.95-1.09l13.5-4.34c6.59-2.11,66.18-22.09,135.41-69.77,23.48-16.14,45.54-32.5,65.64-48.59,9.8-7.86,11.36-22.16,3.5-31.95-7.84-9.8-22.14-11.36-31.95-3.52Z"/>
      <path class="cls-1" d="m423.05,340.73c-19.2,15.41-40.36,31.09-62.95,46.61-65,44.77-121.23,63.2-123.57,63.95l-6.52,2.09-6.5-2.09c-2.36-.77-58.57-19.18-123.61-63.95-22.7-15.64-43.89-31.32-62.93-46.59-9.75-7.86-24.09-6.3-31.95,3.5-7.86,9.8-6.3,24.09,3.5,31.95,19.91,15.98,41.98,32.32,65.61,48.59,69.27,47.7,128.84,67.66,135.45,69.79l13.48,4.32c2.25.73,4.61,1.09,6.95,1.09s4.7-.36,6.95-1.09l13.5-4.34c6.59-2.11,66.18-22.09,135.41-69.77,23.48-16.14,45.54-32.5,65.64-48.59,9.8-7.86,11.36-22.16,3.5-31.95-7.84-9.77-22.14-11.36-31.95-3.52Z"/>
      <path class="cls-1" d="m7.24,169.53c1.3,1.2,32.5,30.27,91.89,71.16,65.45,45.07,121.59,63.39,123.95,64.14,2.27.73,4.61,1.09,6.95,1.09s4.68-.36,6.95-1.09c2.36-.75,58.48-19.05,123.95-64.14,59.36-40.91,90.57-69.95,91.89-71.16,4.59-4.3,7.18-10.32,7.18-16.59s-2.59-12.3-7.18-16.59c-1.32-1.23-32.52-30.25-91.89-71.16C295.46,20.12,239.32,1.82,236.98,1.07c-4.52-1.43-9.36-1.43-13.89,0-2.36.75-58.5,19.05-123.95,64.11C39.76,106.1,8.55,135.14,7.26,136.35,2.67,140.64.08,146.64.08,152.94s2.61,12.3,7.18,16.59h-.02Zm117.68-66.91c46.86-32.27,89-49.73,105.11-55.79,16.07,6.02,57.98,23.34,105.09,55.79,30.11,20.75,52.7,38.39,67.27,50.32-14.57,11.95-37.16,29.57-67.27,50.32-46.86,32.27-88.98,49.73-105.11,55.79-16.14-6.07-58.25-23.52-105.11-55.79-30.11-20.75-52.73-38.36-67.27-50.32,14.55-11.93,37.16-29.57,67.27-50.32h.02Z"/>
    </g>
  </g>
</svg>