<?xml version="1.0" encoding="UTF-8"?>
<svg id="Layer_2" data-name="Layer 2" xmlns="http://www.w3.org/2000/svg" viewBox="0 0 512 512">
  <defs>
    <style>
      .cls-1 {
        fill: #fff;
        stroke-width: 0px;
      }
    </style>
  </defs>
  <g id="Layer_1-2" data-name="Layer 1">
    <path class="cls-1" d="m335.08,207.08l-48.92,48.92,48.92,48.92c8.34,8.34,8.34,21.82,0,30.17-4.16,4.16-9.62,6.25-15.08,6.25s-10.92-2.09-15.08-6.25l-48.92-48.92-48.92,48.92c-4.16,4.16-9.62,6.25-15.08,6.25s-10.92-2.09-15.08-6.25c-8.34-8.34-8.34-21.82,0-30.17l48.92-48.92-48.92-48.92c-8.34-8.34-8.34-21.82,0-30.17s21.82-8.34,30.17,0l48.92,48.92,48.92-48.92c8.34-8.34,21.82-8.34,30.17,0,8.34,8.34,8.34,21.82,0,30.17h0Zm176.92,48.92c0,141.16-114.84,256-256,256S0,397.16,0,256,114.84,0,256,0s256,114.84,256,256Zm-42.67,0c0-117.63-95.7-213.33-213.33-213.33S42.67,138.37,42.67,256s95.7,213.33,213.33,213.33,213.33-95.7,213.33-213.33Z"/>
  </g>
</svg>