<?xml version="1.0" encoding="UTF-8"?>
<svg id="Layer_2" data-name="Layer 2" xmlns="http://www.w3.org/2000/svg" viewBox="0 0 500 499.29">
  <defs>
    <style>
      .cls-1 {
        fill: #fff;
        stroke-width: 0px;
      }
    </style>
  </defs>
  <g id="Layer_1-2" data-name="Layer 1">
    <g>
      <path class="cls-1" d="m394.24,246.81h-99.42c-23.3,0-42.19-18.89-42.19-42.19v-99.69c.06-19.67-9.03-38.25-24.6-50.27-14.75-11.68-34.09-15.84-52.34-11.26C51.67,74.18-23.92,199.69,6.87,323.71c21.69,87.38,92.1,154.25,180.49,171.4,120.74,23.11,238.56-51.96,268.62-171.16,4.59-18.27.44-37.64-11.24-52.42-12.16-15.54-30.77-24.65-50.5-24.72Zm20.84,66.83c-25.18,101.41-127.81,163.21-229.22,138.02-101.41-25.18-163.21-127.81-138.02-229.22,16.91-68.08,70.09-121.21,138.18-138.06,5.64-1.41,11.62-.06,16.12,3.63,5.31,4.05,8.43,10.33,8.44,17v99.61c0,46.6,37.78,84.38,84.38,84.38h99.4c6.73.03,13.07,3.14,17.21,8.44,3.63,4.56,4.93,10.55,3.5,16.2h.02Z"/>
      <path class="cls-1" d="m498.4,150.75C478.64,78.1,421.92,21.33,349.28,1.52,345.54.51,341.68,0,337.81,0c-23.3-.22-42.37,18.49-42.59,41.79,0,.13,0,.27,0,.4v99.15c0,34.95,28.33,63.28,63.28,63.28h99.55c23.39-.23,42.17-19.37,41.95-42.76-.04-3.76-.57-7.5-1.59-11.11Zm-52.69,11.69h-87.29c-11.65,0-21.09-9.44-21.09-21.09l-.17-99c.15-.11.34-.18.53-.19h.55c58.47,15.93,104.07,61.74,119.73,120.28h-12.26Z"/>
    </g>
  </g>
</svg>