<?xml version="1.0" encoding="UTF-8"?>
<svg id="Layer_2" data-name="Layer 2" xmlns="http://www.w3.org/2000/svg" viewBox="0 0 500 500">
  <defs>
    <style>
      .cls-1 {
        fill: #fff;
        stroke-width: 0px;
      }
    </style>
  </defs>
  <g id="Layer_1-2" data-name="Layer 1">
    <g>
      <g>
        <path class="cls-1" d="m249.86,0C89.3,1,0,91.16,0,250.43s89.39,248.64,250.14,249.57c162.77-.95,246.84-84.93,249.86-250.39C497.23,89.68,408.5,1.02,249.86,0Zm.27,454.55c-136.95-.8-202-65.8-204.68-204.55C48.02,113.2,114.98,46.3,249.86,45.45c133.5.86,202.36,69.82,204.68,204.11-2.55,139.02-67.59,204.16-204.41,204.98Z"/>
        <path class="cls-1" d="m262.89,219.07h-25.77c-12.55,0-22.73,10.18-22.73,22.73s10.18,22.73,22.73,22.73h3.05v78c0,12.55,10.18,22.73,22.73,22.73s22.73-10.18,22.73-22.73v-100.73c0-12.55-10.16-22.73-22.73-22.73Z"/>
      </g>
      <circle class="cls-1" cx="250" cy="157.52" r="22.7"/>
    </g>
  </g>
</svg>