<?xml version="1.0" encoding="UTF-8"?>
<svg id="Layer_1" data-name="Layer 1" xmlns="http://www.w3.org/2000/svg" viewBox="0 0 512 512">
  <defs>
    <style>
      .cls-1 {
        fill: #fff;
        stroke-width: 0px;
      }
    </style>
  </defs>
  <path class="cls-1" d="m345.43,94.44c-8.15-8.15-8.15-21.33,0-29.46l46.08-46.06c16.62-16.65,45.67-16.65,62.31,0l46.06,46.06c8.15,8.12,8.15,21.31,0,29.46-4.06,4.06-9.4,6.1-14.73,6.1s-10.67-2.04-14.73-6.1l-46.08-46.06c-.83-.94-2.4-1.15-3.37,0l-46.08,46.06c-8.15,8.15-21.31,8.15-29.46,0Zm125,53.08l-46.08,46.08c-.94.94-2.44.94-3.37,0l-46.08-46.08c-8.15-8.15-21.31-8.15-29.46,0-8.15,8.15-8.15,21.31,0,29.46l46.08,46.08c8.58,8.58,19.87,12.9,31.15,12.9s22.56-4.31,31.15-12.9l46.08-46.08c8.15-8.15,8.15-21.31,0-29.46-8.15-8.15-21.31-8.15-29.46,0Zm-151.94,87.64v114.58c0,86.17-70.08,156.25-156.25,156.25S6,435.91,6,349.75v-114.58c0-68.94,56.06-125,125-125h10.42V26.84c0-11.5,9.33-20.83,20.83-20.83s20.83,9.33,20.83,20.83v83.33h10.42c68.94,0,125,56.06,125,125Zm-135.42-83.33v104.17h93.75v-20.83c0-45.96-37.37-83.33-83.33-83.33h-10.42ZM47.67,235.17v20.83h93.75v-104.17h-10.42c-45.96,0-83.33,37.37-83.33,83.33Zm229.16,114.58v-52.08H47.67v52.08c0,63.17,51.4,114.58,114.58,114.58s114.58-51.42,114.58-114.58Z"/>
</svg>