<?xml version="1.0" encoding="UTF-8"?>
<svg id="Layer_2" data-name="Layer 2" xmlns="http://www.w3.org/2000/svg" viewBox="0 0 458.91 500">
  <defs>
    <style>
      .cls-1 {
        fill: #fff;
        stroke-width: 0px;
      }
    </style>
  </defs>
  <g id="Layer_1-2" data-name="Layer 1">
    <g id="Icons">
      <path class="cls-1" d="m270.95,270.45c0,23-18.5,41.49-41.49,41.99s-41.49-18.5-41.99-41.49c0-15,8-28.99,21-35.99v-88.98c0-11.5,9.5-21,21-21s21,9.5,21,21v88.98c13,7.5,21,21,21,35.99l-.5-.5Zm125.98-154.97c85.98,92.48,80.48,237.45-12,323.44-92.48,85.98-237.45,80.48-323.44-12-81.48-87.98-81.48-223.96,0-311.44l-14-15.5c-8.5,3-17.5,4.5-26.49,4.5-11.5,0-21-9.5-21-21s9.5-21,21-21c16.5,0,21-4.5,21-21,0-11.5,9.5-21,21-21s21,9.5,21,21c0,10-2,20-6,29.49l14.5,16.5c33.99-25.49,73.99-40.99,115.98-44.49v-22c0-11.5,9.5-21,21-21s21,9.5,21,21v22c41.99,4,81.98,19.5,115.98,44.49l14.5-16.5c-4-9.5-6-19.5-6-29.49,0-11.5,9.5-21,21-21s21,9.5,21,21c0,16.5,4.5,21,21,21,11.5,0,21,9.5,21,21s-9.5,21-21,21c-9,0-18-1.5-26.49-4.5l-14,15.5h-.5Zm19.5,154.97c0-103.48-83.98-187.46-187.46-187.46S41.99,166.97,41.99,270.45s83.98,187.46,187.46,187.46,186.96-83.98,187.46-187.46h-.5Z"/>
    </g>
  </g>
</svg>