<?xml version="1.0" encoding="UTF-8"?>
<svg id="Layer_2" data-name="Layer 2" xmlns="http://www.w3.org/2000/svg" viewBox="0 0 24.5 24.5">
  <defs>
    <style>
      .cls-1 {
        fill: #fff;
        stroke-width: 0px;
      }
    </style>
  </defs>
  <g id="Icons">
    <g>
      <path class="cls-1" d="m23.2,7.18c-.18-.27-.46-.44-.77-.49-.32-.05-.63.05-.88.26l-2.64,2.26-.59-1.77c-.11-.34-.38-.6-.72-.71-.34-.1-.71-.04-1,.17l-3.22,2.41-.62-1.88c-.11-.34-.38-.6-.72-.71-.34-.1-.71-.04-1,.17l-3,2.25-1.36-7.68c-.04-.22-.15-.43-.31-.59C6.27.79,5.43,0,3.9,0S1.53.79,1.44.88c-.14.14-.24.32-.29.52C1.1,1.59,0,6.06,0,12.25c0,5.76,1.28,10,1.33,10.18.11.36.4.64.76.75.19.05,4.76,1.32,10.16,1.32s9.96-1.27,10.16-1.32c.33-.09.6-.33.73-.65.06-.14,1.36-3.4,1.36-9.16,0-4.12-1.17-5.99-1.3-6.19h0Zm-1.95,14c-1.35.33-4.98,1.1-9,1.1-3.98,0-7.57-.76-8.95-1.09-.33-1.32-1.07-4.71-1.07-8.94,0-4.85.72-8.67.99-9.89.3-.12,1.04-.13,1.34-.01l1.59,8.99c.07.38.33.7.69.84.36.14.77.09,1.08-.14l3.22-2.41.62,1.88c.11.34.38.6.72.71.34.11.71.04,1-.17l3.22-2.41.62,1.88c.12.35.4.62.76.72s.74.01,1.02-.23l2.72-2.33c.23.81.45,2.03.45,3.71,0,4.04-.69,6.74-1.02,7.81h0Z"/>
      <path class="cls-1" d="m9.57,15.75s-.57-.16-1.22-.16-1.2.15-1.22.16c-.14.04-.24.14-.29.28,0,.02-.16.54-.16,1.23s.16,1.21.16,1.23c.04.14.15.24.29.28.02,0,.57.16,1.22.16s1.2-.15,1.22-.16c.14-.04.24-.14.29-.28,0-.02.16-.54.16-1.23,0-.69-.16-1.21-.16-1.23-.04-.14-.15-.24-.29-.28Z"/>
      <path class="cls-1" d="m14.58,15.75s-.57-.16-1.22-.16-1.2.15-1.22.16c-.14.04-.24.14-.29.28,0,.02-.16.54-.16,1.23s.16,1.21.16,1.23c.04.14.15.24.29.28.02,0,.57.16,1.22.16s1.2-.15,1.22-.16c.14-.04.24-.14.29-.28,0-.02.16-.54.16-1.23s-.16-1.21-.16-1.23c-.04-.14-.15-.24-.29-.28Z"/>
      <path class="cls-1" d="m19.59,15.75s-.57-.16-1.22-.16-1.2.15-1.22.16c-.14.04-.24.14-.29.28,0,.02-.16.54-.16,1.23,0,.69.16,1.21.16,1.23.04.14.15.24.29.28.02,0,.57.16,1.22.16s1.2-.15,1.22-.16c.14-.04.24-.14.29-.28,0-.02.16-.54.16-1.23s-.16-1.21-.16-1.23c-.04-.14-.15-.24-.29-.28Z"/>
    </g>
  </g>
</svg>