<?xml version="1.0" encoding="UTF-8"?>
<svg id="Layer_2" data-name="Layer 2" xmlns="http://www.w3.org/2000/svg" viewBox="0 0 500 500">
  <defs>
    <style>
      .cls-1 {
        fill: #fff;
        stroke-width: 0px;
      }
    </style>
  </defs>
  <g id="Layer_1-2" data-name="Layer 1">
    <g>
      <path class="cls-1" d="m112.94,225.88C50.66,225.88,0,175.21,0,112.94S50.66,0,112.94,0s112.94,50.66,112.94,112.94c-.07,62.2-50.74,112.87-112.94,112.94h0Zm0-168.69c-30.74,0-55.75,25.01-55.75,55.75s25.01,55.75,55.75,55.75,55.75-25.01,55.75-55.75-25.01-55.75-55.75-55.75Z"/>
      <path class="cls-1" d="m387.06,225.88c-62.27,0-112.94-50.66-112.94-112.94S324.79,0,387.06,0s112.94,50.66,112.94,112.94c-.07,62.2-50.74,112.87-112.94,112.94h0Zm0-168.69c-30.74,0-55.75,25.01-55.75,55.75s25.01,55.75,55.75,55.75,55.75-25.01,55.75-55.75-25.01-55.75-55.75-55.75Z"/>
      <path class="cls-1" d="m112.94,500c-62.27,0-112.94-50.66-112.94-112.94s50.66-112.94,112.94-112.94,112.94,50.66,112.94,112.94c-.07,62.2-50.74,112.86-112.94,112.94h0Zm0-168.69c-30.74,0-55.75,25.01-55.75,55.75s25.01,55.75,55.75,55.75,55.75-25.01,55.75-55.75-25.01-55.75-55.75-55.75Z"/>
      <path class="cls-1" d="m387.06,500c-62.27,0-112.94-50.66-112.94-112.94s50.66-112.94,112.94-112.94,112.94,50.66,112.94,112.94c-.07,62.2-50.74,112.86-112.94,112.94h0Zm0-168.69c-30.74,0-55.75,25.01-55.75,55.75s25.01,55.75,55.75,55.75,55.75-25.01,55.75-55.75-25.01-55.75-55.75-55.75Z"/>
    </g>
  </g>
</svg>