<?xml version="1.0" encoding="UTF-8"?>
<svg id="Layer_2" data-name="Layer 2" xmlns="http://www.w3.org/2000/svg" viewBox="0 0 29.64 28.08">
  <defs>
    <style>
      .cls-1 {
        fill: #f33;
        stroke-width: 0px;
      }
    </style>
  </defs>
  <g id="Layer_6" data-name="Layer 6">
    <g>
      <path class="cls-1" d="m22.54,23.52c-2.07-.01-4.14-.02-6.21-.02H7.13c-.34,0-.68,0-1.02-.05C2.75,23.06.02,20.01,0,16.64,0,14.32,0,11.99,0,9.67v-2.79c0-.24.02-.47.05-.71C.49,2.65,3.52,0,7.08,0c1.76.01,3.47.02,5.18.02h6.83c1.17,0,2.33,0,3.5,0,2.66.01,4.73,1.22,6.16,3.58.44.73.72,1.57.89,2.65v11.01s-.04.2-.04.2c-.51,3.45-3.53,6.06-7.02,6.06h-.05ZM7.26,2.74c-.33,0-.65.03-.94.08-2.14.41-3.59,2.16-3.59,4.36,0,3.05,0,6.11,0,9.16,0,.29.03.57.08.84.4,2.16,2.17,3.6,4.4,3.61h15.24c.31,0,.61-.03.9-.08,2.14-.41,3.58-2.14,3.59-4.3.02-3.09.01-6.18,0-9.27,0-1.27-.47-2.34-1.37-3.2-.83-.79-1.87-1.19-3.08-1.19H7.28s-.02-.2-.02-.2v.2Z"/>
      <path class="cls-1" d="m9.35,28.07c-.6,0-1.09-.35-1.28-.9-.19-.57-.02-1.17.43-1.54.32-.26.7-.29.95-.29h9.7c.41,0,.82,0,1.23,0,.68.01,1.24.54,1.29,1.22.06.73-.39,1.34-1.07,1.47-.12.02-.24.03-.36.03h-8.4s-2.49,0-2.49,0Z"/>
      <path class="cls-1" d="m13.57,17.76c-.38,0-.73-.16-1-.45-.34-.38-.44-.83-.29-1.36l1.9-6.64c.22-.78.45-1.57.68-2.35.2-.68.69-1.06,1.35-1.06.44,0,.84.19,1.09.52.26.35.34.81.21,1.28-.4,1.41-.8,2.81-1.2,4.21l-.74,2.58c-.21.74-.42,1.49-.65,2.23-.19.63-.73,1.05-1.35,1.05Z"/>
      <path class="cls-1" d="m20.42,16.61c-.37,0-.71-.15-.97-.42-.53-.55-.51-1.4.06-1.97.39-.39,2.05-2.03,2.05-2.03.16-.16.24-.28.24-.37s-.08-.21-.25-.38l-.77-.77c-.43-.43-.86-.86-1.29-1.29-.54-.54-.58-1.34-.1-1.89.27-.31.65-.49,1.05-.49.33,0,.64.12.87.35.94.9,1.77,1.72,2.52,2.53.45.48.69,1.12.69,1.9,0,.88-.3,1.62-.88,2.2-.74.74-1.49,1.47-2.24,2.2-.28.27-.63.42-1,.42Z"/>
      <path class="cls-1" d="m9.35,16.62c-.33,0-.65-.13-.89-.35-.85-.8-1.69-1.6-2.46-2.44-1.05-1.13-1.01-2.97.08-4.1.52-.54,1.06-1.07,1.59-1.6l.69-.69c.28-.28.6-.42.96-.42.63.02,1.06.3,1.28.82.24.55.14,1.08-.27,1.51-.48.49-.97.98-1.46,1.47l-.52.51c-.19.19-.36.38-.36.5,0,.12.18.31.36.49l.51.5c.48.47.96.95,1.44,1.43.53.54.56,1.35.08,1.9-.27.3-.64.47-1.04.47Z"/>
    </g>
  </g>
</svg>