<?xml version="1.0" encoding="UTF-8"?>
<svg id="Layer_2" data-name="Layer 2" xmlns="http://www.w3.org/2000/svg" viewBox="0 0 500 500">
  <defs>
    <style>
      .cls-1 {
        fill: #fff;
        stroke-width: 0px;
      }
    </style>
  </defs>
  <g id="Layer_1-2" data-name="Layer 1">
    <g id="Icons">
      <path class="cls-1" d="m0,250C0,111.87,111.87,0,250,0s250,111.87,250,250-111.87,250-250,250C112.08,499.79,0,387.92,0,250Zm458.33,0c0-115-93.33-208.33-208.33-208.33S41.67,135,41.67,250s93.33,208.33,208.33,208.33,208.12-93.33,208.33-208.33Zm-279.37,29.37l98.13,98.12,29.37-29.37-98.13-98.13,97.29-97.29-29.37-29.37-97.29,97.29c-16.25,16.25-16.25,42.71,0,58.96h0v-.21Z"/>
    </g>
  </g>
</svg>