<?xml version="1.0" encoding="UTF-8"?>
<svg id="Layer_2" data-name="Layer 2" xmlns="http://www.w3.org/2000/svg" viewBox="0 0 24.5 24.5">
  <defs>
    <style>
      .cls-1 {
        fill: #fff;
        stroke-width: 0px;
      }
    </style>
  </defs>
  <g id="Icons">
    <path class="cls-1" d="m18.38,2.04c-2.46,0-5.1,2.24-5.1,7.15,0,1.77.83,3.44,1.64,5.05.73,1.46,1.42,2.85,1.42,4.14v2.55c0,1.97,1.6,3.57,3.57,3.57s3.57-1.6,3.57-3.57v-2.55c0-1.41.23-2.34.48-3.32.27-1.06.54-2.16.54-3.82,0-7.54-4.42-9.19-6.12-9.19Zm1.53,20.42c-.84,0-1.53-.69-1.53-1.53v-1.53h3.06v1.53c0,.84-.69,1.53-1.53,1.53Zm2.07-7.9c-.21.83-.42,1.68-.5,2.8h-3.19c-.23-1.4-.9-2.73-1.55-4.03-.73-1.46-1.42-2.85-1.42-4.14,0-3.35,1.54-5.1,3.06-5.1.04,0,4.08.19,4.08,7.15,0,1.41-.23,2.34-.48,3.32h0ZM6.13,0C4.42,0,0,1.65,0,9.19c0,1.66.28,2.76.54,3.82.25.99.48,1.92.48,3.32v2.55c0,1.97,1.6,3.57,3.57,3.57s3.57-1.6,3.57-3.57v-2.55c0-1.29.69-2.67,1.42-4.14.81-1.61,1.64-3.28,1.64-5.05C11.23,2.24,8.58,0,6.13,0Zm-1.53,20.42c-.84,0-1.53-.69-1.53-1.53v-1.53h3.06v1.53c0,.84-.69,1.53-1.53,1.53Zm3.17-9.13c-.65,1.3-1.32,2.63-1.55,4.03h-3.19c-.08-1.12-.3-1.97-.5-2.8-.25-.99-.48-1.92-.48-3.32,0-6.95,4.04-7.15,4.08-7.15,1.52,0,3.06,1.75,3.06,5.1,0,1.29-.69,2.67-1.42,4.14h0Z"/>
  </g>
</svg>