<?xml version="1.0" encoding="UTF-8"?>
<svg id="Layer_2" data-name="Layer 2" xmlns="http://www.w3.org/2000/svg" viewBox="0 0 31.24 27.36">
  <defs>
    <style>
      .cls-1 {
        fill: #fff;
        stroke-width: 0px;
      }
    </style>
  </defs>
  <g id="Icons">
    <path class="cls-1" d="m31.24,14.33v-6.51c0-.72-.58-1.3-1.3-1.3-.3,0-.57.12-.79.29-.4-.82-.93-1.57-1.59-2.19-.81-.77-1.77-1.32-2.83-1.65v-1.66c0-.72-.58-1.3-1.3-1.3s-1.3.58-1.3,1.3v1.32c-.06,0-.13,0-.19,0l-12.72,1.9c-.91-1.21-2.37-1.88-3.85-1.92C2.28,2.44-.29,5.3.03,8.39l1.1,7.62c.18,1.27,1.29,2.23,2.58,2.23h.17v1.3c0,.72.58,1.3,1.3,1.3s1.3-.58,1.3-1.3v-1.3h.18c1.28,0,2.39-.95,2.58-2.22l.31-2.05,6.22.79c.65.08,1.14.64,1.14,1.29v8.7H5.86c-.72,0-1.3.58-1.3,1.3s.58,1.3,1.3,1.3h24.07c.72,0,1.3-.58,1.3-1.3s-.58-1.3-1.3-1.3v-9.12c.72,0,1.3-.58,1.3-1.3h0Zm-27.53,1.3l-1.09-7.53c-.16-1.5,1.15-3.01,2.68-2.89,1.43,0,2.6,1.37,2.52,2.78l-1.15,7.64h-2.96Zm15.81,9.12v-8.7c0-1.96-1.47-3.63-3.42-3.88l-6.16-.78.47-3.09c.05-.44,0-.88-.07-1.32l11.86-1.77c1.34-.07,2.61.38,3.57,1.29,1.01.95,1.57,2.28,1.57,3.72v14.52h-7.82Z"/>
  </g>
</svg>