<?xml version="1.0" encoding="UTF-8"?>
<svg id="Layer_2" data-name="Layer 2" xmlns="http://www.w3.org/2000/svg" viewBox="0 0 24 24">
  <defs>
    <style>
      .cls-1 {
        fill: #f33;
        stroke-width: 0px;
      }
    </style>
  </defs>
  <g id="Layer_6" data-name="Layer 6">
    <path class="cls-1" d="m12.65,13.88c.41.41.11,1.11-.46,1.11h-1.19v7.5c0,.83-.67,1.5-1.5,1.5s-1.5-.67-1.5-1.5v-7.5h-1.19c-.58,0-.87-.7-.46-1.11l2.64-2.67c.14-.14.33-.22.52-.22s.37.07.52.22l2.64,2.67Zm5.15-8.97c-.15-.03-.26-.11-.32-.24C15.9,1.33,12.23-.53,8.56.14,5.21.75,2.58,3.42,2.02,6.79c-.16.99-.15,1.98.03,2.95.02.1-.05.25-.16.35-1.19,1.08-1.9,2.73-1.9,4.4,0,2.51,1.7,4.7,4.13,5.33.12.03.25.05.38.05.67,0,1.28-.45,1.45-1.13.21-.8-.28-1.62-1.08-1.83-1.1-.28-1.87-1.28-1.87-2.42,0-.82.36-1.68.91-2.18.89-.81,1.31-2.01,1.09-3.14-.12-.62-.13-1.25-.02-1.89.35-2.09,2.04-3.81,4.11-4.19,2.37-.43,4.66.72,5.68,2.87.47.99,1.36,1.68,2.45,1.9,2.19.44,3.78,2.38,3.78,4.64,0,.89-.26,1.75-.75,2.49-.46.69-.27,1.62.42,2.08.69.46,1.62.27,2.08-.42.82-1.23,1.25-2.67,1.25-4.17,0-3.66-2.6-6.84-6.19-7.56Zm1.31,15.08h-1.11v-7.5c0-.83-.67-1.5-1.5-1.5s-1.5.67-1.5,1.5v7.5h-1.11c-.56,0-.86.66-.49,1.08l2.2,2.5c.48.56,1.32.56,1.8,0l2.2-2.5c.37-.42.07-1.08-.49-1.08h0Z"/>
  </g>
</svg>