<?xml version="1.0" encoding="UTF-8"?>
<svg id="Layer_2" data-name="Layer 2" xmlns="http://www.w3.org/2000/svg" viewBox="0 0 500 500.11">
  <defs>
    <style>
      .cls-1 {
        fill: #fff;
        stroke-width: 0px;
      }
    </style>
  </defs>
  <g id="Layer_1-2" data-name="Layer 1">
    <path class="cls-1" d="m469.49,176.41L323.66,30.53C303.97,10.86,277.81,0,249.98,0s-54.01,10.86-73.68,30.53L30.46,176.41c-40.61,40.61-40.61,106.69,0,147.3l145.84,145.88c19.67,19.67,45.84,30.53,73.68,30.53s53.99-10.86,73.68-30.53l145.84-145.88c19.67-19.67,30.51-45.82,30.51-73.64s-10.84-53.99-30.51-73.66h0Zm-29.46,117.83l-145.84,145.88c-23.63,23.61-64.8,23.61-88.43,0L59.92,294.24c-24.36-24.36-24.36-64.01,0-88.37L205.76,59.99c11.81-11.79,27.5-18.32,44.22-18.32s32.4,6.5,44.22,18.32l145.84,145.88c11.79,11.79,18.29,27.48,18.29,44.2s-6.5,32.38-18.29,44.17Zm-158.82,49.7c0,17.25-14,31.26-31.26,31.26s-31.26-14-31.26-31.26,14-31.26,31.26-31.26,31.26,14,31.26,31.26Zm-52.09-83.35v-114.6c0-11.52,9.33-20.84,20.84-20.84s20.84,9.31,20.84,20.84v114.6c0,11.52-9.33,20.84-20.84,20.84s-20.84-9.31-20.84-20.84Z"/>
  </g>
</svg>