<?xml version="1.0" encoding="UTF-8"?>
<svg id="Layer_2" data-name="Layer 2" xmlns="http://www.w3.org/2000/svg" viewBox="0 0 500 409.09">
  <defs>
    <style>
      .cls-1 {
        fill: #fff;
        stroke-width: 0px;
      }
    </style>
  </defs>
  <g id="Layer_1-2" data-name="Layer 1">
    <path class="cls-1" d="m477.27,409.09c-12.57,0-22.73-10.18-22.73-22.73V22.73c0-12.55,10.16-22.73,22.73-22.73s22.73,10.18,22.73,22.73v363.64c0,12.55-10.16,22.73-22.73,22.73Zm-90.91,0c-12.57,0-22.73-10.18-22.73-22.73V22.73c0-12.55,10.16-22.73,22.73-22.73s22.73,10.18,22.73,22.73v363.64c0,12.55-10.16,22.73-22.73,22.73Zm-310.75-6.16c-11.57,0-23.25-2.77-34.3-8.34C15.43,381.45,0,356.34,0,327.36V81.75C0,52.77,15.43,27.64,41.3,14.52c25.43-12.89,55.73-10.39,78.64,6.48l167.45,122.77c19.55,14.34,30.77,36.5,30.77,60.77s-11.23,46.43-30.8,60.77l-167.45,122.8c-13.36,9.82-28.75,14.8-44.3,14.8v.02Zm-.07-351.25c-4.66,0-9.27,1.14-13.7,3.39-10.41,5.27-16.39,15-16.39,26.68v245.61c0,11.68,5.98,21.39,16.39,26.68,10.43,5.27,21.8,4.32,31.18-2.55l167.48-122.82c7.89-5.77,12.23-14.34,12.23-24.11s-4.34-18.34-12.23-24.11L93.05,57.64c-5.3-3.91-11.36-5.95-17.5-5.95h0Z"/>
  </g>
</svg>