<?xml version="1.0" encoding="UTF-8"?>
<svg id="Layer_2" data-name="Layer 2" xmlns="http://www.w3.org/2000/svg" viewBox="0 0 500 545.43">
  <defs>
    <style>
      .cls-1 {
        fill: #fff;
        stroke-width: 0px;
      }
    </style>
  </defs>
  <g id="Layer_1-2" data-name="Layer 1">
    <path class="cls-1" d="M500,438.14v84.57c0,12.55-10.16,22.73-22.73,22.73s-22.73-10.18-22.73-22.73v-84.57c0-32.39-23.07-60.5-54.82-66.86l-154.18-30.84c-10.61-2.11-18.27-11.45-18.27-22.27v-156.66c0-12.23-8.23-23.14-18.73-24.82-6.95-1.14-13.55.68-18.7,5.07-5.09,4.32-8.02,10.64-8.02,17.32v309.95c0,8.73-5,16.68-12.86,20.48-7.82,3.8-17.18,2.77-24.02-2.7l-59.93-47.73c-10.52-9.73-24.89-9.23-33.41-.09-8.55,9.16-8.07,23.61,1.07,32.2l31.3,30.18c9.02,8.7,9.3,23.09.57,32.14-8.7,9.02-23.09,9.27-32.14.57l-31.07-29.95c-27.16-25.48-28.61-68.7-2.95-96.16,25.66-27.41,68.84-28.89,96.3-3.27l21.7,17.25V159.07c0-20.02,8.75-38.95,24.02-51.95,15.25-13,35.48-18.59,55.43-15.32,32.43,5.25,56.89,35.23,56.89,69.68v138.02l135.91,27.18c52.93,10.59,91.36,57.45,91.36,111.43l.02.02ZM80.55,238.61c3.18,0,6.39-.66,9.48-2.07,11.41-5.23,16.41-18.73,11.18-30.14-6.84-14.89-10.3-30.82-10.3-47.34,0-62.66,50.98-113.64,113.64-113.64s113.64,50.98,113.64,113.64c0,16.57-3.45,32.48-10.27,47.34-5.25,11.41-.25,24.91,11.14,30.14,11.48,5.25,24.93.25,30.14-11.16,9.59-20.84,14.45-43.16,14.45-66.3C363.64,71.36,292.27,0,204.55,0S45.45,71.34,45.45,159.07c0,23.11,4.86,45.41,14.43,66.3,3.82,8.34,12.07,13.25,20.68,13.25h-.02Z"/>
  </g>
</svg>