<?xml version="1.0" encoding="UTF-8"?>
<svg id="Layer_2" data-name="Layer 2" xmlns="http://www.w3.org/2000/svg" viewBox="0 0 27.34 27.34">
  <defs>
    <style>
      .cls-1 {
        fill: #f33;
        stroke-width: 0px;
      }
    </style>
  </defs>
  <g id="Layer_6" data-name="Layer 6">
    <path class="cls-1" d="m26.67,18.33s-9.95-4.52-9.98-4.53c-.83-.28-1.73-.07-2.35.55s-.83,1.52-.5,2.45l4.49,9.88c.18.4.58.66,1.02.67h.02c.43,0,.83-.24,1.02-.63l2.11-4.22,4.22-2.11c.39-.2.64-.6.63-1.04,0-.44-.27-.83-.67-1.02h0Zm-11.96,6.69c-.2.02-.39.03-.59.04-.76-.75-2.74-2.87-4.13-5.69h.83c.63,0,1.14-.51,1.14-1.14s-.51-1.14-1.14-1.14h-1.74c-.33-1.08-.54-2.23-.54-3.42s.21-2.33.54-3.42h9.18c.13.44.25.89.34,1.35.12.62.72,1.03,1.33.91.62-.12,1.02-.71.91-1.33-.06-.31-.13-.62-.21-.93h3.91c.34,1.08.52,2.23.52,3.42,0,.35-.02.69-.05,1.04-.06.63.41,1.18,1.03,1.24.63.06,1.18-.41,1.24-1.03.04-.41.06-.82.06-1.24,0-7.54-6.13-13.67-13.67-13.67S0,6.13,0,13.67s6.13,13.67,13.67,13.67h0c.42,0,.83-.02,1.24-.06.63-.06,1.09-.61,1.03-1.24-.06-.63-.61-1.09-1.23-1.03h0Zm-8-7.93h-3.91c-.34-1.08-.52-2.23-.52-3.42s.18-2.34.52-3.42h3.91c-.28,1.09-.45,2.23-.45,3.42s.17,2.33.45,3.42h0Zm3.28-9.11c1.16-2.37,2.75-4.24,3.68-5.23.93.98,2.52,2.86,3.68,5.23h-7.36Zm13.54,0h-3.68c-.9-2.15-2.15-3.97-3.23-5.3,2.94.79,5.41,2.73,6.9,5.3ZM10.71,2.67c-1.08,1.33-2.33,3.16-3.23,5.3h-3.67c1.49-2.57,3.96-4.51,6.9-5.3ZM3.81,19.36h3.67c.9,2.15,2.15,3.97,3.23,5.3-2.94-.79-5.41-2.73-6.9-5.3Z"/>
  </g>
</svg>