<?xml version="1.0" encoding="UTF-8"?>
<svg id="Layer_2" data-name="Layer 2" xmlns="http://www.w3.org/2000/svg" viewBox="0 0 500 500">
  <defs>
    <style>
      .cls-1 {
        fill: #fff;
        stroke-width: 0px;
      }
    </style>
  </defs>
  <g id="Layer_1-2" data-name="Layer 1">
    <path class="cls-1" d="m250,145.83c-57.44,0-104.17,46.73-104.17,104.17s46.73,104.17,104.17,104.17,104.17-46.73,104.17-104.17-46.73-104.17-104.17-104.17Zm0,166.67c-34.46,0-62.5-28.04-62.5-62.5s28.04-62.5,62.5-62.5,62.5,28.04,62.5,62.5-28.04,62.5-62.5,62.5Zm229.17-83.33h-21.87c-9.81-98.27-88.19-176.67-186.46-186.46v-21.88c0-11.52-9.33-20.83-20.83-20.83s-20.83,9.31-20.83,20.83v21.87c-98.27,9.79-176.67,88.19-186.46,186.46h-21.87c-11.5,0-20.83,9.31-20.83,20.83s9.33,20.83,20.83,20.83h21.87c9.81,98.27,88.19,176.67,186.46,186.46v21.87c0,11.52,9.33,20.83,20.83,20.83s20.83-9.31,20.83-20.83v-21.87c98.27-9.81,176.67-88.19,186.46-186.46h21.87c11.5,0,20.83-9.31,20.83-20.83s-9.33-20.83-20.83-20.83h0Zm-229.17,187.5c-91.9,0-166.67-74.77-166.67-166.67S158.1,83.33,250,83.33s166.67,74.77,166.67,166.67-74.77,166.67-166.67,166.67Z"/>
  </g>
</svg>