<?xml version="1.0" encoding="UTF-8" standalone="no"?>
<!DOCTYPE svg PUBLIC "-//W3C//DTD SVG 1.1//EN" "http://www.w3.org/Graphics/SVG/1.1/DTD/svg11.dtd">
<svg width="100%" height="100%" viewBox="0 0 500 500" version="1.1" xmlns="http://www.w3.org/2000/svg" xmlns:xlink="http://www.w3.org/1999/xlink" xml:space="preserve" xmlns:serif="http://www.serif.com/" style="fill-rule:evenodd;clip-rule:evenodd;stroke-linejoin:round;stroke-miterlimit:2;">
    <g id="down-arrow.png" transform="matrix(0,1.17069,-1.17069,0,389.544101,-3.004851)">
        <path d="M417.005,14.987C448.296,51.888 413.166,78.873 401.519,90.519C242.343,249.695 242.633,250.475 234.341,254.17C201.74,268.696 183.166,243.093 166.037,225.963C116.191,176.142 66.345,126.322 16.499,76.501C-24.507,35.257 33.858,-26.103 77.347,16.653C82.43,21.65 82.284,21.676 140.348,79.652C214.429,153.62 215.24,155.7 217.215,154.144C221.075,151.104 355.74,13.883 363.794,8.983C391.656,-7.966 413.83,12.112 417.005,14.987Z" style="fill-opacity:1;"/>
    </g>
</svg>
