<?xml version="1.0" encoding="UTF-8"?>
<svg id="Layer_2" data-name="Layer 2" xmlns="http://www.w3.org/2000/svg" viewBox="0 0 10 10">
  <defs>
    <style>
      .cls-1 {
        fill: #fff;
        stroke-width: 0px;
      }
    </style>
  </defs>
  <g id="Icons">
    <path class="cls-1" d="m2.29,5.12s.95.33,2.71.33,2.67-.32,2.71-.33c.13-.04.23-.14.27-.27.01-.03.31-.85.31-2.13s-.3-2.09-.31-2.13c-.05-.13-.15-.22-.27-.27-.04-.01-.95-.33-2.71-.33s-2.67.32-2.71.33c-.13.04-.23.14-.27.27-.01.03-.31.85-.31,2.13s.3,2.09.31,2.13c.05.13.15.22.27.27ZM5,.91c.14,0,.27,0,.4,0-.01.22-.03.41-.05.57-.02.19-.17.33-.37.33-.17,0-.32-.15-.34-.33-.02-.16-.03-.35-.05-.57.13,0,.26,0,.4,0h0Zm-2.19.22c.18-.04.48-.1.89-.15.02.23.03.43.05.6.07.65.6,1.15,1.28,1.15.64,0,1.18-.5,1.24-1.15.02-.16.03-.37.05-.6.41.05.71.11.89.15.08.29.19.85.19,1.6s-.12,1.31-.19,1.6c-.34.08-1.07.22-2.19.22s-1.86-.14-2.19-.22c-.08-.29-.19-.85-.19-1.6s.12-1.31.19-1.6Zm-.08,6.83c0,.25-.2.45-.45.45s-.45-.2-.45-.45.2-.45.45-.45.45.2.45.45Zm5.58-1.88c-.67-.07-1.79-.16-3.31-.16s-2.64.09-3.31.16C.73,6.18,0,6.97,0,7.93c-.02.97.71,1.8,1.69,1.91.67.07,1.79.16,3.31.16s2.64-.09,3.31-.16c.98-.11,1.71-.94,1.69-1.91,0-.95-.73-1.75-1.69-1.86Zm.78,1.91c0,.49-.38.9-.88.96-.65.07-1.73.16-3.21.16s-2.56-.09-3.21-.16c-.5-.05-.88-.47-.88-1,0-.49.38-.9.88-.96.65-.07,1.73-.16,3.21-.16s2.56.09,3.21.16c.5.05.88.47.88.98v.02Zm-3.64-.02c0,.25-.2.45-.45.45s-.45-.2-.45-.45.2-.45.45-.45.45.2.45.45Zm2.73,0c0,.25-.2.45-.45.45s-.45-.2-.45-.45.2-.45.45-.45.45.2.45.45Z"/>
  </g>
</svg>