<?xml version="1.0" encoding="UTF-8"?>
<svg id="Layer_2" data-name="Layer 2" xmlns="http://www.w3.org/2000/svg" viewBox="0 0 24.39 29.27">
  <defs>
    <style>
      .cls-1 {
        fill: #f33;
        stroke-width: 0px;
      }
    </style>
  </defs>
  <g id="Layer_6" data-name="Layer 6">
    <path class="cls-1" d="m12.19,24.39c0,.67-.55,1.22-1.22,1.22h-2.44c-.67,0-1.22-.55-1.22-1.22s.55-1.22,1.22-1.22h2.44c.67,0,1.22.55,1.22,1.22Zm7.32-3.66v2.44c0,3.36-2.74,6.1-6.1,6.1h-7.32c-3.36,0-6.1-2.74-6.1-6.1V6.1C0,2.74,2.74,0,6.1,0h7.32c.67,0,1.22.55,1.22,1.22s-.55,1.22-1.22,1.22h-7.32c-2.02,0-3.66,1.64-3.66,3.66v13.41h15.85c.67,0,1.22.55,1.22,1.22Zm-2.44,2.44v-1.22H2.44v1.22c0,2.02,1.64,3.66,3.66,3.66h7.32c2.02,0,3.66-1.64,3.66-3.66Zm7.32-14.58v2.98c0,1.46-.79,2.81-2.07,3.52l-2.66,1.48c-.6.34-1.28.5-1.95.5s-1.38-.18-2-.53l-2.7-1.55c-1.25-.71-2.03-2.05-2.03-3.49v-2.91c0-1.45.78-2.79,2.04-3.5l2.68-1.52c1.22-.69,2.74-.69,3.96,0l2.69,1.52c1.26.71,2.04,2.06,2.04,3.5h0Zm-9.65-1.68l2.94,1.68,2.94-1.68-2.17-1.22c-.24-.14-.51-.2-.78-.2s-.54.07-.78.2l-2.16,1.22Zm1.72,7.25v-3.45s-3.04-1.74-3.04-1.74v2.54c0,.57.31,1.1.8,1.38l2.24,1.28h0Zm5.49-2.59v-2.6l-3.05,1.74v3.49s2.23-1.24,2.23-1.24c.5-.28.82-.81.82-1.39h0Z"/>
  </g>
</svg>