<?xml version="1.0" encoding="UTF-8"?>
<svg id="Layer_2" data-name="Layer 2" xmlns="http://www.w3.org/2000/svg" viewBox="0 0 276.05 276.31">
  <defs>
    <style>
      .cls-1 {
        fill: #fff;
        stroke-width: 0px;
      }
    </style>
  </defs>
  <g id="Bold">
    <path class="cls-1" d="m183.92,137.63l82.75-82.84c11.67-13.27,10.38-33.49-2.89-45.16-12.09-10.63-30.19-10.63-42.28,0l-82.84,82.75L55.69,9.38C43.19-3.13,22.92-3.13,10.42,9.38s-12.5,32.77,0,45.27l83.01,82.99L10.67,220.45c-13.18,11.78-14.31,32.01-2.53,45.18,11.78,13.18,32.01,14.31,45.18,2.53.89-.8,1.74-1.64,2.53-2.53l82.82-82.75,82.73,82.75c12.5,12.5,32.77,12.5,45.27,0s12.5-32.77,0-45.27l-82.75-82.73Z"/>
  </g>
</svg>