<?xml version="1.0" encoding="UTF-8"?>
<svg id="Layer_2" data-name="Layer 2" xmlns="http://www.w3.org/2000/svg" viewBox="0 0 500 454.55">
  <defs>
    <style>
      .cls-1 {
        fill: #fff;
        stroke-width: 0px;
      }
    </style>
  </defs>
  <g id="Layer_1-2" data-name="Layer 1">
    <g>
      <path class="cls-1" d="M99.64,389.16s-.01,0-.02,0h.03s0,0-.01,0Z"/>
      <path class="cls-1" d="M499.98,347.23c0-53.98-38.43-100.84-91.36-111.43l-45-9V70.6c0-34.45-24.45-64.43-56.89-69.68-19.95-3.27-40.18,2.32-55.43,15.32-.55.46-1.08.94-1.61,1.42-9.34-8.64-20.97-14.65-33.87-16.74-19.95-3.27-40.18,2.32-55.43,15.32-15.27,13-24.02,31.93-24.02,51.95v262.86l-21.7-17.25c-27.45-25.61-70.64-24.14-96.3,3.27-25.66,27.45-24.2,70.68,2.95,96.16l31.07,29.95c9.05,8.7,23.43,8.45,32.14-.57,8.73-9.05,8.45-23.43-.57-32.14l-31.3-30.18c-9.14-8.59-9.61-23.05-1.07-32.2,8.52-9.14,22.89-9.64,33.41.09l59.93,47.73c6.84,5.48,16.2,6.5,24.02,2.7,7.86-3.8,12.86-11.75,12.86-20.48V68.19c0-6.68,2.93-13,8.02-17.32,5.16-4.39,11.75-6.2,18.7-5.07,10.5,1.68,18.73,12.59,18.73,24.82v156.66c0,10.82,7.66,20.16,18.27,22.27l27.18,5.44V68.19c0-6.68,2.93-13,8.02-17.32,5.16-4.39,11.75-6.2,18.7-5.07,10.5,1.68,18.73,12.59,18.73,24.82v193.46l45.43,9.09,36.11,7.22c31.75,6.36,54.82,34.48,54.82,66.86v84.57c0,12.55,10.16,22.73,22.73,22.73s22.73-10.18,22.73-22.73v-84.57l-.02-.02Z"/>
    </g>
  </g>
</svg>