<?xml version="1.0" encoding="UTF-8"?>
<svg id="Layer_1" data-name="Layer 1" xmlns="http://www.w3.org/2000/svg" viewBox="0 0 512 512">
  <defs>
    <style>
      .cls-1 {
        fill: #fff;
      }
    </style>
  </defs>
  <path class="cls-1" d="M.02,427.97V84.03C7.29,42.54,40.24,10.1,82.64,6.17l344.85-.17c43.79,3.26,78.99,37.07,84.43,80.54l.06,336.97c-4.22,44.22-40.18,79.18-84.49,82.48H85.46C44.98,504.91,4.36,468.35.02,427.97ZM389.14,143.93c0-14.68-11.9-26.58-26.58-26.58s-26.58,11.9-26.58,26.58,11.9,26.58,26.58,26.58,26.58-11.9,26.58-26.58ZM268.48,358.98h44.99c1.32,0,2.04-3.91,1.29-5.26l-77.26-217.72-57.06-1.04-1.5.7c-.38,14.01-5.36,26.07-9.68,39.12-20.26,61.29-43.76,121.57-63.23,183.15,1.26,1.83,42.58,1.54,44.54.13,3.9-2.8,14.23-44.72,17.52-51.97l80.28-.16,17.61,51.29c.37.73,1.84,1.65,2.49,1.76ZM385.95,189.01h-46.99v169.97h46.99v-169.97Z"/>
  <polygon class="cls-1" points="235.98 263 180.99 263 207 173.01 235.98 263"/>
</svg>