<?xml version="1.0" encoding="UTF-8"?>
<svg id="Layer_1" data-name="Layer 1" xmlns="http://www.w3.org/2000/svg" viewBox="0 0 512 512">
  <defs>
    <style>
      .cls-1 {
        fill: #fff;
      }
    </style>
  </defs>
  <path class="cls-1" d="M511.98,84.03v343.94c-7.34,41.58-40.12,73.82-82.61,77.86l-344.85.17C40.93,502.79,5.5,468.7.08,425.46L.02,88.49C4.15,44.5,40.42,9.15,84.51,6.01h342.03c40.75,1.25,80.9,37.36,85.44,78.03ZM273.02,357.99c.02-3.98-1.74-7.8-2.98-11.52-22.08-66.16-46.65-137.11-71.99-201.96-1.32-3.38-2.46-9.65-6.46-9.54-16.39,1.59-36.13-1.93-52.09,0-5.39.65-2.88,4.19-3.57,8.42-.73,4.5-1.63,8.75-2.86,13.14-17.15,61.2-44.86,124.89-65.02,185.93-1.66,5.02-4.08,10.23-3.98,15.52h43.49c3.03,0,15.66-46.87,18.44-52.55l80.09.02.79,1.2c2.41,5.58,15.93,51.33,18.66,51.33h47.49ZM423.99,351.49v-36.49c-31.73,12.49-88.19,15.6-91.99-29.99,24.16.1,48.36-.12,72.53-.04,9.78.03,18.58,1.33,28.9-.05,1.23-.16,2.94-.47,3.63-1.57s1.82-13.38,1.91-15.84c1.67-44.25-21.78-79.53-68.44-81.52-62.67-2.67-94.82,54.19-84.06,111.06,10.44,55.15,57.23,70.28,107.87,63.81,4.75-.61,28.43-5.19,29.64-9.36Z"/>
  <polygon class="cls-1" points="193.03 263 138.04 263 165.54 174.01 193.03 263"/>
  <path class="cls-1" d="M394.92,252.92c-2.5,3.64-55.02,1.47-62.92,2.09,1.34-41.33,61.24-45.26,62.92-2.09Z"/>
</svg>