<svg xmlns="http://www.w3.org/2000/svg" fill="none" viewBox="0 0 15 15" id="3ds-Max-Logo--Streamline-Logos" height="15" width="15">
  <desc>
    3ds Max Logo Streamline Icon: https://streamlinehq.com
  </desc>
  <path fill="#ffffff" fill-rule="evenodd" d="M3.01875 0.728125A0.46875 0.46875 0 0 1 3.4375 0.46875H10a0.46875 0.46875 0 0 1 0.41500000000000004 0.25125000000000003l3.435625 6.558125a0.48125 0.48125 0 0 1 0.055624999999999994 0.21000000000000002l0 0.011875a0.491875 0.491875 0 0 1 -0.021875000000000002 0.14250000000000002 0.42625 0.42625 0 0 1 -0.03375 0.079375l-3.435625 6.558125a0.46875 0.46875 0 0 1 -0.41500000000000004 0.25125000000000003H3.4375a0.46875 0.46875 0 0 1 -0.41875 -0.25937499999999997l-1.25 -2.5a0.46875 0.46875 0 0 1 0.25937499999999997 -0.65l2.90625 -1.05 -2.4375 -2.225625a0.46875 0.46875 0 0 1 0 -0.6925000000000001l2.4375 -2.22625 -2.90625 -1.049375a0.46875 0.46875 0 0 1 -0.26 -0.65l1.25 -2.5Zm3.7 8.7 -0.7875 0.284375L3.506875 7.5 5.93125 5.2875000000000005l0.788125 0.284375v3.85625ZM12.057500000000001 7.5l-4.40125 1.589375V5.9106250000000005L12.057500000000001 7.5ZM2.94625 12.03125l0.78125 1.5625h5.063750000000001l-1.71125 -1.5625H2.94625Zm6.920625 1.275 2.324375 -4.4375 -4.19625 2.7281250000000004 1.8718750000000002 1.7093749999999999Zm0 -11.612499999999999 2.324375 4.4375 -4.19625 -2.7281250000000004 1.8718750000000002 -1.7093749999999999Zm-6.139375 -0.28750000000000003h5.063750000000001l-1.71125 1.5625H2.94625l0.78125 -1.5625Z" clip-rule="evenodd" stroke-width="0.625"></path>
</svg>