<?xml version="1.0" encoding="UTF-8" standalone="no"?>
<!DOCTYPE svg PUBLIC "-//W3C//DTD SVG 1.1//EN" "http://www.w3.org/Graphics/SVG/1.1/DTD/svg11.dtd">
<svg width="100%" height="100%" viewBox="0 0 250 250" version="1.1" xmlns="http://www.w3.org/2000/svg" xmlns:xlink="http://www.w3.org/1999/xlink" xml:space="preserve" xmlns:serif="http://www.serif.com/" style="fill-rule:evenodd;clip-rule:evenodd;stroke-linejoin:round;stroke-miterlimit:2;">
    <g id="Artboard1" transform="matrix(1,0,0,1,57.88,53.76)">
        <rect x="-57.88" y="-53.76" width="250" height="250" style="fill:none;"/>
        <clipPath id="_clip1">
            <rect x="-57.88" y="-53.76" width="250" height="250"/>
        </clipPath>
        <g clip-path="url(#_clip1)">
            <g transform="matrix(1.75537,0,0,1.725421,-831.498784,-814.053958)">
                <path d="M466.54,440.77L562.12,440.77C565.875,440.831 568.987,443.811 569.21,447.56L569.21,524.85C569.16,530.21 569.31,535.58 569.13,540.94L466.56,540.94C466.5,507.57 466.56,474.21 466.56,440.84L466.54,440.77ZM503,465.84C498.936,468.596 496.385,473.098 496.11,478L509.04,478C509.198,476.73 509.621,475.507 510.28,474.41C511.589,472.57 513.744,471.512 516,471.6C518.07,471.52 520.41,471.99 521.74,473.73C522.9,475.26 522.74,477.28 522.74,479.09C522.811,480.97 521.815,482.737 520.17,483.65C517.17,485.36 513.67,484.65 510.42,484.87C510.42,487.95 510.32,491.03 510.53,494.11C514.53,494.21 519.07,493.58 522.53,496.18C525.05,498.07 524.97,501.56 524.65,504.37C524.379,506.719 522.788,508.718 520.56,509.51C517.959,510.416 515.117,510.352 512.56,509.33C510.281,508.286 508.721,506.105 508.47,503.61L495.61,503.61C495.896,508.72 498.569,513.41 502.82,516.26C507.01,519.03 512.15,519.92 517.1,519.94C522.55,520.01 528.22,518.75 532.66,515.47C536.03,512.98 538.53,509.06 538.51,504.78C538.44,501.89 538.91,498.78 537.51,496.14C535.51,491.99 531,489.71 526.65,488.8C529.027,488.191 531.231,487.041 533.09,485.44C534.915,483.919 536.084,481.751 536.35,479.39C536.47,476.22 536.58,472.82 534.84,470.01C532.02,465.25 526.47,462.9 521.18,462.2C515,461.43 508.28,462.21 503,465.84Z" style="fill:white;fill-rule:nonzero;"/>
            </g>
            <g transform="matrix(1.75537,0,0,1.75537,-834.498784,-827.254617)">
                <path d="M462.86,443C464.048,442.223 465.277,441.508 466.54,440.86L466.54,540.96C463.22,542.96 459.93,544.96 456.64,546.96C452.71,549.32 448.8,551.72 444.85,554.04L444.85,453.83C450.9,450.25 456.85,446.58 462.86,443Z" style="fill:white;fill-rule:nonzero;"/>
            </g>
            <g transform="matrix(1.75537,0,0,1.75537,-828.498784,-827.254617)">
                <path d="M569.23,463L579.09,463C579.16,503.06 579.09,543.13 579.09,583.19L463.99,583.19C460.061,583.208 456.789,580.047 456.67,576.12L456.67,546.89C459.96,544.89 463.25,542.89 466.57,540.89C500.757,540.823 534.947,540.823 569.14,540.89C569.32,535.53 569.14,530.16 569.22,524.8C569.227,504.227 569.23,483.627 569.23,463ZM486.74,550.77L486.74,571.77L491.24,571.77L491.24,557.82C492.55,562.46 493.66,567.15 494.98,571.82L499.86,571.82C501.05,567.34 502.24,562.82 503.34,558.35C503.49,562.83 503.34,567.35 503.41,571.8L508.41,571.8L508.41,550.8L502.02,550.8C500.53,556.41 499.07,562.04 497.55,567.64C496.11,562.07 494.78,556.47 493.31,550.9C491.18,550.65 488.94,550.86 486.74,550.79L486.74,550.77ZM517.15,550.77C515.117,557.77 513.117,564.77 511.15,571.77L516.37,571.77C516.74,570.24 517.14,568.77 517.52,567.2L523.84,567.2C524.28,568.73 524.71,570.25 525.12,571.79L530.49,571.79C528.34,564.79 526.28,557.79 524.12,550.79L517.15,550.77ZM532.66,550.77C534.53,553.98 536.48,557.14 538.37,560.33C538.71,560.72 538.28,561.13 538.12,561.48C536.04,564.9 534.02,568.36 531.95,571.78C533.89,571.78 535.84,571.83 537.78,571.78C539.05,569.14 540.46,566.58 541.78,563.97C543.31,566.5 544.5,569.22 545.9,571.82L551.79,571.82C549.75,568.247 547.7,564.677 545.64,561.11C545.52,560.78 545.06,560.41 545.3,560.05C547.22,556.95 549.2,553.9 551.12,550.8L545.68,550.8C544.33,552.99 543.21,555.31 541.95,557.56C540.7,555.33 539.61,553.02 538.32,550.82C536.43,550.8 534.55,550.78 532.66,550.8L532.66,550.77Z" style="fill:white;fill-rule:nonzero;"/>
            </g>
            <g transform="matrix(1.75537,0,0,1.75537,-828.498784,-827.254617)">
                <path d="M518.51,563.36C519.16,560.36 519.93,557.36 520.61,554.28C521.38,557.28 522.1,560.28 522.82,563.36C521.38,563.3 519.94,563.3 518.51,563.36Z" style="fill:white;fill-rule:nonzero;"/>
            </g>
        </g>
    </g>
</svg>
