<?xml version="1.0" encoding="UTF-8" standalone="no"?>
<!DOCTYPE svg PUBLIC "-//W3C//DTD SVG 1.1//EN" "http://www.w3.org/Graphics/SVG/1.1/DTD/svg11.dtd">
<svg width="100%" height="100%" viewBox="0 0 250 250" version="1.1" xmlns="http://www.w3.org/2000/svg" xmlns:xlink="http://www.w3.org/1999/xlink" xml:space="preserve" xmlns:serif="http://www.serif.com/" style="fill-rule:evenodd;clip-rule:evenodd;stroke-linejoin:round;stroke-miterlimit:2;">
    <g id="Artboard1" transform="matrix(1,0,0,1,57.88,53.76)">
        <rect x="-57.88" y="-53.76" width="250" height="250" style="fill:none;"/>
        <clipPath id="_clip1">
            <rect x="-57.88" y="-53.76" width="250" height="250"/>
        </clipPath>
        <g clip-path="url(#_clip1)">
            <g transform="matrix(1.75537,0,0,1.75537,-834.498784,-827.254617)">
                <path d="M462.86,443C464.048,442.223 465.277,441.508 466.54,440.86L466.54,540.96C463.22,542.96 459.93,544.96 456.64,546.96C452.71,549.32 448.8,551.72 444.85,554.04L444.85,453.83C450.9,450.25 456.85,446.58 462.86,443Z" style="fill:white;fill-rule:nonzero;"/>
            </g>
            <g transform="matrix(1.131204,0,0,1.167898,-51.865899,-54.272982)">
                <path d="M34.747,0.799C85.343,0.75 131.777,0.799 182.373,0.775C188.413,0.477 194.12,5.734 194.096,11.822C194.107,20.093 194.083,28.37 194.096,36.64C194.09,77.902 194.071,107.348 194.034,148.61C139.555,148.64 89.232,148.634 34.747,148.616C34.704,95.401 34.85,54.008 34.747,0.799ZM80.188,118.172C87.632,118.239 95.082,118.184 102.533,118.203C102.539,107.568 102.527,96.933 102.533,86.299C105.663,86.281 108.793,86.348 111.922,86.244C115.264,92.619 118.321,99.145 121.56,105.575C124.003,111.153 127.606,116.981 133.708,118.999C139.067,120.566 145.108,120.572 150.249,118.226C150.237,113.791 150.224,109.348 150.255,104.912C148.425,104.681 146.445,104.712 144.84,103.667C143.455,102.846 142.555,101.461 141.808,100.081C138.55,93.902 135.269,87.734 131.988,81.571C137.025,78.891 141.802,75.13 144.19,69.8C146.596,64.763 145.904,59.032 145.959,53.624C145.97,47.681 143.577,41.731 139.122,37.739C132.844,32.051 124.155,29.93 115.872,29.644C103.992,29.608 92.105,29.656 80.224,29.62C80.164,59.135 80.231,88.657 80.188,118.172ZM102.223,44.976C106.815,45.147 111.472,44.581 116.013,45.341C119.79,46.07 123.209,48.872 123.819,52.67C124.225,55.805 123.988,58.984 124,62.137C123.937,65.996 121.252,69.612 117.444,70.809C112.537,72.359 107.292,71.484 102.229,71.715C102.217,62.806 102.223,53.891 102.223,44.976Z" style="fill:white;"/>
            </g>
            <g transform="matrix(1.75537,0,0,1.75537,-828.498784,-827.254617)">
                <path d="M569.23,463L579.09,463C579.16,503.06 579.09,543.13 579.09,583.19L463.99,583.19C460.061,583.208 456.789,580.047 456.67,576.12L456.67,546.89C459.96,544.89 463.25,542.89 466.57,540.89C500.757,540.823 534.947,540.823 569.14,540.89C569.32,535.53 569.14,530.16 569.22,524.8C569.227,504.227 569.23,483.627 569.23,463ZM488.097,550.719L488.097,572.684L492.927,572.684L492.927,564.101L497.757,564.101C498.967,564.101 499.838,564.368 500.372,564.901C500.905,565.434 501.253,566.275 501.418,567.424C501.541,568.305 501.633,569.228 501.694,570.192C501.756,571.156 501.92,571.987 502.187,572.684L507.016,572.684C506.791,572.376 506.622,572.002 506.509,571.561C506.396,571.12 506.314,570.654 506.263,570.161C506.211,569.669 506.176,569.187 506.155,568.716C506.135,568.244 506.114,567.834 506.093,567.485C506.052,566.931 505.976,566.378 505.863,565.824C505.75,565.27 505.571,564.763 505.324,564.301C505.078,563.84 504.76,563.44 504.371,563.101C503.981,562.763 503.489,562.512 502.894,562.348L502.894,562.286C504.125,561.794 505.012,561.076 505.555,560.133C506.099,559.189 506.37,558.072 506.37,556.78C506.37,555.939 506.222,555.154 505.924,554.426C505.627,553.698 505.196,553.057 504.632,552.504C504.068,551.95 503.391,551.514 502.602,551.196C501.812,550.878 500.925,550.719 499.941,550.719L488.097,550.719ZM519.967,572.684L527.258,550.719L522.275,550.719L517.322,566.162L517.26,566.162L512.369,550.719L507.416,550.719L514.522,572.684L519.967,572.684ZM536.281,554.78L536.281,572.684L541.111,572.684L541.111,554.78L547.694,554.78L547.694,550.719L529.698,550.719L529.698,554.78L536.281,554.78Z" style="fill:white;"/>
            </g>
            <g transform="matrix(1.75537,0,0,1.75537,-828.498784,-827.254617)">
                <path d="M492.927,560.656L492.927,554.472L498.218,554.472C499.326,554.472 500.156,554.713 500.71,555.195C501.264,555.677 501.541,556.452 501.541,557.518C501.541,558.625 501.264,559.425 500.71,559.917C500.156,560.41 499.326,560.656 498.218,560.656L492.927,560.656Z" style="fill:white;"/>
            </g>
        </g>
    </g>
</svg>
