<?xml version="1.0" encoding="UTF-8"?>
<svg id="Layer_1" data-name="Layer 1" xmlns="http://www.w3.org/2000/svg" viewBox="0 0 512 512">
  <defs>
    <style>
      .cls-1 {
        fill: #fff;
      }
    </style>
  </defs>
  <path class="cls-1" d="M256.52,111.18c-67.59,12.24-111.63,37.39-140.39,60.99-3.59,13.89-5.7,28.32-5.7,43.27,0,100.13,85.48,181.29,190.91,181.29,15.73,0,30.64-2.05,44.82-5.51,30.45-38.6,55.37-105.79,61.72-161.4,6.66-58.19,19.9-75.81,36.38-87.3,5.85-4.07,11.99-7.18,18.48-8.67-18.53-39.62-50.94-70.76-92.82-87.05.1.46.29.84.4,1.29,7.96,34.02-28.32,47.62-113.81,63.1ZM489.54,169.05c-.67-1.32-1.34-2.8-2.03-4.47-12.41-30.39-42.23-10.69-50.1,7.18-15.5,35.21-13.22,50.58-19.51,86.28-6.29,35.69-27.92,104.41-59.06,139.68-44.49,50.38-93.15,72.77-161.38,66.25-68.23-6.52-120.82-64.37-140.29-106.31-16.33-35.19-18.8-75.1.52-126.84,19.32-51.73,77.28-93.8,130.26-114.01,52.99-20.22,94.92-22.2,124.48-30.81,29.55-8.63,46.97-22.83,45.89-34.92-1.36-15-15.81-22.97-23.98-26.32-24.64-7.92-50.98-12.2-78.34-12.2C117.93,12.58,6,121.56,6,256s111.93,243.42,250,243.42,250-108.98,250-243.42c-.02-30.64-5.85-59.94-16.46-86.95Z"/>
</svg>