<?xml version="1.0" encoding="UTF-8"?>
<svg id="Layer_1" data-name="Layer 1" xmlns="http://www.w3.org/2000/svg" viewBox="0 0 512 512">
  <defs>
    <style>
      .cls-1 {
        fill: #fff;
      }
    </style>
  </defs>
  <path class="cls-1" d="M135.8,506c-.72,0-1.44-.1-2.14-.3-2.67-.77-4.73-2.92-5.39-5.6l-59.72-241.77c-.04-.12-.07-.24-.1-.36l-.14-.53v-.11S8.6,15.61,8.6,15.61c-.66-2.67.16-5.53,2.15-7.44,1.45-1.4,3.36-2.17,5.38-2.17.73,0,1.46.1,2.16.31l119.05,34.28c.62.02,1.22.12,1.81.29.6.17,1.18.42,1.71.73l234.85,67.61c.58.03,1.14.13,1.69.29.52.15,1.04.36,1.53.64l119.11,34.29c2.65.76,4.71,2.9,5.38,5.59.66,2.68-.16,5.53-2.15,7.45L141.17,503.83c-1.45,1.4-3.36,2.17-5.37,2.17ZM140.1,483.35l72.53-69.77-96.62-27.74,24.08,97.51ZM215.4,398.24l-23.27-94.31-70.05,67.52,93.32,26.79ZM230.84,396.07l69.85-67.19-93.04-26.81,23.19,94ZM110.02,361.55l69.97-67.44-93.26-26.87,23.3,94.32ZM304.97,313.99l-23.71-96.07-71.27,68.7,94.98,27.37ZM320.02,310.28l71.47-68.75-95.18-27.32,23.71,96.07ZM186.18,279.76l-23.73-96.19-71.43,68.77,95.16,27.42ZM200.73,274.01l70.05-67.52-93.32-26.79,23.27,94.31ZM80.28,241.15l71.37-68.71-95.09-27.3,23.71,96ZM394.19,226.17l-23.27-94.31-70.05,67.52,93.32,26.79ZM409.64,224.08l71.18-68.47-94.81-27.3,23.63,95.76ZM274.74,191.5l-23.14-93.76-69.71,67.11,92.85,26.65ZM289.94,188.38l70.08-67.55-93.38-26.88,23.3,94.43ZM155.98,157.55l-23.27-94.31-70.05,67.52,93.32,26.79ZM171.02,153.8l69.87-67.26-93.08-26.8,23.21,94.06ZM50.57,120.88L121.78,52.24,26.86,24.91l23.71,95.97Z"/>
</svg>