<?xml version="1.0" encoding="UTF-8"?>
<svg id="Layer_1" data-name="Layer 1" xmlns="http://www.w3.org/2000/svg" viewBox="0 0 512 512">
  <defs>
    <style>
      .cls-1 {
        fill: #fff;
      }
    </style>
  </defs>
  <path class="cls-1" d="M511.89,84.17v343.83c-7.36,41.62-40.05,73.78-82.59,77.83l-344.74.17C41.05,502.8,5.52,468.7.17,425.48L.11,88.62C4.21,44.58,40.43,9.34,84.57,6.17c117.48.94,235.26-1.69,352.57,1.33,36.41,5.27,70.66,39.96,74.76,76.67ZM161.07,287.07c37.76,3.45,84.59-.78,105.37-37.06,14.76-25.76,12.8-64.35-6.39-87.4-29.44-35.36-81.36-28.91-122.42-27.42-7.15.26-14.38-.27-21.53-.04v223.89h43.48c.11,0,1.5-1.39,1.5-1.5v-70.46ZM413.94,234.1v-38.48c0-3.09-19.32-6.89-22.63-7.35-30.98-4.31-74.87-1.39-87.8,32.85-12.85,34.02,8.51,55.5,37.11,68.81,9.55,4.44,47,13.85,34.36,29.65-8.2,10.24-42.2,4.35-53.78.76-7.38-2.28-14.18-6.21-21.21-9.28v41.48c22.47,11.35,56.33,13.92,80.58,7.62,47.44-12.32,59.44-67.47,15.04-93.25-13.27-7.7-33.47-12.43-44.59-20.38-6.41-4.59-11.08-13.37-3.02-18.88,11.32-7.75,39.87-1.56,52.45,2.43,4.44,1.41,8.32,4.84,13.47,4.02Z"/>
  <path class="cls-1" d="M161.07,248.09v-71.46c0-.11,1.39-1.5,1.5-1.5h30.98c23.91,0,38.5,18.68,36.52,41.51-1.52,17.59-20.6,31.45-37.52,31.45h-31.48Z"/>
</svg>