<?xml version="1.0" encoding="UTF-8"?>
<svg id="Layer_1" data-name="Layer 1" xmlns="http://www.w3.org/2000/svg" viewBox="0 0 512 512">
  <defs>
    <style>
      .cls-1 {
        fill: #fff;
      }
    </style>
  </defs>
  <path class="cls-1" d="M468.29,125.53c3.75,4.78,7.29,10.09,7.48,16.48v227.99c-.37,8.81-5.99,15.1-12.51,20.22l-199.06,114.16c-7.33,2.41-11.88,1.93-19-.91-7.76-3.09-50.6-27.86-55.86-32.96-18.82-18.26.37-51.17,26.89-42.08,6.62,2.27,37.87,22.93,40.14,22.58l166.71-96.28,2.35-3.49-.55-192.24-168.51-97.98-168.15,96.76-1.66,3.01v191.62s2.37,3.47,2.37,3.47c7.94,2.85,31.79,23.55,37.97,23.98,5.39.37,27.41-5.14,28.56-11.09l-.02-187.01c3.03-35.08,48.92-34.06,51.51,0-3.27,61.11,4.21,126.48,0,187.08-2.52,36.3-30.2,53.43-63.13,59.58-13.1,2.45-26.22,4.94-38.52-1.27-13.93-7.03-44-27.12-56.56-36.94-6.55-5.12-12.13-11.36-12.52-20.21v-227.99c.37-8.81,5.99-15.1,12.51-20.22C112.55,88.59,173.9,45.28,237.68,12.72c10.59-5.41,15.94-9.23,28.3-4.52l202.31,117.34Z"/>
  <path class="cls-1" d="M310.69,155.85c39.75-2.1,103.3,18.04,94.63,68.91-3.95,23.2-39.62,26.34-48.21,3.19-3.07-8.28,0-11.3-9.58-16.14-13.5-6.82-49.6-7.58-61.72,2.14-18,14.43,18.96,24.52,28.62,27.45,36.63,11.1,78.55,16.53,89.41,61.35,23.8,98.23-171.51,104.54-173.59,16.89-.68-28.43,38.41-36.71,48.96-11.47,3.35,8.02.69,12.39,9.88,17,13.77,6.9,45.98,7.1,59.26-.75,8.01-4.74,8.82-9.13,2.32-16.42-9.15-10.25-50.93-17.19-66.07-22.75-88.16-32.42-63.77-124.67,26.08-129.4Z"/>
</svg>