<svg xmlns="http://www.w3.org/2000/svg" fill="none" viewBox="0 0 15 15" id="Figma-Logo--Streamline-Logos" height="15" width="15">
  <desc>
    Figma Logo Streamline Icon: https://streamlinehq.com
  </desc>
  <path fill="#ffffff" fill-rule="evenodd" d="M5.46875 0.625H7.5v4.0625H5.46875a2.03125 2.03125 0 1 1 0 -4.0625ZM8.125 5V0.625h2.1875a2.1875 2.1875 0 1 1 0 4.375H8.125Zm4.0625 2.5a2.03125 2.03125 0 1 1 -4.0625 0 2.03125 2.03125 0 0 1 4.0625 0ZM7.5 5.46875H5.46875a2.03125 2.03125 0 0 0 0 4.0625H7.5v-4.0625Zm0 4.84375v2.03125a2.03125 2.03125 0 1 1 -2.03125 -2.03125H7.5Z" clip-rule="evenodd" stroke-width="0.625"></path>
</svg>