<?xml version="1.0" encoding="UTF-8" standalone="no"?><!DOCTYPE svg PUBLIC "-//W3C//DTD SVG 1.1//EN" "http://www.w3.org/Graphics/SVG/1.1/DTD/svg11.dtd"><svg width="100%" height="100%" viewBox="0 0 120 120" version="1.1" xmlns="http://www.w3.org/2000/svg" xmlns:xlink="http://www.w3.org/1999/xlink" xml:space="preserve" xmlns:serif="http://www.serif.com/" style="fill-rule:evenodd;clip-rule:evenodd;stroke-linejoin:round;stroke-miterlimit:2;"><rect id="Artboard1" x="0" y="0" width="120" height="120" style="fill:none;"/><clipPath id="_clip1"><rect id="Artboard11" serif:id="Artboard1" x="0" y="0" width="120" height="120"/></clipPath><g clip-path="url(#_clip1)"><g id="code.png"><path d="M74.213,9.674c2.379,2.034 1.832,2.624 -0.411,16.08c-13.654,81.923 -13.496,82.036 -14.285,83.241c-1.025,1.565 -1.359,2.019 -11.199,1.861c-6.432,-0.103 -4.346,-6.804 -3.993,-8.926c1.192,-7.153 14.845,-89.068 14.911,-89.414c0.851,-4.462 4.546,-3.776 10.706,-3.774c1.679,0 2.826,-0.141 4.271,0.932Z" style="fill:#fff;fill-opacity:1;"/><path d="M87.493,88.55c-7.589,-7.434 -8.119,-7.908 -7.236,-10.691c0.261,-0.822 0.277,-0.861 11.627,-12.212c5.503,-5.503 5.919,-5.705 5.528,-6.173c-0.028,-0.033 -11.523,-11.529 -12.525,-12.531c-2.644,-2.644 -7.303,-5.955 -3.414,-9.891c6.221,-6.296 7.22,-7.697 10.076,-6.813c1.255,0.388 1.223,0.541 20.719,20.038c5.796,5.796 8.224,7.343 6.898,11.393c-0.472,1.442 -0.647,1.396 -19.922,20.674c-6.78,6.782 -7.783,8.753 -11.752,6.205Z" style="fill:#fff;fill-opacity:1;"/><path d="M31.996,31.05c6.64,6.569 8.238,7.536 7.232,10.69c-0.267,0.838 -0.284,0.878 -16.536,17.13c-0.681,0.681 -1.049,0.826 -0.374,1.498c15.409,15.344 15.605,15.186 16.589,16.799c1.7,2.788 -0.813,5.301 -1.138,5.626c-5.169,5.17 -7.134,8.062 -10.534,6.278c-0.177,-0.093 -0.282,0.004 -25.545,-25.275c-2.652,-2.654 -1.751,-6.195 -0.239,-7.742c11.645,-11.916 22.579,-22.63 24.564,-24.575c2.927,-2.868 5.615,-0.662 5.979,-0.428Z" style="fill:#fff;fill-opacity:1;"/></g></g></svg>