<?xml version="1.0" encoding="UTF-8"?>
<svg id="Layer_1" data-name="Layer 1" xmlns="http://www.w3.org/2000/svg" viewBox="0 0 512 512">
  <defs>
    <style>
      .cls-1, .cls-2 {
        fill: #fff;
      }

      .cls-2 {
        fill-rule: evenodd;
      }
    </style>
  </defs>
  <path class="cls-1" d="M259.54,219.44c.63-.6.99-1.43,1.02-2.3h.01c.42-16.58-3.41-29.53-11.4-38.49-8.43-9.46-21.33-14.32-38.37-14.44-17,0-31.65,5.31-42.36,15.36-10.13,9.51-15.84,22.67-16.1,37.07-.43,24.82,13.59,40.6,29.22,55.88,12.11,12.45,14.33,18.61,14.2,25.64-.15,8.13-4.01,12.79-10.62,12.79-2.72,0-4.91-.85-6.48-2.51-2.45-2.57-3.53-7.22-3.13-13.43.07-.42.04-.84-.07-1.25-.05-.17-.11-.34-.19-.5-.11-.22-.24-.42-.39-.6-.31-.39-.7-.71-1.15-.93-.45-.22-.94-.34-1.43-.35h-35.74c-.87,0-1.71.33-2.34.94-.63.6-.99,1.43-1.02,2.3-.84,17.23,3.18,30.59,11.93,39.69,8.63,8.96,21.6,13.5,38.59,13.5,33.26,0,55.11-20.78,55.68-52.92.35-19.88-6.9-34.91-25-51.89-13.75-13.33-18.57-21.09-18.42-29.63.13-7.66,4.74-12.04,11.87-12.04s10.62,4.91,10.62,14.99c0,2.23,1.89,4.07,4.16,4.07h34.55c.87,0,1.71-.34,2.33-.94Z"/>
  <path class="cls-1" d="M151.72,250.03v-.08h-.02c.03-1.66-1.13-3.19-2.77-3.4-.14-.03-.29-.03-.44-.03h-63.22v.07c-1.63.2-2.96,1.3-3.29,2.77l-6.59,28.6c-.09.39-.08.79,0,1.17.09.38.27.74.52,1.05.33.39.74.7,1.2.91.46.21.97.32,1.48.32h9.63c.56,0,1.28.08,1.55.42.25.33.23,1.07-.03,2.03-1.87,6.87-6.33,14.41-11.86,18.76-5.54,4.35-14.68,6.96-21.09,3.03-7.23-4.44-8.45-15.14-8.75-22.75-.63-16.35,2.57-32.77,8.86-47.89,4.5-10.82,12.98-30.34,27.36-30.34,8.15,0,12.25,6.73,12.56,20.56,0,.31.07.61.18.9.13.32.32.61.56.85.46.47,1.09.74,1.75.76h37.52c.88,0,1.72-.34,2.35-.96s.99-1.45,1.01-2.32c-.02-20-4.59-35.27-13.59-45.42-8.51-9.59-20.73-14.39-36.31-14.26-51.2,0-77.79,51.73-83.42,103-3.12,27.31,2.03,49.97,14.5,63.82,9.44,10.48,20.56,15.78,37.06,15.78,18.37,0,32.11-4.08,43.26-12.82,13.11-10.26,23.04-27.36,30.37-52.23.08-.28.25-.52.48-.69.23-.17.51-.27.79-.27h7.95c1.86,0,3.48-1.18,3.83-2.8l6.58-28.56Z"/>
  <path class="cls-2" d="M367.66,341.75l.23-170.95c0-.43-.07-.85-.23-1.25-.07-.18-.16-.35-.26-.51-.12-.2-.27-.38-.44-.55-.14-.14-.29-.27-.45-.38-.19-.13-.39-.24-.6-.33-.4-.16-.82-.25-1.25-.24h-53.47c-1.8,0-2.59,1.55-3.1,2.57l-77.43,170.59v.03l-.03.04c-.86,2.1.77,4.34,3.04,4.34h37.38c2.02,0,3.36-.61,4.01-1.89l7.42-17.84c.91-2.38,1.08-2.6,3.68-2.6h35.72c2.48,0,2.53.05,2.5,2.48l-.8,16.59c0,.18,0,.36.04.54.04.24.1.48.19.7.16.4.4.76.7,1.06.3.3.66.54,1.05.71.4.16.82.25,1.25.25h37.77c.47,0,.93-.09,1.36-.28.43-.19.8-.48,1.11-.83.26-.31.46-.67.57-1.06.11-.39.13-.8.07-1.2ZM301.5,284.68c-.28,0-.56,0-.84-.03-.13-.01-.26-.05-.37-.12-.11-.07-.21-.16-.29-.26-.04-.05-.07-.11-.09-.16-.03-.06-.05-.13-.06-.2-.01-.07-.02-.15-.01-.22,0-.06.01-.12.03-.17.04-.14.09-.31.16-.51.05-.15.1-.31.17-.48l26.78-66.27c.24-.65.52-1.29.83-1.92.43-.89.96-.95,1.13-.29.14.55-3.07,68.04-3.07,68.04-.25,2.53-.37,2.63-2.86,2.84l-21.47-.25h-.05.02Z"/>
  <path class="cls-2" d="M415.45,167.54h28.39l.03-.02c41.87,0,62.78,18.98,62.12,56.43-.77,43.89-27.52,76.14-67.78,83.57-5.72,1.05-11.54,1.46-17.36,1.43l-19.44-.09c-.32,0-.63.12-.85.34-.23.22-.36.53-.37.84,0,.22.05.43.16.61.11.18.27.33.47.43l2.37,1.23,6.12,3.19,6.15,3.2c.64.33,1.27.66,1.91.99,1.36.71,1.88,1.89,1.58,3.4l-4.31,19.44c-.35,1.62-1.66,2.56-3.57,2.56h-35.48c-.51,0-1.01-.11-1.47-.32-.46-.21-.87-.52-1.2-.91-.25-.3-.43-.66-.53-1.05-.09-.39-.1-.79-.01-1.17l39.51-171.54c.39-1.79,2.07-2.58,3.57-2.58ZM433.42,269.62h.76c18.63-.75,28.79-22.77,29.17-44.14.21-12.34-4.29-19.57-12.37-19.82h-25.95c-.31,0-.62.12-.84.34-.23.22-.36.52-.36.83,0,.22.05.43.16.61.11.19.27.34.46.44,0,0,16.41,8.65,17.54,9.28.88.48.89,1.3.61,2.73,0,.03-2.52,11.07-5.16,22.72-2.95,12.99-6.07,26.74-6.06,26.76.05.06.35.25,2.06.25Z"/>
</svg>