<?xml version="1.0" encoding="UTF-8" standalone="no"?><!DOCTYPE svg PUBLIC "-//W3C//DTD SVG 1.1//EN" "http://www.w3.org/Graphics/SVG/1.1/DTD/svg11.dtd"><svg width="100%" height="100%" viewBox="0 0 250 250" version="1.1" xmlns="http://www.w3.org/2000/svg" xmlns:xlink="http://www.w3.org/1999/xlink" xml:space="preserve" xmlns:serif="http://www.serif.com/" style="fill-rule:evenodd;clip-rule:evenodd;stroke-linejoin:round;stroke-miterlimit:2;"><rect id="Artboard2" x="0" y="0" width="250" height="250" style="fill:none;"/><g id="Artboard21" serif:id="Artboard2"><path d="M3.129,33.461c12.52,-7.417 24.883,-15.11 37.452,-22.427c0.12,62.143 0.007,124.292 0.057,186.442c-6.147,3.734 -12.335,7.396 -18.467,11.149c-7.41,4.387 -14.713,8.965 -22.171,13.266l0,-186.017c0.844,-1.036 1.994,-1.739 3.129,-2.413Z" style="fill:#fff;fill-rule:nonzero;"/><path d="M98.813,156.113c8.694,0.078 17.395,0.014 26.097,0.036c0.007,-12.421 -0.007,-24.841 0,-37.261c3.656,-0.021 7.311,0.057 10.965,-0.064c3.903,7.445 7.473,15.067 11.256,22.577c2.853,6.515 7.061,13.321 14.188,15.678c6.259,1.83 13.314,1.837 19.318,-0.903c-0.014,-5.18 -0.029,-10.369 0.007,-15.549c-2.137,-0.27 -4.45,-0.234 -6.324,-1.454c-1.618,-0.959 -2.669,-2.576 -3.541,-4.188c-3.805,-7.216 -7.637,-14.42 -11.469,-21.618c5.883,-3.13 11.462,-7.522 14.251,-13.747c2.81,-5.883 2.002,-12.576 2.066,-18.892c0.013,-6.941 -2.782,-13.89 -7.985,-18.552c-7.332,-6.643 -17.48,-9.12 -27.154,-9.454c-13.875,-0.042 -27.757,0.014 -41.633,-0.028c-0.07,34.471 0.008,68.949 -0.042,103.42Zm-58.233,-145.08c59.091,-0.057 118.183,0 177.274,-0.028c7.054,-0.348 13.719,5.792 13.691,12.902c0.013,9.66 -0.015,19.326 0,28.985c-0.007,48.19 0.028,96.387 -0.015,144.576c-63.626,0.035 -127.26,0.028 -190.893,0.007c-0.05,-62.15 0.063,-124.299 -0.057,-186.442Z" style="fill:#fff;fill-rule:nonzero;"/><path d="M124.91,70.628c5.195,0.2 10.462,-0.461 15.6,0.426c4.272,0.851 8.14,4.124 8.829,8.56c0.46,3.661 0.192,7.374 0.206,11.056c-0.071,4.507 -3.109,8.73 -7.416,10.128c-5.551,1.81 -11.484,0.788 -17.211,1.058c-0.014,-10.405 -0.007,-20.817 -0.007,-31.228Z" style="fill:#fff;fill-rule:nonzero;"/><path d="M231.546,52.892c6.152,-0.007 12.299,-0.007 18.445,0c0,62.036 0.028,124.08 -0.014,186.116l-215.308,-0c-4.166,-0.59 -8.304,-2.691 -10.496,-6.401c-1.505,-2.293 -2.158,-5.046 -2.017,-7.778c0.036,-5.402 0.029,-10.803 0.015,-16.205c6.131,-3.752 12.32,-7.415 18.467,-11.149c63.633,0.021 127.267,0.028 190.893,-0.007c0.043,-48.19 0.008,-96.387 0.015,-144.576Z" style="fill:#fff;fill-rule:nonzero;"/></g></svg>