<svg xmlns="http://www.w3.org/2000/svg" fill="none" viewBox="0 0 15 15" id="Unreal-Engine-Logo--Streamline-Logos" height="15" width="15">
  <desc>
    Unreal Engine Logo Streamline Icon: https://streamlinehq.com
  </desc>
  <path fill="#ffffff" fill-rule="evenodd" d="M7.5 14.375c3.796875 0 6.875 -3.078125 6.875 -6.875S11.296875 0.625 7.5 0.625 0.625 3.703125 0.625 7.5s3.078125 6.875 6.875 6.875Zm-5.27625 -5.885c0.44875 -1.4581250000000001 1.5812499999999998 -4.2875000000000005 4.543749999999999 -5.365v6.393750000000001c0.111875 0.11249999999999999 0.403125 0.3375 0.6725000000000001 0.3375 0.41875 0 1.009375 -0.3375 1.009375 -0.3375V5.481249999999999c0.34687500000000004 -0.725 1.9518750000000002 -2.02 3.0293750000000004 -2.02 -0.6525000000000001 0.7525 -0.9575 1.1937499999999999 -1.34625 2.019375v4.03875c0.44875 0.11249999999999999 1.34625 0 2.01875 -0.673125 -0.54375 1.2375 -2.01875 2.6925 -2.6918750000000005 2.6925l-1.01 -0.673125L7.4399999999999995 11.875c-1.009375 0 -2.6925 -0.673125 -3.3656249999999996 -1.6825h1.01v-3.85625c-1.225 -0.1675 -1.785625 0.608125 -2.8606249999999998 2.15375Z" clip-rule="evenodd" stroke-width="0.625"></path>
</svg>