<?xml version="1.0" encoding="UTF-8"?>
<svg id="Layer_1" data-name="Layer 1" xmlns="http://www.w3.org/2000/svg" viewBox="0 0 512 512">
  <defs>
    <style>
      .cls-1 {
        fill: #fff;
      }
    </style>
  </defs>
  <path class="cls-1" d="M261.53,506h-11.74l-24.82-2.08c-106.19-12.59-195.69-95.02-215.51-200.23l-4.22-27.57c.67-13.45-.91-27.74,0-41.08C18.79,35.47,262.07-65.19,416.1,63.35c178.48,148.94,77.04,432.39-154.57,442.65ZM254.51,84.62c-44.36.77-78.52,44.87-63.88,87.79,4.94,14.47,30.31,54.58,42.21,63.44,16.41,12.21,37.63,9.8,51.16-5.24,13.73-15.26,37.87-51.32,40.02-71.5,4.25-40.04-29.85-75.17-69.51-74.49ZM137.09,229.45c-59.33,5.62-83.36,81.34-37.96,120.53,40.03,34.56,86.46,7.24,119.81-22.05,39.73-34.89-3.86-66.59-34.04-84.27-14.46-8.47-30.63-15.85-47.81-14.22ZM364.04,229.46c-20.71,1.8-69.09,30.66-80.44,47.71-19.15,28.78,4.32,48.58,25.96,63.9,32.41,22.94,67.02,39.07,102.09,9.37,49.99-42.33,16.01-126.52-47.61-120.98Z"/>
</svg>