<?xml version="1.0" encoding="UTF-8"?>
<svg id="Layer_1" data-name="Layer 1" xmlns="http://www.w3.org/2000/svg" viewBox="0 0 512 512">
  <defs>
    <style>
      .cls-1 {
        fill: #fff;
      }
    </style>
  </defs>
  <path class="cls-1" d="M192.45,165.77s-33.89,9.58-64.34,41.9c-30.46,32.32-34.32,55.34-34.32,72.5,6.72-11.44,48.19-74.5,57.91-44.47v71.78s-.57,9.72-15.44,5.86c4.43,8.29,27.31,28.74,68.63,32.89,9.44-9.44,21.73-23.02,21.73-23.02l20.59,17.44s37.03-24.02,51.62-58.91c-13.58,8.87-30.03,29.46-38.61,15.01v-87.37s22.02-33.03,25.45-34.6c-8.72,1.57-39.46,11.73-55.62,32.6-4.58-5-17.3-5.15-17.3-5.15,0,0,10.01,8.29,10.15,15.87s0,70.78,0,78.07c-6.86,7.01-14.16,10.72-18.87,10.72-11.01,0-14.16-3.86-17.16-7.72v-91.8s-5.43,4.58-9.72-2.86-4.43-21.88,15.3-38.75Z"/>
  <g id="Icons">
    <path class="cls-1" d="M110.1,457.83c-57.4,0-104.1-46.7-104.1-104.1v-195.45c0-57.4,46.7-104.1,104.1-104.1h187.72c26.23,0,51.24,9.87,70.43,27.79,19.04,17.78,30.67,41.86,32.74,67.78v.14s.62,26.69.62,26.69l36.24-36.51c.62-.62,1.35-1.23,2.16-1.91l.11-.09.11-.08c7.22-5.36,15.72-8.19,24.58-8.19,5,0,9.9.9,14.59,2.68l.22.08,3.62,1.79c14.04,6.95,22.76,21.08,22.76,36.87v161.31c0,15.72-8.72,29.85-22.76,36.87-5.75,2.87-12.15,4.39-18.5,4.39-8.95,0-17.51-2.85-24.75-8.25-.8-.54-1.59-1.19-2.26-1.86l-36.12-36.12-.61,33.75v.14c-1.95,26.12-13.53,50.38-32.62,68.33-19.23,18.08-44.33,28.04-70.7,28.04H110.1ZM297.69,416.4c34.56,0,62.68-28.12,62.68-62.67v-195.45c0-34.56-28.12-62.68-62.68-62.68H110.1c-34.56,0-62.68,28.12-62.68,62.68v195.31c0,34.56,28.12,62.68,62.68,62.68h187.55l-.13.13h.18ZM465.24,332.23l-.54-160.19-62.77,63.31v33.7l63.31,63.18Z"/>
  </g>
</svg>