<svg xmlns="http://www.w3.org/2000/svg" viewBox="0 0 639.7 400">
  <title>icon_behance</title>
  <g id="Layer_2" data-name="Layer 2">
    <g id="Layer_1-2" data-name="Layer 1">
      <g>
        <path d="M0,389.9V0H188.7C210,.1,231,2.4,250.8,10.3c30.3,12,50.7,33.1,57.9,65.8a118.2,118.2,0,0,1,.2,49.9c-4.8,23.5-18.8,40.1-39.5,51.4l-5.7,3.2,4.3,2.3c15.3,6.3,28.3,15.6,38.3,29.1A88.1,88.1,0,0,1,322,249.6c4.3,24.2,2.5,48-7.7,70.5-15,32.9-39.9,54.8-75.5,63.6a208.2,208.2,0,0,1-49,6.2c-62.1.3-124.2.2-186.2.2Zm78.6-67.4h5.7c28.1,0,56.3.1,84.5-.1a220.1,220.1,0,0,0,25.7-1.3c16.7-2,31.2-8.3,39.6-24,6.6-12.4,7.7-25.9,5.8-39.7-2.2-16-11.1-26.9-25.9-32.9a77.3,77.3,0,0,0-28.8-5.6c-33.9-.3-67.8-.2-101.6-.5-4.1,0-5.1,1.3-5.1,5.2.2,31.2.1,62.5.1,93.7Zm0-169,3.9.3h92.8a93.3,93.3,0,0,0,31.1-4.9c12.6-4.4,22.2-11.9,24.5-25.7a81.8,81.8,0,0,0,1.1-21.5c-1.5-15.5-10.9-25.4-26-29.3s-28.4-4.6-42.9-4.7c-26.5-.1-53,.1-79.5-.1-4,0-5.1,1.2-5.1,5.2.2,25.4.1,50.8.1,76.1Z" fill="#fff"/>
        <path d="M635.4,306.4c-.8,10-4.5,18.5-9.2,26.5-15.4,26-36.9,45.2-65.3,56.2C540,397.3,518,400.2,495.6,400c-36.2-.4-69-11-98-33-20.2-15.3-33.2-35.5-40.2-59.7-8.5-29.2-9.4-59-5.7-89.1,2.5-20,7.9-39.1,17.8-56.8,13.5-24.3,33.2-41.9,58.1-53.5,29.6-13.8,60.8-16.1,92.9-12a146.7,146.7,0,0,1,51.6,16.2c17.7,9.5,31.5,23.2,42.6,39.6,15,22.1,22.5,46.9,24,73.4.7,12.9.7,25.8,1,38.7a24.4,24.4,0,0,1-.2,3.5H433.2c-7.5,0-6.4,0-5.9,6.2,1.6,19,7.3,36.3,22.5,48.9s33.4,16.9,52.9,16.3c16-.6,30.8-4.8,42.5-16.3,4.1-4,7-9.2,10.7-13.7,1.1-1.3,3-2.7,4.5-2.7,24.1-.2,48.1-.1,72.1-.1A25.3,25.3,0,0,1,635.4,306.4Zm-206.5-89H556.1c2.3,0,4.1,0,3.8-3.2-1.6-13.4-5-26-14-36.3-13.2-15.1-30.5-21.3-50.1-21.5S456,161.6,443,179.9C435.2,191,430.8,203.3,428.9,217.4Z" fill="#fff"/>
        <path d="M493.2,66.8c-26.4,0-52.7-.1-79.1.1-4.1,0-5.6-.9-5.5-5.3.3-12.9.2-25.8,0-38.8,0-3.7,1.3-4.6,4.8-4.6q80.3.2,160.4,0c3.8,0,4.7,1.3,4.6,4.8-.2,13.1-.2,26.1,0,39.2.1,3.8-1.2,4.7-4.8,4.6Z" fill="#fff"/>
      </g>
    </g>
  </g>
</svg>
