<svg xmlns="http://www.w3.org/2000/svg" viewBox="0 0 499.6 500">
  <title>icon_ig</title>
  <g id="Layer_2" data-name="Layer 2">
    <g id="Layer_1-2" data-name="Layer 1">
      <g>
        <path d="M0,250.3c.5-31.1.9-62.2,1.5-93.4.5-19.7,2.1-39.4,8-58.5C22.3,56.5,48.9,27.4,90.2,12c16.4-6.1,33.4-9,50.8-9.9C200.6-1.2,260.1.4,319.7.5a494.1,494.1,0,0,1,51.6,2.8c37.3,3.7,69.8,17.6,94.6,46.8,13.1,15.4,21.6,33.1,26.8,52.6s6.7,38.4,6.8,57.9q.2,87.5-.1,174.8c0,21.8-1.4,43.6-7.6,64.7-12.6,43.1-39.7,72.9-82,88.5-19.9,7.4-40.6,10-61.6,10.3q-75,1.1-150,1.1-30.3,0-60.5-2c-25-1.6-49.1-7.4-70.8-20.6C39,460.4,20.2,436.1,10.3,405,4.1,385.6,2,365.6,1.6,345.3.9,313.7.5,282,0,250.3ZM251.3,455.7c31.2-.6,63.2-1,95.2-1.8,14-.3,27.9-1.5,41.5-5.4,35.2-10.3,56-34,62.6-69.6a257.4,257.4,0,0,0,3.8-42.1c.7-41.8,1.1-83.7.9-125.6-.2-25.9-1.4-51.8-2.8-77.7a95.3,95.3,0,0,0-11-39.2c-13.5-25.4-35.4-39.5-63.2-44a331.6,331.6,0,0,0-46.6-3.9c-60.9-1.1-121.7-1.6-182.6.7-17.3.7-34.4,3.1-50.3,10.5-27.6,12.7-42.7,35-48.5,64.3-3,15.4-3.7,31-3.8,46.6q-.3,81.9,0,163.7c.1,17.2.8,34.5,4.9,51.4,7.8,32,26.7,53.8,58.5,63.9,15.1,4.8,30.8,6.2,46.5,6.5C187.8,454.7,219.1,455.1,251.3,455.7Z" fill="#fff"/>
        <path d="M122,250c.2-71,58.1-128.6,128.8-128.2s128.3,57.9,128.1,128.6S320.9,379,250.1,378.7,121.8,320.7,122,250Zm45.3.2A83.2,83.2,0,1,0,250.4,167,82.9,82.9,0,0,0,167.3,250.2Z" fill="#fff"/>
        <path d="M413.8,116.8a29.9,29.9,0,1,1-29.7-30A29.7,29.7,0,0,1,413.8,116.8Z" fill="#fff"/>
      </g>
    </g>
  </g>
</svg>
