<?xml version="1.0" encoding="UTF-8"?>
<svg id="Layer_1" data-name="Layer 1" xmlns="http://www.w3.org/2000/svg" viewBox="0 0 500 500">
  <defs>
    <style>
      .cls-1 {
        fill: #fff;
        stroke-width: 0px;
      }
    </style>
  </defs>
  <path class="cls-1" d="m0,281.14c0-20.83,0-41.67,0-62.5.21-1.6.52-3.2.61-4.81,1.36-25.02,4.18-49.89,9.08-74.45,7.38-36.98,37.06-65.53,74.36-71.57,29.05-4.7,58.34-7.24,87.73-8.8,34.59-1.83,69.17-2.78,103.83-2.05,45.22.96,90.26,3.69,135.07,9.95,37.21,5.2,62.67,25.37,76.07,60.32,6.45,16.84,7.41,34.91,9.6,52.62,1.59,12.88,2.47,25.85,3.66,38.78v62.5c-.2,1.12-.52,2.23-.57,3.35-1.07,23.57-4.36,46.89-7.89,70.19-5.8,38.3-35.45,70.25-72.69,76.86-28.82,5.11-58,7.41-87.21,9.14-19.15,1.13-38.33,1.55-57.5,2.19-32.22,1.07-64.39-.1-96.54-1.63-29.37-1.4-58.65-4.22-87.8-8.3-37.39-5.23-63.07-25.25-76.56-60.4-6.4-16.68-7.36-34.58-9.56-52.13-1.63-13.04-2.49-26.17-3.69-39.26ZM248.05,89.08c-10.01.26-22.21.22-34.41.53-40.03,1.03-79.85,4.19-119.57,9.22-27.2,3.44-47.64,21.54-52.91,48.61-6.03,31.03-8.84,62.46-9.44,94.03-.69,36.35,2.78,72.43,8.79,108.27,4.53,26.99,23.33,46.24,49.99,50.4,45.07,7.04,90.54,9.61,136.08,10.41,60.07,1.05,119.98-1.69,179.6-9.62,27.02-3.59,47.4-21.65,52.6-48.36,6.07-31.19,8.88-62.79,9.48-94.52.68-36.34-2.73-72.44-8.85-108.26-4.64-27.13-23.03-45.57-50.15-50.27-18.27-3.16-36.74-4.91-55.2-6.36-34.55-2.72-69.16-4.25-106.01-4.08Z"/>
  <path class="cls-1" d="m182.66,249.87c0-21.96,0-43.92,0-65.88,0-2.11-.02-4.24.16-6.34,1.28-14.71,13.44-21.05,26.17-13.58,11.92,7,23.76,14.14,35.63,21.23,27.65,16.51,55.27,33.06,82.96,49.5,6.23,3.7,10.02,8.58,9.7,16.16-.29,7.03-4.49,11.15-10.08,14.47-31.74,18.86-63.45,37.77-95.17,56.65-7.69,4.58-15.34,9.2-23.08,13.69-12.79,7.42-25.26,1.1-26.03-13.69-.66-12.65-.24-25.37-.27-38.05-.02-11.39,0-22.77,0-34.16Zm32.53-.28c0,13.02-.01,26.04,0,39.06,0,5.55.12,5.64,4.86,2.83,21.54-12.8,43.07-25.63,64.58-38.47,4.6-2.75,4.61-3.25.05-5.99-21.63-12.97-43.28-25.91-64.94-38.82-4.41-2.63-4.54-2.53-4.55,2.83-.02,12.86,0,25.71,0,38.57Z"/>
</svg>