<?xml version="1.0" encoding="UTF-8"?>
<svg id="Layer_2" data-name="Layer 2" xmlns="http://www.w3.org/2000/svg" viewBox="0 0 302.05 302.05">
  <defs>
    <style>
      .cls-1 {
        opacity: .5;
      }

      .cls-1, .cls-2 {
        fill: #fff;
        stroke-width: 0px;
      }
    </style>
  </defs>
  <g id="Layer_1-2" data-name="Layer 1">
    <g>
      <path class="cls-2" d="m215.64,140.77c-.44-.23-.85-.49-1.28-.73-23.32-13.39-46.64-26.78-69.96-40.16-7.32-4.2-14.58-8.5-22-12.53-5.36-2.91-11.78-.74-13.98,4.42-.9,2.11-1.13,4.34-1.13,6.62.02,17.37.01,34.75.01,52.12,0,17.77-.06,35.53.02,53.3.04,9.44,8.3,14.37,16.26,9.78,30.7-17.69,61.31-35.52,92.1-53.03,7.2-4.1,10.03-14.56-.06-19.79Z"/>
      <path class="cls-1" d="m151.03,0C67.62,0,0,67.62,0,151.03s67.62,151.03,151.03,151.03,151.03-67.62,151.03-151.03S234.44,0,151.03,0Zm64.67,160.56c-30.79,17.51-61.41,35.35-92.1,53.03-7.96,4.59-16.22-.34-16.26-9.78-.08-17.77-.02-35.53-.02-53.3,0-17.37,0-34.75-.01-52.12,0-2.28.23-4.52,1.13-6.62,2.2-5.16,8.62-7.33,13.98-4.42,7.42,4.03,14.68,8.33,22,12.53,23.32,13.38,46.64,26.77,69.96,40.16.43.24.84.5,1.28.73,10.08,5.23,7.26,15.69.06,19.79Z"/>
    </g>
  </g>
</svg>