<?xml version="1.0" encoding="UTF-8"?>
<svg id="Layer_1" data-name="Layer 1" xmlns="http://www.w3.org/2000/svg" viewBox="0 0 500 500">
  <defs>
    <style>
      .cls-1 {
        fill: #fff;
        stroke-width: 0px;
      }
    </style>
  </defs>
  <path class="cls-1" d="m501,212.92v74.22c-.22,1.77-.57,3.53-.64,5.3-.96,23.25-2.82,46.4-6.86,69.36-5.63,31.97-24.71,51.26-56.71,56.66-19.6,3.3-39.44,4.38-59.24,5.42-35.26,1.86-70.57,2.52-105.87,2.92-44.26.51-88.51-.56-132.73-2.52-24.38-1.08-48.7-2.55-72.9-5.96-29.06-4.09-49.75-22.48-56.24-50.81-4.23-18.44-5.91-37.24-7.15-56.07-.53-8.1-1.11-16.2-1.67-24.3,0-23.76,0-47.53,0-71.29.22-2.25.55-4.5.66-6.76,1.04-23.08,2.73-46.1,6.99-68.84,5.86-31.25,24.84-50.61,55.25-56.02,8.63-1.54,17.39-2.51,26.13-3.25,37.62-3.18,75.34-4.37,113.06-4.85,49.94-.63,99.89-.64,149.82,1.6,26.81,1.2,53.58,2.49,80.22,5.97,32.38,4.23,52.34,21.96,59.6,53.71,3.89,17.01,5.44,34.34,6.63,51.71.54,7.94,1.11,15.87,1.66,23.81Zm-299.47,38.24c0,22.77-.01,45.54,0,68.31,0,5.39.46,5.65,5.03,3.02,39.61-22.79,79.21-45.59,118.8-68.4,4.62-2.66,4.59-3.06-.14-5.78-39.59-22.81-79.19-45.62-118.79-68.42-4.69-2.7-4.9-2.58-4.91,2.97-.02,22.77,0,45.54,0,68.31Z"/>
</svg>