<svg xmlns="http://www.w3.org/2000/svg" viewBox="0 0 281.5 87.2">
  <title>logo_stable2</title>
  <g id="Layer_2" data-name="Layer 2">
    <g id="Layer_2-2" data-name="Layer 2">
      <g>
        <g>
          <polygon points="40.9 83.7 6 63.5 40.7 43.5 75.6 63.7 40.9 83.7" fill="#fff"/>
          <polygon points="40.9 63.6 6 43.4 40.7 23.4 75.6 43.5 40.9 63.6" fill="#fff"/>
          <polygon points="40.9 63.6 40.9 83.7 75.6 63.7 75.6 43.5 40.9 63.6" fill="#fff"/>
          <polygon points="6 23.5 6 43.4 40.7 23.4 40.7 3.5 6 23.5" fill="#fff"/>
          <polygon points="40.9 43.6 6 23.5 40.7 3.5 75.6 23.6 40.9 43.6" fill="#fff"/>
          <polygon points="75.6 23.6 40.7 3.5 6 23.5 6 43.4 23.3 53.4 6 63.5 40.9 83.7 75.6 63.7 75.6 43.5 58.3 33.6 75.6 23.6" fill="none" stroke="#000" stroke-miterlimit="10" stroke-width="6"/>
          <polyline points="6 23.5 40.9 43.6 58.3 33.6" fill="none" stroke="#000" stroke-miterlimit="10" stroke-width="6"/>
          <polyline points="23.3 53.4 40.9 63.6 40.9 83.7" fill="none" stroke="#000" stroke-miterlimit="10" stroke-width="6"/>
        </g>
        <g>
          <path d="M124.4,64.6a22,22,0,0,1-5.8-.7,17.8,17.8,0,0,1-5-2.4l-.8-.7a4.1,4.1,0,0,1-.5-.9,17.3,17.3,0,0,1-.8-4.4c-.1-1.7-.2-3.3-.2-4.9a.7.7,0,0,1,.4-.7,1.6,1.6,0,0,1,1-.2h.9l.5.7a18.3,18.3,0,0,0,4.5,8.3,9.6,9.6,0,0,0,6.8,2.9,7.4,7.4,0,0,0,4-1,7.6,7.6,0,0,0,2.5-2.8,8.1,8.1,0,0,0,.9-3.7,8.9,8.9,0,0,0-.9-4.3,10.9,10.9,0,0,0-2.8-2.9,39.4,39.4,0,0,0-4.5-2.9L119,40.5a16.1,16.1,0,0,1-4.6-4.4,11.2,11.2,0,0,1-1.8-6.4,13.1,13.1,0,0,1,2-7.1,13.3,13.3,0,0,1,5.7-4.7,18.6,18.6,0,0,1,8.4-1.7,24.6,24.6,0,0,1,4.9.5,25,25,0,0,1,3.6,1.2,3,3,0,0,1,1.1.7,2.3,2.3,0,0,1,.6,1.4,22.9,22.9,0,0,1,.8,3.5,30,30,0,0,1,.3,4.3q0,.9-1.2.9a1.9,1.9,0,0,1-1.2-.4,1.6,1.6,0,0,1-.7-.7,14.1,14.1,0,0,0-3.6-6.2,7.2,7.2,0,0,0-5.4-2.2,8.9,8.9,0,0,0-3.8.8,5.8,5.8,0,0,0-2.6,2.3,7.6,7.6,0,0,0-.9,4,4.8,4.8,0,0,0,1.3,3.4,13.5,13.5,0,0,0,3.5,3.1,43.4,43.4,0,0,0,5,3.3,37.9,37.9,0,0,1,5.7,4,13.7,13.7,0,0,1,3.5,4.5,12.8,12.8,0,0,1,1.2,5.8,14.3,14.3,0,0,1-2,7.9A12.3,12.3,0,0,1,133,63,20.6,20.6,0,0,1,124.4,64.6Z"/>
          <path d="M158.5,64.6a8.7,8.7,0,0,1-6.5-2.3,9.4,9.4,0,0,1-2.2-6.6V39.2a1,1,0,0,0-.4-.9,3.6,3.6,0,0,0-1.8-.3h-.8c-.3,0-.6-.2-.7-.7a3.1,3.1,0,0,1-.3-1.3.8.8,0,0,1,.1-.4l.3-.3a19.4,19.4,0,0,0,3.3-2,39.2,39.2,0,0,0,3.2-2.5l2.3-2.1.9-.7a1.2,1.2,0,0,1,1.6,0c.2.1.3.4.2.9l-.4,3.8c-.1.6,0,1,.4,1.2a2.3,2.3,0,0,0,1.3.3h8.4c.1,0,.3.1.4.5a1.6,1.6,0,0,1,.2,1,4.4,4.4,0,0,1-.2,1.6c-.2.5-.4.8-.6.8h-6.8a6,6,0,0,0-2.3.3,1.8,1.8,0,0,0-.6,1.6V53.7a7.7,7.7,0,0,0,1.3,4.7,4,4,0,0,0,3.4,1.7,10.8,10.8,0,0,0,3-.4l1.9-.8.4-.2a.7.7,0,0,1,.5.4,2.9,2.9,0,0,1,.2.9c0,.2-.5.7-1.4,1.5a12.2,12.2,0,0,1-3.6,2.1A11,11,0,0,1,158.5,64.6Z"/>
          <path d="M177.7,64.6a5.8,5.8,0,0,1-3.3-1,6.9,6.9,0,0,1-2.4-2.4,5.2,5.2,0,0,1-1-3.1,5.3,5.3,0,0,1,1.5-3.9,11.7,11.7,0,0,1,4.2-2.7l6.7-2.8a4.4,4.4,0,0,0,1.7-1.1,3.8,3.8,0,0,0,.4-1.9V41.4a5.1,5.1,0,0,0-.8-3.1,3,3,0,0,0-2.7-1.3,7.1,7.1,0,0,0-2,.4l-1.6.9a1.5,1.5,0,0,0-.4.8c0,.3-.1.6-.1.9a2.8,2.8,0,0,0,.1.9v.9c0,.3-.3.6-1,1.1a13.3,13.3,0,0,1-2.4,1.1,8,8,0,0,1-2.3.5,1,1,0,0,1-1.1-1.1,4.6,4.6,0,0,1,.8-2.4,11,11,0,0,1,2.4-2.5,22.4,22.4,0,0,1,3.9-2.7,25,25,0,0,1,4.1-1.9,12.7,12.7,0,0,1,3.5-.7,7.2,7.2,0,0,1,5.5,2.3,7.7,7.7,0,0,1,1.9,5.7L193,56.7a5.3,5.3,0,0,0,.6,2.6,2.2,2.2,0,0,0,1.8,1.1,3.2,3.2,0,0,0,2.4-.9l.5-.3.6.2a1.4,1.4,0,0,1,.2.6,2.9,2.9,0,0,1-1.1,1.9,8.6,8.6,0,0,1-2.7,2,7.2,7.2,0,0,1-2.8.7c-2.5,0-4.5-1.3-6.1-4h-.2a19.1,19.1,0,0,1-4.4,3A8.6,8.6,0,0,1,177.7,64.6Zm3.8-4.2a3.4,3.4,0,0,0,1.8-.4,2.7,2.7,0,0,0,1.2-.9,2.6,2.6,0,0,0,.5-.9,4.6,4.6,0,0,0,.2-1.4l.2-4.5a2.5,2.5,0,0,0-.1-1,.6.6,0,0,0-.6-.3h-.4l-.6.2a11.4,11.4,0,0,0-3.9,2.4,4.1,4.1,0,0,0-1.2,3c0,1.4.3,2.3,1,2.8A2.8,2.8,0,0,0,181.5,60.4Z"/>
          <path d="M218.1,64.6a19.8,19.8,0,0,1-3.5-.3l-3.1-.8-2.3-.6-1.5-.3a2.3,2.3,0,0,0-1.1.3l-1,.7a1.6,1.6,0,0,1-.9.4l-.9-.2a1,1,0,0,1-.4-.7c0-.4.2-1.2.4-2.4a24.1,24.1,0,0,0,.3-4l-.2-32.8a8.4,8.4,0,0,0-.6-3.3,3.9,3.9,0,0,0-2.4-1.9l-.5-.3a1.1,1.1,0,0,1-.3-.8,1.4,1.4,0,0,1,.2-.6l.6-.3a17.7,17.7,0,0,0,3.2-.9l3.7-1.3,2.6-1a1.6,1.6,0,0,1,.9-.2.6.6,0,0,1,.5.2.7.7,0,0,1,.1.5c0,.3,0,.9-.1,2s-.1,2.3-.1,3.6V34.7a3,3,0,0,0,.2,1.5c.1.4.2.6.4.6a18.7,18.7,0,0,1,4.8-2.6,15.8,15.8,0,0,1,4.9-1,12.7,12.7,0,0,1,6.6,1.9,14.8,14.8,0,0,1,4.7,5.2,16.4,16.4,0,0,1,1.7,7.4,18.2,18.2,0,0,1-2.1,8.8,15.2,15.2,0,0,1-5.9,5.9A16.7,16.7,0,0,1,218.1,64.6Zm1.5-2.7a5.2,5.2,0,0,0,3.8-1.7,12,12,0,0,0,2.4-4.5,20.8,20.8,0,0,0,.9-6.3,23.7,23.7,0,0,0-.8-5.7,12.9,12.9,0,0,0-2.7-4.9,6.2,6.2,0,0,0-4.7-2,12.6,12.6,0,0,0-3.8.6,9.2,9.2,0,0,0-3.1,1.7V53.8a8.2,8.2,0,0,0,1.1,4.2,9.2,9.2,0,0,0,3,2.9A8.7,8.7,0,0,0,219.6,61.9Z"/>
          <path d="M238.5,63.8l-1-.2a.8.8,0,0,1-.4-.7.9.9,0,0,1,.4-.8l1.2-.6,2-.8a1.9,1.9,0,0,0,.9-1.9V23.9a8.6,8.6,0,0,0-.6-3.4,3.5,3.5,0,0,0-2.4-1.8c-.5,0-.8-.4-.8-1a1,1,0,0,1,.7-1,24.2,24.2,0,0,0,3.6-1l3.5-1.2a19.7,19.7,0,0,1,2.8-1,1.1,1.1,0,0,1,.7-.2c.3,0,.4,0,.5.2a.9.9,0,0,1,.1.5c0,.3-.1,1.1-.2,2.2s-.2,2.6-.2,4.5v38c0,1,.3,1.7.9,1.9l1.9.8,1.2.6a1.1,1.1,0,0,1,.5.9.7.7,0,0,1-.5.6l-1,.2h-9.2l-2.1.2Z"/>
          <path d="M269.4,64.6a12.4,12.4,0,0,1-6.9-2,13.6,13.6,0,0,1-4.7-5.6,17.1,17.1,0,0,1-1.7-8,15.2,15.2,0,0,1,2-7.9,14.8,14.8,0,0,1,5.4-5.7,14.3,14.3,0,0,1,7.5-2.2,11.2,11.2,0,0,1,5.3,1.3,9.3,9.3,0,0,1,5.1,8.2c0,1.7-.7,2.6-2.2,2.6H264.6a1.8,1.8,0,0,0-1.4.5,3.3,3.3,0,0,0-.4,2,11.4,11.4,0,0,0,1.3,5.5,12,12,0,0,0,3.5,3.9,9,9,0,0,0,5.2,1.4,8.4,8.4,0,0,0,3.8-.8,15.8,15.8,0,0,0,3.3-2.2c.2-.2.3-.4.5-.4l.4-.2c.4,0,.7.3.7.9a5.1,5.1,0,0,1-.9,2.4,11.8,11.8,0,0,1-2.5,3.1,11,11,0,0,1-3.8,2.3A13,13,0,0,1,269.4,64.6Zm-4.7-22h8a5.7,5.7,0,0,0,1.8-.3,1,1,0,0,0,.5-.6,4.1,4.1,0,0,0,.1-1.2,4,4,0,0,0-1.5-3.3,5.1,5.1,0,0,0-3.6-1.4,5.8,5.8,0,0,0-3,.9,7.6,7.6,0,0,0-2.4,2.3,4.2,4.2,0,0,0-.8,2.8A.8.8,0,0,0,264.7,42.6Z"/>
        </g>
      </g>
    </g>
  </g>
</svg>
