<?xml version="1.0" encoding="UTF-8"?>
<svg id="Layer_2" data-name="Layer 2" xmlns="http://www.w3.org/2000/svg" viewBox="0 0 706.2 172.65">
  <defs>
    <style>
      .cls-1 {
        fill: #ad8218;
      }

      .cls-1, .cls-2, .cls-3, .cls-4 {
        stroke-width: 0px;
      }

      .cls-3 {
        fill: #e1ad01;
      }

      .cls-4 {
        fill: #352e1e;
      }
    </style>
  </defs>
  <g id="Layer_2-2" data-name="Layer 2">
    <g>
      <g>
        <polygon class="cls-3" points="82.77 24.48 104.08 6.91 136.62 10.57 131.7 29.64 164.1 33.15 159.25 52.16 191.59 55.6 170.4 73.01 137.72 69.48 142.78 50.46 110.3 47.02 115.16 27.91 82.77 24.48"/>
        <polygon class="cls-4" points="110.3 47.02 110.3 79.05 137.8 81.93 137.72 69.48 142.78 50.46 110.3 47.02"/>
        <polygon class="cls-4" points="82.77 24.48 82.77 56.44 110.26 59.47 110.3 47.02 115.16 27.91 82.77 24.48"/>
        <polygon class="cls-4" points="137.72 69.48 137.72 101.48 170.46 105 170.4 73.01 137.72 69.48"/>
        <polygon class="cls-1" points="170.4 73.01 170.46 105 191.59 87.66 191.59 55.6 170.4 73.01"/>
        <polygon class="cls-1" points="136.62 10.57 131.7 29.64 136.53 30.16 136.62 10.57"/>
        <polygon class="cls-1" points="164.1 33.15 159.25 52.16 163.99 52.66 164.1 33.15"/>
      </g>
      <g>
        <polygon class="cls-3" points="41.22 58.42 62.54 40.86 95.07 44.51 90.16 63.59 122.56 67.1 117.71 86.1 150.04 89.55 128.85 106.96 96.18 103.42 101.23 84.41 68.76 80.97 73.61 61.86 41.22 58.42"/>
        <polygon class="cls-4" points="68.76 80.97 68.76 113 96.25 115.88 96.18 103.42 101.23 84.41 68.76 80.97"/>
        <polygon class="cls-4" points="41.22 58.42 41.22 90.39 68.71 93.42 68.76 80.97 73.61 61.86 41.22 58.42"/>
        <polygon class="cls-4" points="96.18 103.42 96.18 135.42 128.91 138.95 128.85 106.96 96.18 103.42"/>
        <polygon class="cls-1" points="128.85 106.96 128.91 138.95 150.04 121.61 150.04 89.55 128.85 106.96"/>
        <polygon class="cls-1" points="95.07 44.51 90.16 63.59 94.98 64.11 95.07 44.51"/>
        <polygon class="cls-1" points="122.56 67.1 117.71 86.1 122.45 86.61 122.56 67.1"/>
      </g>
      <g>
        <polygon class="cls-3" points="0 92.13 21.31 74.56 53.85 78.22 48.93 97.29 81.33 100.8 76.48 119.81 108.82 123.25 87.63 140.66 54.95 137.13 60.01 118.11 27.53 114.67 32.39 95.56 0 92.13"/>
        <polygon class="cls-4" points="27.53 114.67 27.53 146.7 55.03 149.58 54.95 137.13 60.01 118.11 27.53 114.67"/>
        <polygon class="cls-4" points="0 92.13 0 124.09 27.49 127.12 27.53 114.67 32.39 95.56 0 92.13"/>
        <polygon class="cls-4" points="54.95 137.13 54.95 169.13 87.69 172.65 87.63 140.66 54.95 137.13"/>
        <polygon class="cls-1" points="87.63 140.66 87.69 172.65 108.82 155.31 108.82 123.25 87.63 140.66"/>
        <polygon class="cls-1" points="53.85 78.22 48.93 97.29 53.76 97.81 53.85 78.22"/>
        <polygon class="cls-1" points="81.33 100.8 76.48 119.81 81.22 120.31 81.33 100.8"/>
      </g>
      <g>
        <path class="cls-2" d="m264.02,77.98v-21.14h-27.7v21.14h-14.57v-38.99c0-.73.2-1.67.63-2.96l.04-.13,15.88-31.76c.41-.97,1.32-1.86,2.85-2.79,1.51-.92,2.7-1.35,3.73-1.35h10.57c1.03,0,2.22.43,3.73,1.35,1.53.93,2.44,1.82,2.85,2.79l15.85,31.69.03.06c.45,1.09.68,2.13.68,3.09v38.99h-14.57Zm0-35.71v-1.54l-13.08-26.16h-1.54l-13.08,26.16v1.54h27.7Z"/>
        <path class="cls-2" d="m310.94,77.98c-4.62,0-8.79-1.83-12.41-5.45-3.61-3.61-5.45-7.79-5.45-12.41V17.85c0-4.61,1.79-8.78,5.33-12.39,3.63-3.63,7.84-5.46,12.53-5.46h21.14c4.62,0,8.79,1.83,12.4,5.45,3.61,3.61,5.45,7.79,5.45,12.4v7.28h-14.57v-7.28c0-.64-.39-1.36-1.16-2.13s-1.48-1.16-2.12-1.16h-21.14c-.64,0-1.36.39-2.13,1.16s-1.16,1.48-1.16,2.12v42.27c0,.64.39,1.36,1.16,2.13.77.77,1.48,1.16,2.13,1.16h21.14c.64,0,1.36-.39,2.13-1.16.77-.77,1.16-1.48,1.16-2.13v-7.28h14.57v7.28c0,4.62-1.83,8.79-5.45,12.41-3.53,3.61-7.71,5.45-12.4,5.45h-21.14Z"/>
        <path class="cls-2" d="m406.7,77.98v-17.03l-14.58-14.68h-13.13v31.71h-14.57V0h38.99c4.62,0,8.79,1.83,12.4,5.45,3.61,3.61,5.45,7.79,5.45,12.4v10.57c0,3.75-1.53,7.3-4.55,10.55-1.8,1.86-4,3.45-6.57,4.76l9.05,9.05c.37.36.74.93,1.35,2.48.6,1.52.72,2.15.72,2.63v20.07h-14.57Zm-5.93-46.27c1.29,0,2.71-.59,4.22-1.76,1.17-1.02,1.57-1.56,1.7-1.76v-10.33c0-.64-.39-1.36-1.16-2.13s-1.48-1.16-2.12-1.16h-24.42v17.14h21.78Z"/>
        <path class="cls-2" d="m456.8,78.08v-36.05l-18.97-19.18c-1.4-1.3-2.16-3.08-2.16-5.11V0h14.57v14.71l13.85,14.04,13.85-14.04V0h14.57v17.75c0,2.02-.7,3.74-2.07,5.11l-19.07,19.17v36.05h-14.57Z"/>
        <polygon class="cls-2" points="506.9 77.98 506.9 0 521.46 0 521.46 63.41 563.74 63.41 563.74 77.98 506.9 77.98"/>
        <polygon class="cls-2" points="578.13 78.08 578.13 63.51 599.27 63.51 599.27 14.57 578.13 14.57 578.13 0 634.97 0 634.97 14.57 613.83 14.57 613.83 63.51 634.97 63.51 634.97 78.08 578.13 78.08"/>
        <path class="cls-2" d="m667.22,77.98c-4.62,0-8.79-1.83-12.41-5.45-3.61-3.61-5.45-7.79-5.45-12.41V17.85c0-4.61,1.79-8.78,5.33-12.39,3.63-3.63,7.84-5.46,12.53-5.46h21.14c4.62,0,8.79,1.83,12.41,5.45,3.61,3.61,5.45,7.79,5.45,12.4v7.28h-14.57v-7.28c0-.64-.39-1.36-1.16-2.13s-1.48-1.16-2.13-1.16h-21.14c-.64,0-1.36.39-2.13,1.16s-1.16,1.48-1.16,2.12v42.27c0,.64.39,1.36,1.16,2.13.77.77,1.48,1.16,2.13,1.16h21.14c.64,0,1.36-.39,2.13-1.16.77-.77,1.16-1.48,1.16-2.13v-7.28h14.57v7.28c0,4.62-1.83,8.79-5.45,12.41-3.53,3.61-7.71,5.45-12.41,5.45h-21.14Z"/>
      </g>
      <g>
        <polygon class="cls-2" points="264.02 167.56 264.02 135.86 236.32 135.86 236.32 167.56 221.75 167.56 221.75 89.59 236.32 89.59 236.32 121.29 264.02 121.29 264.02 89.59 278.59 89.59 278.59 167.56 264.02 167.56"/>
        <path class="cls-2" d="m335.36,167.56v-21.14h-27.7v21.14h-14.57v-38.99c0-.73.2-1.67.63-2.96l.04-.13,15.88-31.76c.41-.97,1.32-1.86,2.85-2.79,1.52-.92,2.7-1.35,3.73-1.35h10.57c1.03,0,2.21.43,3.73,1.35,1.53.93,2.44,1.82,2.85,2.79l15.85,31.69.03.06c.45,1.09.68,2.13.68,3.09v38.99h-14.57Zm0-35.71v-1.54l-13.08-26.16h-1.54l-13.08,26.16v1.54h27.7Z"/>
        <polygon class="cls-2" points="364.32 167.67 364.32 153.1 385.46 153.1 385.46 104.16 364.32 104.16 364.32 89.59 421.16 89.59 421.16 104.16 400.03 104.16 400.03 153.1 421.16 153.1 421.16 167.67 364.32 167.67"/>
        <polygon class="cls-2" points="435.56 167.56 435.56 89.59 450.13 89.59 450.13 153 492.4 153 492.4 167.56 435.56 167.56"/>
      </g>
    </g>
  </g>
</svg>