<?xml version="1.0" encoding="UTF-8"?>
<svg id="Layer_2" data-name="Layer 2" xmlns="http://www.w3.org/2000/svg" viewBox="0 0 794.21 416.86">
  <defs>
    <style>
      .cls-1 {
        opacity: .1;
      }

      .cls-1, .cls-2, .cls-3, .cls-4 {
        stroke-width: 0px;
      }

      .cls-3 {
        fill: #f4d30f;
      }

      .cls-4 {
        fill: #e0c12b;
      }
    </style>
  </defs>
  <g id="Layer_1-2" data-name="Layer 1">
    <g>
      <g>
        <polygon class="cls-4" points="175 39.94 70 109.94 70 389.94 175 389.94 175.11 109.93 245.11 109.94 245.11 39.94 175 39.94"/>
        <polygon class="cls-1" points="70 319.94 70 334.69 152.88 389.94 175.11 389.94 70 319.94"/>
        <polygon class="cls-1" points="70 179.94 70 194.69 175 264.69 175.11 249.94 70 179.94"/>
        <polygon class="cls-3" points="0 109.94 70 109.94 175.11 179.94 245.11 179.94 245.11 249.94 175 249.94 70 179.94 0 179.94 0 109.94"/>
        <polygon class="cls-3" points="0 249.94 70 249.94 175.11 319.94 245.11 319.94 245.11 389.94 175 389.94 70 319.94 0 319.94 0 249.94"/>
      </g>
      <g>
        <g>
          <path class="cls-2" d="M326.85,40.78c0-1.19.23-2.55.7-4.08.47-1.52,1.17-2.95,2.11-4.28.94-1.32,2.11-2.45,3.52-3.38,1.41-.93,3.11-1.39,5.13-1.39,3.62,0,7.62.3,12,.89s8.63,1.43,12.74,2.49c4.11,1.06,7.79,2.39,11.04,3.98,3.25,1.59,5.54,3.32,6.86,5.17,2.25,3.18,3.94,7.16,5.07,11.93,1.12,4.77,1.86,9.95,2.19,15.52.33,5.57.23,11.31-.3,17.21-.53,5.9-1.39,11.54-2.59,16.91s-2.69,10.25-4.48,14.62-3.81,7.83-6.07,10.34c-1.59,1.86-3.58,3.48-5.97,4.87-2.39,1.39-4.91,2.62-7.56,3.68-2.65,1.06-5.37,1.92-8.16,2.59-2.78.67-5.37,1.19-7.76,1.59,0,5.7-.07,10.74-.2,15.12-.13,4.38-.27,8.59-.4,12.63-.14,4.05-.27,8.25-.4,12.63-.13,4.38-.2,9.35-.2,14.92,0,1.06-.84,1.86-2.52,2.39-1.68.53-3.52.73-5.53.6-2.01-.13-3.86-.57-5.54-1.29-1.68-.73-2.51-1.82-2.51-3.28,0-12.73-.13-25.43-.4-38.09-.27-12.66-.53-25.33-.79-37.99-.27-12.66-.43-25.36-.5-38.09-.07-12.73.1-25.46.5-38.19ZM346.14,120.55c5.3,0,9.42-1.56,12.33-4.67,2.92-3.12,5.1-6.96,6.56-11.54,1.46-4.58,2.42-9.48,2.88-14.72.46-5.24.83-9.98,1.09-14.22.13-4.38-.03-8.39-.5-12.04-.47-3.65-1.49-6.86-3.08-9.65-1.59-2.79-3.91-5.07-6.96-6.86-3.05-1.79-7.16-3.08-12.33-3.88v77.58Z"/>
          <path class="cls-2" d="M435.06,32.82c7.69-.13,14.45,2.29,20.29,7.26,5.83,4.97,10.08,11.44,12.73,19.39,2.25,6.76,3.75,13.33,4.48,19.69.73,6.37.96,12.73.7,19.1-.13,2.78-.37,6.37-.7,10.74-.33,4.38-.96,9.08-1.89,14.12-.93,5.04-2.22,10.15-3.88,15.32-1.66,5.17-3.81,9.88-6.46,14.12-2.65,4.25-5.94,7.76-9.85,10.54-3.91,2.79-8.59,4.38-14.02,4.77-7.29.4-13.46-.53-18.5-2.79-5.04-2.25-9.22-5.27-12.53-9.05-3.32-3.78-5.9-8.02-7.76-12.73-1.86-4.71-3.28-9.32-4.28-13.83-1-4.51-1.63-8.65-1.89-12.43-.27-3.78-.47-6.66-.6-8.65-.13-3.31-.17-7.16-.1-11.54.07-4.38.3-8.82.7-13.33.4-4.51,1.03-8.88,1.89-13.13.86-4.24,2.02-8.02,3.48-11.34,2.52-5.3,5.14-9.65,7.86-13.03,2.72-3.38,5.6-6.03,8.65-7.96,3.05-1.92,6.37-3.25,9.95-3.98,3.58-.73,7.49-1.16,11.74-1.29ZM449.78,135.66c1.86-4.51,3.35-9.78,4.48-15.81,1.12-6.03,1.82-12.26,2.09-18.7.26-6.43.1-12.8-.5-19.1-.6-6.3-1.76-11.87-3.48-16.71-1.72-4.84-4.01-8.75-6.86-11.74-2.85-2.98-6.33-4.41-10.44-4.28-3.45-.4-6.6.6-9.45,2.98-2.85,2.39-5.34,5.67-7.46,9.85-2.12,4.18-3.88,9.08-5.27,14.72-1.39,5.64-2.36,11.57-2.88,17.8-.53,6.24-.63,12.53-.3,18.9.33,6.37,1.16,12.33,2.49,17.9.4,1.46,1.09,3.22,2.09,5.27.99,2.06,2.29,4.08,3.88,6.07,1.59,1.99,3.48,3.71,5.67,5.17,2.19,1.46,4.67,2.26,7.46,2.39,3.18-.26,5.83-.9,7.96-1.89,2.12-1,3.84-2.19,5.17-3.58,1.32-1.39,2.39-2.92,3.18-4.58.8-1.66,1.52-3.21,2.19-4.67Z"/>
          <path class="cls-2" d="M602.75,193.95c1.99,0,3.41.83,4.28,2.49.86,1.66,1.32,3.41,1.39,5.27.07,1.86-.3,3.58-1.09,5.17-.8,1.59-1.86,2.39-3.18,2.39-10.74.13-21.05.16-30.93.1-9.88-.07-20.12-.37-30.73-.89-.67,0-1.89-1.86-3.68-5.57-1.79-3.71-3.91-8.55-6.37-14.52-2.46-5.97-5.14-12.63-8.06-19.99-2.92-7.36-5.74-14.75-8.45-22.18-2.72-7.42-5.31-14.45-7.76-21.09-2.46-6.63-4.41-12.13-5.87-16.51-1.46-4.11-2.88-6.1-4.28-5.97-1.39.13-2.09,2.52-2.09,7.16,0,12.33.13,24.54.4,36.6.26,12.07.4,24.27.4,36.6,0,1.19-.94,1.96-2.82,2.29-1.88.33-3.99.33-6.33,0-2.35-.33-4.46-.99-6.33-1.99-1.88-.99-2.82-2.22-2.82-3.68.13-27.58-.23-55.13-1.09-82.65-.86-27.52-.89-55.07-.1-82.65,0-1.32.23-2.79.7-4.38.47-1.59,1.17-3.11,2.11-4.58.94-1.46,2.11-2.69,3.52-3.68,1.41-.99,3.12-1.56,5.13-1.69,3.62,0,7.62.33,12,1,4.38.67,8.63,1.59,12.74,2.78,4.11,1.19,7.79,2.62,11.04,4.28,3.25,1.66,5.54,3.48,6.86,5.47,2.25,3.45,4.01,7.63,5.27,12.53,1.26,4.91,2.05,10.15,2.39,15.71.33,5.57.16,11.17-.5,16.81-.67,5.64-1.79,10.91-3.38,15.81-1.59,4.91-3.71,9.18-6.37,12.83-2.65,3.65-5.77,6.2-9.35,7.66-.8.27-.57,2.55.7,6.86,1.26,4.31,3.01,9.65,5.27,16.01,2.25,6.37,4.84,13.36,7.76,20.99,2.92,7.63,5.77,14.85,8.55,21.68,2.78,6.83,5.24,12.87,7.36,18.1,2.12,5.24,3.58,8.65,4.38,10.24.79,1.86,1.99,3.08,3.58,3.68,1.59.6,4.18.96,7.76,1.09,3.58.13,8.39.16,14.42.1,6.03-.07,13.89.03,23.57.3ZM517.61,51.72c.13-4.77.07-9.12-.2-13.03-.26-3.91-1.08-7.36-2.46-10.34-1.38-2.98-3.52-5.5-6.41-7.56-2.89-2.05-6.9-3.48-12.02-4.28v69.22c4.47-1.32,8.01-3.02,10.64-5.07,2.63-2.05,4.66-4.44,6.11-7.16,1.45-2.72,2.46-5.87,3.05-9.45.59-3.58,1.02-7.69,1.28-12.33Z"/>
          <path class="cls-2" d="M623.49,184.8c-.13,1.33-.73,2.22-1.79,2.69-1.06.47-2.26.83-3.58,1.09-1.46.27-3.18.27-5.17,0-2.52,0-4.38-.46-5.57-1.39-1.19-.93-2.06-1.92-2.59-2.98-.53-1.32-.8-2.85-.8-4.58-.27-27.58-.53-52.32-.8-74.2-.13-9.28-.23-18.4-.3-27.35-.07-8.95-.17-16.94-.3-23.97-.13-7.03-.2-12.76-.2-17.21v-7.06c0-.93-.99-1.62-2.98-2.09-1.99-.46-4.54-.8-7.66-1-3.12-.2-6.6-.23-10.44-.1-3.85.13-7.53.27-11.04.4-3.51.13-6.69.3-9.55.5-2.85.2-4.81.3-5.87.3-.53,0-1.03.03-1.49.1-.46.07-.96.1-1.49.1-1.32,0-2.35-.76-3.08-2.29-.73-1.52-1.19-3.28-1.39-5.27-.2-1.99-.03-3.88.5-5.67.53-1.79,1.39-2.88,2.59-3.28.53-.13,3.02-.3,7.46-.5,4.45-.2,9.85-.36,16.21-.5,6.37-.13,13.26-.23,20.69-.3,7.42-.06,14.39-.16,20.89-.3,6.5-.13,12.03-.2,16.61-.2h8.26c1.72,0,3.08.86,4.08,2.59,1,1.73,1.56,3.65,1.69,5.77.13,2.12-.1,4.05-.7,5.77-.6,1.72-1.56,2.59-2.88,2.59h-5.17c-2.12,0-4.21.07-6.27.2-2.06.13-3.88.4-5.47.8-1.59.4-2.46.99-2.59,1.79-.27.8-.5,3.65-.7,8.55-.2,4.91-.3,11.07-.3,18.5v24.96c0,9.22.07,18.6.2,28.15.26,22.28.6,47.41,1,75.39Z"/>
          <path class="cls-2" d="M673.82,32.82c7.69-.13,14.45,2.29,20.29,7.26,5.83,4.97,10.08,11.44,12.73,19.39,2.25,6.76,3.75,13.33,4.48,19.69.73,6.37.96,12.73.7,19.1-.13,2.78-.37,6.37-.7,10.74-.33,4.38-.96,9.08-1.89,14.12-.93,5.04-2.22,10.15-3.88,15.32-1.66,5.17-3.81,9.88-6.46,14.12-2.65,4.25-5.94,7.76-9.85,10.54-3.91,2.79-8.59,4.38-14.02,4.77-7.29.4-13.46-.53-18.5-2.79-5.04-2.25-9.22-5.27-12.53-9.05-3.32-3.78-5.9-8.02-7.76-12.73-1.86-4.71-3.28-9.32-4.28-13.83-1-4.51-1.63-8.65-1.89-12.43-.27-3.78-.47-6.66-.6-8.65-.13-3.31-.17-7.16-.1-11.54.07-4.38.3-8.82.7-13.33.4-4.51,1.03-8.88,1.89-13.13.86-4.24,2.02-8.02,3.48-11.34,2.52-5.3,5.14-9.65,7.86-13.03,2.72-3.38,5.6-6.03,8.65-7.96,3.05-1.92,6.37-3.25,9.95-3.98,3.58-.73,7.49-1.16,11.74-1.29ZM688.54,135.66c1.86-4.51,3.35-9.78,4.48-15.81,1.12-6.03,1.82-12.26,2.09-18.7.26-6.43.1-12.8-.5-19.1-.6-6.3-1.76-11.87-3.48-16.71-1.72-4.84-4.01-8.75-6.86-11.74-2.85-2.98-6.33-4.41-10.44-4.28-3.45-.4-6.6.6-9.45,2.98-2.85,2.39-5.34,5.67-7.46,9.85-2.12,4.18-3.88,9.08-5.27,14.72-1.39,5.64-2.36,11.57-2.88,17.8-.53,6.24-.63,12.53-.3,18.9.33,6.37,1.16,12.33,2.49,17.9.4,1.46,1.09,3.22,2.09,5.27.99,2.06,2.29,4.08,3.88,6.07,1.59,1.99,3.48,3.71,5.67,5.17,2.19,1.46,4.67,2.26,7.46,2.39,3.18-.26,5.83-.9,7.96-1.89,2.12-1,3.84-2.19,5.17-3.58,1.32-1.39,2.39-2.92,3.18-4.58.8-1.66,1.52-3.21,2.19-4.67Z"/>
        </g>
        <g>
          <path class="cls-2" d="M355.69,416.26c-5.57-.13-10.14-.89-13.73-2.29-3.58-1.39-6.4-3.38-8.45-5.97-2.06-2.59-3.48-5.67-4.28-9.25-.8-3.58-1.19-7.62-1.19-12.13v-13.53c0-6.63.03-14.29.1-22.98.07-8.68.13-17.93.2-27.75.07-9.81.13-19.16.2-28.05.07-8.88.17-16.81.3-23.77.13-6.96.26-41.61.4-44.53.66-.4,1.46-.79,2.39-1.19,1.86-.66,4.51-.93,7.96-.8,1.86.13,3.25.37,4.18.7.93.33,1.59.7,1.99,1.09.53.53.79,1.06.79,1.59v61.24c0,10.14-.03,20.19-.1,30.14-.07,9.95-.13,19.96-.2,30.04-.07,10.08-.17,20.56-.3,31.43-.13,4.11,0,7.56.4,10.34.4,2.79,1.22,5.01,2.49,6.66,1.26,1.66,3.11,2.82,5.57,3.48,2.45.67,5.67,1,9.65,1,7.96.13,16.21.17,24.77.1,8.55-.07,16.87.03,24.96.3,1.46,0,2.45.8,2.98,2.39.53,1.59.76,3.32.7,5.17-.07,1.86-.4,3.51-1,4.97s-1.29,2.19-2.09,2.19c-5.31-.13-10.38-.23-15.22-.3-4.84-.07-9.62-.1-14.32-.1s-9.45-.03-14.22-.1c-4.77-.07-9.75-.1-14.92-.1Z"/>
          <path class="cls-2" d="M352.71,360.02c-.13-10.87-.2-21.35-.2-31.43v-29.94c0-9.88.03-19.86.1-29.94.07-10.08.1-20.55.1-31.43,0-1.46-.07-2.95-.2-4.48-.13-1.52.13-2.88.8-4.08.53-1.06,1.72-1.86,3.58-2.39,1.86-.53,3.75-.73,5.67-.6,1.92.13,3.65.5,5.17,1.09,1.52.6,2.29,1.49,2.29,2.69.13,3.85.26,9.22.4,16.11.13,6.9.23,14.56.3,22.98.07,8.42.13,17.24.2,26.46.07,9.22.13,18.04.2,26.46.07,8.42.03,16.08-.1,22.98-.13,6.9-.27,12.27-.4,16.11,0,1.06-.96,1.86-2.88,2.39-1.92.53-3.98.73-6.17.6-2.19-.13-4.21-.5-6.07-1.09-1.86-.6-2.78-1.42-2.78-2.49Z"/>
          <path class="cls-2" d="M431.08,251.01c3.31,8.09,5.8,16.71,7.46,25.86,1.66,9.15,2.52,18.47,2.59,27.95.07,9.48-.7,18.87-2.29,28.15-1.59,9.28-3.98,18.04-7.16,26.26-1.86,4.91-4.54,9.25-8.06,13.03-3.51,3.78-7.16,7-10.94,9.65-3.78,2.65-7.39,4.81-10.84,6.46-3.45,1.66-6.04,2.75-7.76,3.28-.93.4-2.29.57-4.08.5-1.79-.07-3.55-.3-5.27-.7-1.73-.4-3.25-1.03-4.58-1.89-1.33-.86-1.99-1.89-1.99-3.08-.13-6.1-.2-14.29-.2-24.57v-33.42c0-12,.03-24.2.1-36.6.07-12.4.13-23.8.2-34.21.07-10.41.13-19.16.2-26.26.07-7.09.1-11.3.1-12.63,0-1.99.96-3.51,2.88-4.58,1.92-1.06,4.14-1.76,6.66-2.09,2.52-.33,4.97-.4,7.36-.2,2.39.2,3.98.5,4.77.89,3.31,1.46,6.46,3.55,9.45,6.27,2.98,2.72,5.8,5.8,8.45,9.25,2.65,3.45,5.07,7.13,7.26,11.04,2.19,3.91,4.08,7.79,5.67,11.64ZM396.47,376.13c5.97-4.38,10.94-10.44,14.92-18.2s6.89-16.34,8.75-25.76c1.86-9.41,2.75-19.23,2.68-29.44-.07-10.21-1.13-20.02-3.18-29.44-2.06-9.42-5.01-18-8.85-25.76-3.85-7.76-8.62-13.83-14.32-18.2v146.8Z"/>
          <path class="cls-2" d="M459.13,367.38c-.4.67-1.66,1.16-3.78,1.49-2.12.33-4.34.4-6.66.2-2.32-.2-4.41-.7-6.27-1.49-1.86-.8-2.65-2.05-2.39-3.78l.6-4.38c0-.53.33-3.25.99-8.16.66-4.9,1.52-11.17,2.59-18.8,1.06-7.62,2.25-16.18,3.58-25.66,1.32-9.48,2.68-18.96,4.08-28.45,1.39-9.48,2.72-18.57,3.98-27.25,1.26-8.68,2.42-16.08,3.48-22.18v-.2c.13-1.19.73-2.25,1.79-3.18,1.06-.93,2.29-1.69,3.68-2.29,1.39-.6,2.82-1.03,4.28-1.29,1.46-.26,2.79-.4,3.98-.4s2.55.13,4.08.4c1.52.27,2.95.7,4.28,1.29,1.32.6,2.49,1.36,3.48,2.29.99.93,1.62,1.99,1.89,3.18v.2h.2c.13,1.19.53,3.95,1.19,8.25.66,4.31,1.46,9.62,2.39,15.91.93,6.3,1.92,13.3,2.98,20.99,1.06,7.69,2.19,15.49,3.38,23.37,1.19,7.89,2.32,15.62,3.38,23.17,1.06,7.56,1.99,14.29,2.79,20.19.8,5.9,1.42,10.78,1.89,14.62.46,3.85.7,5.97.7,6.37,0,.27.03.6.1,1,.07.4.1.79.1,1.19.13,1.86-.73,3.15-2.59,3.88-1.86.73-3.98,1.16-6.37,1.29-2.39.13-4.64,0-6.76-.4-2.12-.4-3.25-.79-3.38-1.19-.4-1.19-.63-2.98-.7-5.37-.07-2.39-.13-5-.2-7.86-.07-2.85-.23-5.7-.5-8.55-.27-2.85-.86-5.34-1.79-7.46-.27-.66-1.39-1.22-3.38-1.69-1.99-.46-4.15-.73-6.46-.8-2.32-.07-4.48.03-6.46.3-1.99.27-3.12.8-3.38,1.59-.53,1.99-.96,4.48-1.29,7.46-.33,2.98-.67,5.94-1,8.85-.33,2.92-.67,5.64-.99,8.16-.33,2.52-.83,4.25-1.49,5.17ZM465.69,315.26c0,.53-.03,1.13-.1,1.79-.07.67.07,1.33.4,1.99.33.67,1.03,1.23,2.09,1.69,1.06.47,2.72.7,4.97.7,1.99,0,3.48-.23,4.48-.7,1-.46,1.69-1.03,2.09-1.69.4-.66.63-1.32.7-1.99.07-.66.1-1.26.1-1.79,0-1.59-.17-4.64-.5-9.15-.33-4.51-.76-9.48-1.29-14.92-.53-5.44-1.03-10.77-1.49-16.01-.47-5.24-.9-9.25-1.29-12.04-.13-1.46-1.06-2.32-2.79-2.59-.67.13-1.23.4-1.69.8-.47.4-.76.99-.89,1.79-.4,2.79-.86,6.8-1.39,12.04-.53,5.24-1.03,10.58-1.49,16.01-.47,5.44-.89,10.41-1.29,14.92-.4,4.51-.6,7.56-.6,9.15Z"/>
          <path class="cls-2" d="M563.16,251.01c3.31,8.09,5.8,16.71,7.46,25.86,1.66,9.15,2.52,18.47,2.59,27.95.07,9.48-.7,18.87-2.29,28.15-1.59,9.28-3.98,18.04-7.16,26.26-1.86,4.91-4.54,9.25-8.06,13.03-3.51,3.78-7.16,7-10.94,9.65-3.78,2.65-7.39,4.81-10.84,6.46-3.45,1.66-6.04,2.75-7.76,3.28-.93.4-2.29.57-4.08.5-1.79-.07-3.55-.3-5.27-.7-1.73-.4-3.25-1.03-4.58-1.89-1.33-.86-1.99-1.89-1.99-3.08-.13-6.1-.2-14.29-.2-24.57v-33.42c0-12,.03-24.2.1-36.6.07-12.4.13-23.8.2-34.21.07-10.41.13-19.16.2-26.26.07-7.09.1-11.3.1-12.63,0-1.99.96-3.51,2.88-4.58,1.92-1.06,4.14-1.76,6.66-2.09,2.52-.33,4.97-.4,7.36-.2,2.39.2,3.98.5,4.77.89,3.31,1.46,6.46,3.55,9.45,6.27,2.98,2.72,5.8,5.8,8.45,9.25,2.65,3.45,5.07,7.13,7.26,11.04,2.19,3.91,4.08,7.79,5.67,11.64ZM528.55,376.13c5.97-4.38,10.94-10.44,14.92-18.2s6.89-16.34,8.75-25.76c1.86-9.41,2.75-19.23,2.68-29.44-.07-10.21-1.13-20.02-3.18-29.44-2.06-9.42-5.01-18-8.85-25.76-3.85-7.76-8.62-13.83-14.32-18.2v146.8Z"/>
          <path class="cls-2" d="M620.84,237.29c7.69-.13,14.45,2.29,20.29,7.26,5.83,4.97,10.08,11.44,12.73,19.39,2.25,6.76,3.75,13.33,4.48,19.69.73,6.37.96,12.73.7,19.1-.13,2.78-.37,6.37-.7,10.74-.33,4.38-.96,9.08-1.89,14.12-.93,5.04-2.22,10.15-3.88,15.32-1.66,5.17-3.81,9.88-6.46,14.12-2.65,4.25-5.94,7.76-9.85,10.54-3.91,2.79-8.59,4.38-14.02,4.77-7.29.4-13.46-.53-18.5-2.79-5.04-2.25-9.22-5.27-12.53-9.05-3.32-3.78-5.9-8.02-7.76-12.73-1.86-4.71-3.28-9.32-4.28-13.83-1-4.51-1.63-8.65-1.89-12.43-.27-3.78-.47-6.66-.6-8.65-.13-3.31-.17-7.16-.1-11.54.07-4.38.3-8.82.7-13.33.4-4.51,1.03-8.88,1.89-13.13.86-4.24,2.02-8.02,3.48-11.34,2.52-5.3,5.14-9.65,7.86-13.03,2.72-3.38,5.6-6.03,8.65-7.96,3.05-1.92,6.37-3.25,9.95-3.98,3.58-.73,7.49-1.16,11.74-1.29ZM635.56,340.13c1.86-4.51,3.35-9.78,4.48-15.81,1.12-6.03,1.82-12.26,2.09-18.7.26-6.43.1-12.8-.5-19.1-.6-6.3-1.76-11.87-3.48-16.71-1.72-4.84-4.01-8.75-6.86-11.74-2.85-2.98-6.33-4.41-10.44-4.28-3.45-.4-6.6.6-9.45,2.98-2.85,2.39-5.34,5.67-7.46,9.85-2.12,4.18-3.88,9.08-5.27,14.72-1.39,5.64-2.36,11.57-2.88,17.8-.53,6.24-.63,12.53-.3,18.9.33,6.37,1.16,12.33,2.49,17.9.4,1.46,1.09,3.22,2.09,5.27.99,2.06,2.29,4.08,3.88,6.07,1.59,1.99,3.48,3.71,5.67,5.17,2.19,1.46,4.67,2.26,7.46,2.39,3.18-.26,5.83-.9,7.96-1.89,2.12-1,3.84-2.19,5.17-3.58,1.32-1.39,2.39-2.92,3.18-4.58.8-1.66,1.52-3.21,2.19-4.67Z"/>
          <path class="cls-2" d="M788.53,398.41c1.99,0,3.41.83,4.28,2.49.86,1.66,1.32,3.41,1.39,5.27.07,1.86-.3,3.58-1.09,5.17-.8,1.59-1.86,2.39-3.18,2.39-10.74.13-21.05.16-30.93.1-9.88-.07-20.12-.37-30.73-.89-.67,0-1.89-1.86-3.68-5.57-1.79-3.71-3.91-8.55-6.37-14.52-2.46-5.97-5.14-12.63-8.06-19.99-2.92-7.36-5.74-14.75-8.45-22.18-2.72-7.42-5.31-14.45-7.76-21.09-2.46-6.63-4.41-12.13-5.87-16.51-1.46-4.11-2.88-6.1-4.28-5.97-1.39.13-2.09,2.52-2.09,7.16,0,12.33.13,24.54.4,36.6.26,12.07.4,24.27.4,36.6,0,1.19-.94,1.96-2.82,2.29-1.88.33-3.99.33-6.33,0-2.35-.33-4.46-.99-6.33-1.99-1.88-.99-2.82-2.22-2.82-3.68.13-27.58-.23-55.13-1.09-82.65-.86-27.52-.89-55.07-.1-82.65,0-1.32.23-2.79.7-4.38.47-1.59,1.17-3.11,2.11-4.58.94-1.46,2.11-2.69,3.52-3.68,1.41-.99,3.12-1.56,5.13-1.69,3.62,0,7.62.33,12,1,4.38.67,8.63,1.59,12.74,2.78,4.11,1.19,7.79,2.62,11.04,4.28,3.25,1.66,5.54,3.48,6.86,5.47,2.25,3.45,4.01,7.63,5.27,12.53,1.26,4.91,2.05,10.15,2.39,15.71.33,5.57.16,11.17-.5,16.81-.67,5.64-1.79,10.91-3.38,15.81-1.59,4.91-3.71,9.18-6.37,12.83-2.65,3.65-5.77,6.2-9.35,7.66-.8.27-.57,2.55.7,6.86,1.26,4.31,3.01,9.65,5.27,16.01,2.25,6.37,4.84,13.36,7.76,20.99,2.92,7.63,5.77,14.85,8.55,21.68,2.78,6.83,5.24,12.87,7.36,18.1,2.12,5.24,3.58,8.65,4.38,10.24.79,1.86,1.99,3.08,3.58,3.68,1.59.6,4.18.96,7.76,1.09,3.58.13,8.39.16,14.42.1,6.03-.07,13.89.03,23.57.3ZM703.39,256.18c.13-4.77.07-9.12-.2-13.03-.26-3.91-1.08-7.36-2.46-10.34-1.38-2.98-3.52-5.5-6.41-7.56-2.89-2.05-6.9-3.48-12.02-4.28v69.22c4.47-1.32,8.01-3.02,10.64-5.07,2.63-2.05,4.66-4.44,6.11-7.16,1.45-2.72,2.46-5.87,3.05-9.45.59-3.58,1.02-7.69,1.28-12.33Z"/>
        </g>
      </g>
    </g>
  </g>
</svg>