<?xml version="1.0" encoding="UTF-8"?>
<svg id="Layer_2" data-name="Layer 2" xmlns="http://www.w3.org/2000/svg" viewBox="0 0 658.02 237.24">
  <defs>
    <style>
      .cls-1 {
        fill: none;
      }

      .cls-1, .cls-2, .cls-3, .cls-4, .cls-5 {
        stroke-width: 0px;
      }

      .cls-2 {
        fill: #e84860;
      }

      .cls-3 {
        fill: #232323;
      }

      .cls-4 {
        fill: #fbe1ba;
      }

      .cls-5 {
        fill: #f1637c;
      }
    </style>
  </defs>
  <g id="Layer_1-2" data-name="Layer 1">
    <g>
      <path class="cls-3" d="m308.81,81.84c5.48,0,10.67.3,15.55,1.03v13.78c-5.63-1.03-11.26-1.63-17.33-1.19-16.3.89-28.45,15.11-28.45,31.26s12.15,30.22,28.45,31.26c6.07.3,11.7-.15,17.33-1.19v13.78c-4.89.59-10.08,1.03-15.55,1.03-24.74.01-44.89-20.14-44.89-44.88s20.15-44.89,44.89-44.89Z"/>
      <path class="cls-5" d="m350.76,234.71c-5.22-2.31-10.28-4.88-14.72-8.53-10.66-8.73-17.85-19.92-22.86-32.58-6.52-16.48-9.9-33.7-11.53-51.28-2.5-27.08-.63-53.89,5.71-80.34,3.61-15.04,9.95-28.87,19.45-41.16,5.86-7.57,13.19-13.26,21.91-17.18,1.55-.28,2.89-1.3,4.52-1.27-.41.47-.78.98-1.24,1.39-9.03,8.03-15.05,18.08-19.51,29.17-4.47,11.13-7.37,22.7-9.51,34.48-2.4,13.19-3.71,26.5-3.94,39.9-.16,9.3-.07,18.59.73,27.88.63,7.32,1.2,14.65,2.29,21.91,2.47,16.47,6.23,32.6,13.22,47.82,4.14,9,8.91,17.58,16.13,24.59,2.7,2.62,5.86,4.66,8.51,7.32-3.2-.06-6.11-1.4-9.16-2.13Z"/>
      <path class="cls-2" d="m418.6,73.8c-4.24-1.1-8.24-2.9-12.39-4.26-2.88-.94-5.73-1.95-8.67-2.96-.2,1.21.59,1.75.95,2.44,4.94,9.27,7.31,19.27,8.63,29.61,1.12,8.75,1.68,17.52,1.66,26.34-.01,8.47-.67,16.87-1.74,25.28-1.22,9.58-3.52,18.8-7.6,27.55-1.6,3.42-3.59,6.61-6.46,9.11-2.64,2.3-5.78,3.24-9.28,2.81-5.78-.71-12.79-7.51-13.75-13.33.28.3.57.59.82.92,1.56,2.04,1.54,2.03,3.22-.02,2.41-2.95,3.89-6.4,5.18-9.93,3.68-10.02,5-20.49,5.54-31.06.85-16.67,0-33.21-4.35-49.43-1.5-5.6-3.57-10.96-7.44-15.45-1.08-1.26-1.68-1.16-2.33.27-.89,1.95-1.83,3.89-2.75,5.83.85-11.11,9.44-17.7,20.39-16.06,10.81,1.62,20.62,5.93,30.41,10.42.24.11.41.37.61.56-.21.46-.43.92-.64,1.38Z"/>
      <path class="cls-4" d="m485.69,15.87c.19,4.24-1.48,8.01-3.05,11.79-.93,2.26-1.67,4.56-2,6.99-.23,1.7,0,3.32.7,4.88.41.91.98,1.33,2.13,1.1,6.11-1.27,11.14,2.59,11.66,8.87.5,6.02-2.5,10.69-7.57,11.08-8.1.63-13.22-6.42-11.78-12.34.8-3.31.65-3.32-2.54-4.59-3.1-1.23-6.18-2.5-9.26-3.75-.89-4.13-3.82-6.82-6.83-9.35-3.76-3.16-7.85-5.86-12.24-8.09,3.4-.7,6.84-.97,10.32-.98,3.66,0,7.34.34,10.99-.27,6.99-1.17,10.18-5.47,9.19-12.41,3.61,2.09,6.88,4.68,10.29,7.07Zm-.42,39.1c2.8.04,5.1-2.14,5.15-4.88.05-2.68-2.11-4.9-4.83-4.95-2.79-.06-5.08,2.13-5.12,4.9-.04,2.73,2.06,4.89,4.8,4.93Z"/>
      <path class="cls-3" d="m475.41,8.79c.99,6.94-2.2,11.24-9.19,12.41-3.65.61-7.33.26-10.99.27-3.48,0-6.91.28-10.32.98-4.41-1.1-8.92-1.37-13.42-1.66-5.41-.35-7.2-3.25-4.83-8.12,3.43-7.07,9.65-10.31,16.92-11.91,9.56-2.1,18.31.32,26.61,5.02,1.75.99,3.49,2.01,5.23,3.01Z"/>
      <path class="cls-2" d="m359.92,236.84c-2.64-2.66-5.81-4.7-8.51-7.32-7.22-7.01-11.99-15.59-16.13-24.59-7-15.22-10.75-31.36-13.22-47.82-1.09-7.26-1.66-14.59-2.29-21.91-.8-9.29-.89-18.58-.73-27.88.23-13.4,1.54-26.71,3.94-39.9,2.14-11.78,5.04-23.35,9.51-34.48,4.45-11.09,10.47-21.14,19.51-29.17.46-.41.83-.93,1.24-1.39,2.69-.97,5.46-1.5,8.33-1.5-3.01,1.97-6.07,3.84-8.8,6.25-5.28,4.67-9.3,10.24-12.6,16.4-7.26,13.57-11.23,28.21-14.04,43.23-1.64,8.8-2.61,17.68-3.42,26.59-.95,10.47-1.11,20.97-.67,31.43.97,22.86,3.87,45.44,11.11,67.32,3.8,11.47,9,22.12,16.31,31.71,3.65,4.79,8.29,8.57,13.58,11.51,1.03.57,2.05,1.16,3.07,1.74-2.08.27-4.15.28-6.21-.22Z"/>
      <path class="cls-2" d="m405.53,28.63c-3.62-1.54-7.06-3.48-10.82-4.74-7.01-2.36-14.08-4.17-21.58-3.59-.6.05-1.28-.01-1.82-.25-1.11-.5-1.13-1.59-.1-2.24.61-.39,1.31-.4,2-.45,7.96-.54,15.38,1.38,22.51,4.77,2.43,1.16,4.71,2.66,7.32,3.42,0,0-.02.02-.02.02.12.17.24.34.36.5.71.86,1.42,1.71,2.13,2.57Z"/>
      <path class="cls-2" d="m465.67,57.79c2.07,1.68,3.19,3.96,3.91,6.45.29,1-.02,1.96-1.02,2.5-.95.52-1.83.38-2.7-.32-1.64-1.32-2.26-3.1-2.45-5.1,1.24-.87,1.22-2.53,2.26-3.53Z"/>
      <path class="cls-2" d="m428.21,214.44c-.35-.22-.78-.36-1.04-.66-2.34-2.6-5-4.79-8.02-6.56-.46-.27-.85-.71-1.17-1.15-.4-.54-.47-1.17.03-1.72.52-.58,1.13-.47,1.69-.09.98.66,1.97,1.31,2.87,2.07,2.29,1.9,4.51,3.89,7.06,5.46-.47.88-.94,1.77-1.42,2.65Z"/>
      <path class="cls-2" d="m417.05,226.48c-2.19-1.87-4.41-3.71-6.57-5.62-.9-.79-1.48-1.94-.51-2.88.87-.84,1.76.02,2.49.7,1.85,1.76,3.72,3.5,5.58,5.25-.55.76-1.17,1.5-.98,2.54Z"/>
      <path class="cls-5" d="m403.41,26.06c-.12-.17-.24-.34-.36-.5.12.17.24.34.36.5Z"/>
      <path class="cls-2" d="m369.5,175.51c.15.29.29.57.44.86-.15-.29-.29-.57-.44-.86Z"/>
      <path class="cls-3" d="m485.28,54.96c-2.74-.04-4.84-2.21-4.8-4.93.04-2.76,2.34-4.95,5.12-4.9,2.72.05,4.88,2.28,4.83,4.95-.05,2.74-2.36,4.92-5.15,4.88Z"/>
      <path class="cls-3" d="m0,81.84h32.3v14.37H14.37v16.14h16.44v14.37H14.37v30.52h17.93v14.37H0v-89.77Z"/>
      <path class="cls-3" d="m52.33,81.84v75.4h40.15v14.37h-54.51v-89.77h14.37Zm7.85,0h32.29v14.37h-17.93v8h16.44v14.37h-16.44v17.18h17.93v14.37h-32.29v-68.3Z"/>
      <path class="cls-3" d="m140.95,81.84c5.48,0,10.67.3,15.55,1.03v13.78c-5.63-1.03-11.26-1.63-17.33-1.19-16.3.89-28.45,15.11-28.45,31.26s12.15,30.22,28.45,31.26c6.07.3,11.7-.15,17.33-1.19v13.78c-4.89.59-10.08,1.03-15.55,1.03-24.74.01-44.89-20.14-44.89-44.88s20.15-44.89,44.89-44.89Z"/>
      <path class="cls-3" d="m196.98,81.84v14.37h-10.52v75.4h-14.37v-75.4h-10.52v-14.37h35.41Z"/>
      <path class="cls-3" d="m200.82,81.84h15.85c12.3,0,22.52,10.08,22.52,22.52,0,8.29-4.59,15.55-11.41,19.4,3.7,10.52,6.37,33.03,31.56,33.48v14.37c-30.07,0-41.92-24-44.15-42.96v42.96h-14.37v-89.77Zm14.37,14.37v16.15h1.48c4.44,0,8.15-3.55,8.15-8s-3.71-8.15-8.15-8.15h-1.48Zm29.63-14.37h14.52v71.85c-5.63-.15-10.52-1.48-14.52-4.3v-67.55Z"/>
      <g>
        <path class="cls-1" d="m422.09,73.67c-.91-.48-1.77-1.11-2.84-1.25-.2-.19-.37-.45-.61-.56-9.79-4.49-19.6-8.8-30.41-10.42-10.95-1.64-19.54,4.95-20.39,16.06-2.3,6.64-4.01,14.66-5.11,23.32,8.14-11.49,21.53-18.97,36.65-18.97,1.47,0,2.91.03,4.34.07-1.32-4.42-3.01-8.73-5.23-12.89-.37-.69-1.15-1.23-.95-2.44,2.94,1,5.79,2.01,8.67,2.96,4.15,1.36,8.15,3.16,12.39,4.26.57,2.67,1.08,5.36,1.56,8.04h19.33c-5.93-2.41-11.73-5.16-17.41-8.17Z"/>
        <path class="cls-1" d="m481.69,90.28c-2.48.27-4.96.36-7.44.28l7.44,23.29v-23.56Z"/>
        <path class="cls-1" d="m363.36,153.47c1.37,8.47,3.41,16.09,6.14,22.04.15.29.29.57.44.86h0c.97,5.83,7.97,12.63,13.75,13.34,3.5.43,6.65-.51,9.28-2.81,2.87-2.5,4.87-5.7,6.46-9.11.96-2.05,1.81-4.13,2.58-6.23-.87.02-1.74.05-2.63.05-14.73,0-27.83-7.14-36.02-18.14Z"/>
        <path class="cls-1" d="m397.6,95.46c-16.3.89-28.45,15.11-28.45,31.26s12.15,30.22,28.45,31.26c2.81.14,5.53.11,8.19-.06.5-2.53.92-5.09,1.25-7.68,1.07-8.41,1.73-16.81,1.74-25.28.01-8.82-.55-17.59-1.66-26.34-.13-1.04-.28-2.07-.43-3.1-2.95-.24-5.96-.29-9.08-.06Z"/>
        <path class="cls-5" d="m489.05,16.87c-1.07-.51-2.13-1.03-3.36-1,.19,4.24-1.48,8.01-3.05,11.79-.93,2.26-1.67,4.56-2,6.99-.23,1.7,0,3.32.7,4.88.41.91.98,1.33,2.13,1.1,6.11-1.27,11.14,2.59,11.66,8.87.5,6.02-2.5,10.69-7.57,11.08-8.1.63-13.22-6.42-11.78-12.34.8-3.31.65-3.32-2.54-4.59-3.1-1.23-6.18-2.5-9.26-3.75-.48,6.06.52,11.99,1.69,17.89,2.07,1.68,3.19,3.96,3.91,6.45.29,1-.02,1.96-1.02,2.5-.95.52-1.83.38-2.7-.32-1.64-1.32-2.26-3.1-2.45-5.1-1.16-.44-2.31-.94-3.49-1.33-8.74-2.86-16.99-6.77-24.73-11.74-9.97-6.41-19.39-13.65-29.66-19.61-3.62-1.54-7.06-3.48-10.82-4.74-7.01-2.36-14.08-4.17-21.58-3.59-.6.05-1.28-.01-1.82-.25-1.11-.5-1.13-1.59-.1-2.24.61-.39,1.31-.4,2-.45,7.96-.54,15.38,1.38,22.51,4.77,2.43,1.16,4.71,2.66,7.32,3.42.05-.61-.36-1.04-.63-1.51-4.02-7-9.34-12.82-16.21-17.07-7.53-4.66-15.71-6.95-24.64-6.09-3.01,1.97-6.07,3.84-8.8,6.25-5.28,4.67-9.3,10.24-12.6,16.4-7.26,13.57-11.23,28.21-14.04,43.23-1.64,8.8-2.61,17.68-3.42,26.59-.95,10.47-1.11,20.97-.67,31.43.97,22.86,3.87,45.44,11.11,67.32,3.8,11.47,9,22.12,16.31,31.71,3.65,4.79,8.29,8.57,13.58,11.51,1.03.57,2.05,1.16,3.07,1.74.76.06,1.51.19,2.27.18,10.94-.09,20.03-4.46,27.65-12.09,1.19-1.19,1.69-1.07,2.6.25,3.14,4.56,7.45,7.61,12.75,9.18,3.7,1.09,6.28-.74,6.41-4.51.04-1.23-.04-2.49-.75-3.59-2.19-1.87-4.41-3.71-6.57-5.62-.9-.79-1.48-1.94-.51-2.88.87-.84,1.76.02,2.49.7,1.85,1.76,3.72,3.5,5.58,5.25,2.18,1.02,3.92,2.8,6.25,3.6,3.53,1.21,6.2-.34,6.81-4.03.25-1.48-.12-2.86-.52-4.27-.5-1.75-1.81-3.09-2.36-4.8-.35-.22-.78-.36-1.04-.66-2.34-2.6-5-4.79-8.02-6.56-.46-.27-.85-.71-1.17-1.15-.4-.54-.47-1.17.03-1.72.52-.58,1.13-.47,1.69-.09.98.66,1.97,1.31,2.87,2.07,2.29,1.9,4.51,3.89,7.06,5.46,1.98.86,3.95,1.71,6.12,1.98,4.53.58,7.43-2.44,6.61-6.93-.29-1.59-.93-3.05-1.79-4.42-1.58-2.5-3.66-4.54-5.93-6.4-5.21-4.27-11.26-6.82-17.7-8.57-1.17-.32-1.81-.58-1.33-2.08,1.47-4.56,2.72-9.15,3.76-13.77h-.24v-89.77h1.03c-.48-2.68-.99-5.37-1.56-8.04-4.24-1.1-8.24-2.9-12.39-4.26-2.88-.94-5.73-1.95-8.67-2.96-.2,1.21.58,1.75.95,2.44,2.22,4.16,3.91,8.47,5.23,12.89,3.9.12,7.64.42,11.22.96v13.78c-2.73-.5-5.47-.9-8.25-1.12.16,1.03.3,2.07.43,3.1,1.12,8.75,1.68,17.52,1.66,26.34-.01,8.47-.67,16.87-1.74,25.28-.33,2.59-.75,5.15-1.25,7.68,3.09-.19,6.12-.57,9.14-1.13v13.78c-4.09.49-8.41.87-12.92.98-.77,2.1-1.62,4.18-2.58,6.23-1.6,3.42-3.59,6.61-6.46,9.11-2.64,2.3-5.78,3.24-9.28,2.81-5.78-.71-12.79-7.51-13.75-13.33h0c-.15-.29-.29-.58-.44-.87-2.73-5.95-4.77-13.57-6.14-22.04-5.56-7.47-8.86-16.73-8.86-26.74s3.06-18.61,8.23-25.92c1.1-8.65,2.81-16.67,5.11-23.32.85-11.11,9.44-17.7,20.39-16.06,10.81,1.62,20.62,5.93,30.41,10.42.24.11.41.37.61.56,1.07.14,1.93.77,2.84,1.25,5.69,3.01,11.48,5.75,17.41,8.17h11.94v4.31c1.25.39,2.5.77,3.76,1.13.63.18,1.27.35,1.9.52v-5.96h14.37l2.78,8.71c2.47.08,4.95,0,7.44-.28v-8.44h14.37v4.49c1.32-.63,2.57-1.32,3.75-2.08v-2.41h3.24c4.83-4.12,8.16-9.73,9.72-17.02,4.08-19.1-6.04-39.56-23.71-47.95Z"/>
        <path class="cls-5" d="m362.73,100.81c-5.18,7.31-8.23,16.24-8.23,25.92s3.3,19.27,8.86,26.74c-2.63-16.25-2.8-35.67-.63-52.66Z"/>
        <path class="cls-3" d="m397.6,95.46c3.13-.23,6.13-.18,9.08.06,2.79.23,5.52.62,8.25,1.12v-13.78c-3.58-.54-7.32-.84-11.22-.96-1.43-.05-2.87-.07-4.34-.07-15.12,0-28.52,7.48-36.65,18.97-2.17,16.99-2,36.4.63,52.66,8.19,11,21.29,18.14,36.02,18.14.89,0,1.76-.03,2.63-.05,4.51-.11,8.83-.49,12.92-.98v-13.78c-3.03.56-6.05.94-9.14,1.13-2.67.17-5.38.19-8.19.06-16.3-1.04-28.45-15.11-28.45-31.26s12.15-30.37,28.45-31.26Z"/>
        <path class="cls-5" d="m439.5,81.84c3.92,1.59,7.89,3.04,11.94,4.31v-4.31h-11.94Z"/>
        <path class="cls-3" d="m451.43,96.21v-10.06c-4.05-1.27-8.02-2.72-11.94-4.31h-20.36v89.77h32.3v-14.37h-17.93v-30.52h16.44v-14.37h-16.44v-16.14h17.93Z"/>
        <path class="cls-3" d="m481.69,90.28v23.56l-7.44-23.29c-5.75-.19-11.47-1.24-17.15-2.75v83.81h14.37v-58.66l10.22,32v26.66h14.37v-85.29c-2.02.96-4.19,1.77-6.51,2.43-2.62.75-5.24,1.23-7.86,1.52Z"/>
        <path class="cls-5" d="m471.47,81.84h-14.37v5.96c5.68,1.51,11.4,2.56,17.15,2.75l-2.78-8.71Z"/>
        <path class="cls-5" d="m481.69,81.84v8.44c2.61-.28,5.23-.77,7.86-1.52,2.32-.66,4.49-1.47,6.51-2.43v-4.49h-14.37Z"/>
        <path class="cls-3" d="m557.14,153.54c0,2.82-2.67,4-5.18,4-2.37,0-5.04-1.19-5.04-4v-49.92h-14.37v50.66c0,10.81,9.04,17.63,19.41,17.63s19.56-6.82,19.56-17.63v-50.66h-14.37v49.92Z"/>
        <path class="cls-3" d="m503.05,81.84c-1.02.87-2.09,1.67-3.24,2.41v11.96h10.52v75.4h14.37v-75.4h46.82v-14.37h-68.47Z"/>
        <path class="cls-5" d="m499.81,81.84v2.41c1.15-.74,2.22-1.54,3.24-2.41h-3.24Z"/>
      </g>
      <path class="cls-3" d="m594.67,81.84c12.3,0,22.37,10.08,22.37,22.37,0,8.45-4.59,15.7-11.26,19.56,5.33,10.08,11.26,29.92,11.26,47.85h-13.19c0-14.96-5.48-33.33-10.67-44.44v44.44h-14.37v-89.77h15.86Zm-1.48,14.37v16.15h1.48c4.44,0,8-3.71,8-8.15s-3.55-8-8-8h-1.48Z"/>
      <path class="cls-3" d="m638.62,127.17c2.08-14.82,4.74-30.37,5.03-45.33h14.37c-1.19,17.48-6.52,44.44-12,64.44v25.33h-14.66v-25.33c-5.63-20-10.96-46.96-12.15-64.44h14.37c.44,14.96,2.96,30.52,5.04,45.33Z"/>
    </g>
  </g>
</svg>