<?xml version="1.0" encoding="UTF-8"?>
<svg id="Layer_2" data-name="Layer 2" xmlns="http://www.w3.org/2000/svg" viewBox="0 0 454.13 110.92">
  <defs>
    <style>
      .cls-1 {
        fill: #f33;
        fill-rule: evenodd;
      }

      .cls-1, .cls-2 {
        stroke-width: 0px;
      }

      .cls-2 {
        fill: #212121;
      }
    </style>
  </defs>
  <g id="Layer_1-2" data-name="Layer 1">
    <g>
      <path class="cls-1" d="m115.21,52.69s10.2,10.37,25.76,3.42l58.84-23.85s10.12-4.22,10.98-8.34c.17.81.56,5.63-10.73,10.41l-31.66,12.85s6.61.4,9.67,4.4c2.2,2.88,5.61,8.34,7.36,11.18h-6.33c-.82,0-1.73.67-2.01,1.5l-.51,1.5c8.17,0,17.51,0,25.68,0l-.51-1.5c-.28-.82-1.19-1.5-2.01-1.5h-11.8c-2.31-4.4-4.9-8.14-1.17-12.44,1.36-1.56,3.59-2.97,7.26-3.39,16.8-2.92,19.1-10.84,25.09-24.05,3.42-7.54,6.46-11.77,13.22-11.9,0,0-3.35-8.3-9.71-10.3-6.36-2-11.77.76-13.83,4.35-2.06,3.59-2.41,5.59-4.59,6.71-2.18,1.12-45.61,17.24-45.61,17.24,0,0,4.12,5.83,11.06,7.71,0,0-4.3,1.18-8.71-2.53l-45.72,18.54ZM218.93,6.66c0-.81.66-1.47,1.47-1.47s1.47.66,1.47,1.47-.66,1.47-1.47,1.47-1.47-.66-1.47-1.47Z"/>
      <path class="cls-2" d="m23.33,89.82c2.4.68,4.28,1.8,5.62,3.37,1.34,1.56,2.03,3.81,2.07,6.73,0,2.28-.42,4.14-1.26,5.56-.84,1.42-2.03,2.55-3.58,3.37-1.54.82-3.4,1.37-5.56,1.65s-4.55.42-7.15.42H.96c-.64,0-.96-.32-.96-.96v-40.16c0-.64.32-.96.96-.96h11.54c2.65,0,5.05.15,7.21.45s4.03.86,5.59,1.68c1.56.82,2.77,1.96,3.64,3.43.86,1.46,1.29,3.34,1.29,5.62.04,2.77-.55,4.91-1.77,6.43-1.22,1.52-2.94,2.65-5.14,3.37Zm-12.75-18.7v17.62h.42c1.2,0,2.29-.13,3.28-.39.98-.26,1.83-.71,2.56-1.35.72-.64,1.28-1.53,1.68-2.68.4-1.14.6-2.58.6-4.3s-.23-3.22-.69-4.36c-.46-1.14-1.07-2.04-1.83-2.71-.76-.66-1.62-1.13-2.58-1.41s-1.96-.42-3.01-.42h-.42Zm1.14,37.51c1.2,0,2.3-.13,3.31-.39,1-.26,1.85-.71,2.56-1.35.7-.64,1.25-1.53,1.65-2.68.4-1.14.6-2.57.6-4.3s-.23-3.22-.69-4.36c-.46-1.14-1.07-2.04-1.83-2.71-.76-.66-1.62-1.13-2.58-1.41-.96-.28-1.96-.42-3.01-.42h-1.14v17.62h1.14Z"/>
      <path class="cls-2" d="m56.93,95.05c1.24.28,2.29.68,3.16,1.2.86.52,1.58,1.14,2.16,1.86.58.72,1.03,1.55,1.35,2.5.32.94.58,2.01.78,3.22l.96,6.01c.08.28.03.53-.15.75-.18.22-.43.33-.75.33h-8.48c-.48,0-.8-.26-.96-.78l-1.26-7.7c-.24-1.28-.54-2.32-.9-3.13s-.81-1.42-1.35-1.86c-.54-.44-1.16-.74-1.86-.9-.7-.16-1.51-.24-2.44-.24h-2.46v13.65c0,.64-.32.96-.96.96h-8.66c-.64,0-.96-.32-.96-.96v-40.16c0-.64.32-.96.96-.96h12.26c2.65,0,5.06.21,7.24.63,2.18.42,4.06,1.15,5.62,2.19,1.56,1.04,2.78,2.45,3.64,4.21.86,1.76,1.29,3.99,1.29,6.67,0,3.57-.73,6.32-2.19,8.27-1.46,1.94-3.48,3.36-6.04,4.24Zm-12.2-1.02h1.14c1.2,0,2.3-.2,3.31-.6,1-.4,1.85-1.05,2.56-1.95.7-.9,1.25-2.08,1.65-3.55.4-1.46.6-3.26.6-5.38s-.23-3.91-.69-5.35c-.46-1.44-1.07-2.62-1.83-3.52-.76-.9-1.62-1.55-2.58-1.95-.96-.4-1.96-.6-3.01-.6h-1.14v22.91Z"/>
      <path class="cls-2" d="m79.12,91.02v17.62h14.97c.24,0,.46.09.66.27.2.18.3.41.3.69v.36c0,.28-.1.51-.3.69-.2.18-.42.27-.66.27h-24.59c-.64,0-.96-.32-.96-.96v-40.16c0-.64.32-.96.96-.96h23.81c.64,0,.96.32.96.96v.36c0,.64-.32.96-.96.96h-14.19v17.62h9.68c.24,0,.45.09.63.27s.27.41.27.69v.36c0,.28-.09.51-.27.69-.18.18-.39.27-.63.27h-9.68Z"/>
      <path class="cls-2" d="m97.75,110.92c-.64,0-.96-.32-.96-.96v-40.16c0-.64.32-.96.96-.96h8.66c.64,0,.96.32.96.96v40.16c0,.64-.32.96-.96.96h-8.66Z"/>
      <path class="cls-2" d="m130.46,71.12v38.84c0,.64-.32.96-.96.96h-8.72c-.24,0-.45-.09-.63-.27-.18-.18-.27-.41-.27-.69v-37.94c0-.24-.09-.45-.27-.63-.18-.18-.41-.27-.69-.27h-9.26c-.64,0-.96-.32-.96-.96v-.36c0-.64.32-.96.96-.96h31.02c.24,0,.46.09.66.27.2.18.3.41.3.69v.36c0,.28-.1.51-.3.69-.2.18-.42.27-.66.27h-10.22Z"/>
      <path class="cls-2" d="m162.56,69.79c0-.64.32-.96.96-.96h8.72c.24,0,.45.09.63.27.18.18.27.41.27.69v40.16c0,.28-.09.51-.27.69-.18.18-.39.27-.63.27h-7.88c-.48,0-.78-.22-.9-.66l-9.98-28.92v28.62c0,.64-.32.96-.96.96h-8.66c-.64,0-.96-.32-.96-.96v-40.16c0-.64.32-.96.96-.96h7.88c.4,0,.7.22.9.66l9.92,28.92v-28.62Z"/>
      <path class="cls-2" d="m187.99,91.02v17.62h14.97c.24,0,.46.09.66.27.2.18.3.41.3.69v.36c0,.28-.1.51-.3.69-.2.18-.42.27-.66.27h-24.59c-.64,0-.96-.32-.96-.96v-40.16c0-.64.32-.96.96-.96h23.81c.64,0,.96.32.96.96v.36c0,.64-.32.96-.96.96h-14.19v17.62h9.68c.24,0,.45.09.63.27s.27.41.27.69v.36c0,.28-.09.51-.27.69-.18.18-.39.27-.63.27h-9.68Z"/>
      <path class="cls-2" d="m228.45,95.05c1.24.28,2.29.68,3.16,1.2.86.52,1.58,1.14,2.16,1.86.58.72,1.03,1.55,1.35,2.5.32.94.58,2.01.78,3.22l.96,6.01c.08.28.03.53-.15.75-.18.22-.43.33-.75.33h-8.48c-.48,0-.8-.26-.96-.78l-1.26-7.7c-.24-1.28-.54-2.32-.9-3.13s-.81-1.42-1.35-1.86c-.54-.44-1.16-.74-1.86-.9-.7-.16-1.51-.24-2.44-.24h-2.46v13.65c0,.64-.32.96-.96.96h-8.66c-.64,0-.96-.32-.96-.96v-40.16c0-.64.32-.96.96-.96h12.26c2.65,0,5.06.21,7.24.63,2.18.42,4.06,1.15,5.62,2.19,1.56,1.04,2.78,2.45,3.64,4.21.86,1.76,1.29,3.99,1.29,6.67,0,3.57-.73,6.32-2.19,8.27-1.46,1.94-3.48,3.36-6.04,4.24Zm-12.2-1.02h1.14c1.2,0,2.3-.2,3.31-.6,1-.4,1.85-1.05,2.56-1.95.7-.9,1.25-2.08,1.65-3.55.4-1.46.6-3.26.6-5.38s-.23-3.91-.69-5.35c-.46-1.44-1.07-2.62-1.83-3.52-.76-.9-1.62-1.55-2.58-1.95-.96-.4-1.96-.6-3.01-.6h-1.14v22.91Z"/>
      <path class="cls-2" d="m317.24,68.83c2.65,0,5.06.21,7.24.63,2.18.42,4.06,1.15,5.62,2.19,1.56,1.04,2.78,2.45,3.64,4.21.86,1.76,1.29,3.99,1.29,6.67s-.43,4.91-1.29,6.67c-.86,1.76-2.07,3.18-3.64,4.24-1.56,1.06-3.44,1.8-5.62,2.22-2.19.42-4.6.63-7.24.63h-2.65v13.65c0,.64-.32.96-.96.96h-8.66c-.64,0-.96-.32-.96-.96v-40.16c0-.64.32-.96.96-.96h12.26Zm-1.5,25.19c1.2,0,2.3-.2,3.31-.6,1-.4,1.85-1.05,2.56-1.95.7-.9,1.25-2.08,1.65-3.55.4-1.46.6-3.26.6-5.38s-.23-3.91-.69-5.35c-.46-1.44-1.07-2.62-1.83-3.52-.76-.9-1.62-1.55-2.58-1.95-.96-.4-1.96-.6-3.01-.6h-1.14v22.91h1.14Z"/>
      <path class="cls-2" d="m341.95,69.55c.08-.48.38-.72.9-.72h10.58c.52,0,.84.24.96.72l9.38,40.22c.08.32.03.59-.15.81-.18.22-.43.33-.75.33h-8.6c-.56,0-.88-.26-.96-.78l-1.08-6.73h-8.12l-1.14,6.73c-.08.52-.38.78-.9.78h-8.6c-.32,0-.58-.11-.78-.33-.2-.22-.26-.49-.18-.81l9.44-40.22Zm9.92,31.74l-3.73-22.85-3.73,22.85h7.46Z"/>
      <path class="cls-2" d="m381.09,69.55c.12-.48.42-.72.9-.72h8.54c.32,0,.57.13.75.39s.23.55.15.87l-10.52,28.62v11.24c0,.64-.32.96-.96.96h-8.72c-.24,0-.45-.09-.63-.27-.18-.18-.27-.41-.27-.69v-11.24l-10.52-28.62c-.12-.32-.08-.61.12-.87.2-.26.46-.39.78-.39h8.48c.52,0,.84.24.96.72l5.47,19.54,5.47-19.6v.06Z"/>
      <path class="cls-2" d="m412.77,69.79c0-.64.32-.96.96-.96h8.72c.24,0,.45.09.63.27.18.18.27.41.27.69v40.16c0,.28-.09.51-.27.69-.18.18-.39.27-.63.27h-7.88c-.48,0-.78-.22-.9-.66l-9.98-28.92v28.62c0,.64-.32.96-.96.96h-8.66c-.64,0-.96-.32-.96-.96v-40.16c0-.64.32-.96.96-.96h7.88c.4,0,.7.22.9.66l9.92,28.92v-28.62Z"/>
      <path class="cls-2" d="m438.2,91.02v17.62h14.97c.24,0,.46.09.66.27.2.18.3.41.3.69v.36c0,.28-.1.51-.3.69-.2.18-.42.27-.66.27h-24.59c-.64,0-.96-.32-.96-.96v-40.16c0-.64.32-.96.96-.96h23.81c.64,0,.96.32.96.96v.36c0,.64-.32.96-.96.96h-14.19v17.62h9.68c.24,0,.45.09.63.27s.27.41.27.69v.36c0,.28-.09.51-.27.69-.18.18-.39.27-.63.27h-9.68Z"/>
      <path class="cls-2" d="m275.35,85.16v6.13c0,.98.08,1.73.24,2.24.16.52.44.83.84.93.22.06.33.21.33.45v.24c0,.32-.16.48-.48.48-1.02-.02-1.95-.11-2.8-.27-.85-.16-1.54-.48-2.08-.96-.36.36-.83.65-1.41.88-.58.23-1.3.34-2.15.34-1.12,0-2.14-.04-3.07-.13s-1.72-.28-2.38-.57c-.66-.29-1.17-.72-1.54-1.3-.37-.58-.55-1.36-.55-2.33v-2.93c0-1.08.22-1.91.67-2.5.45-.59,1.07-1.02,1.87-1.3-.76-.28-1.34-.7-1.75-1.27s-.61-1.39-.61-2.47v-1.8c0-1,.18-1.78.54-2.35.36-.57.86-1,1.51-1.29.65-.29,1.43-.48,2.35-.57.92-.09,1.94-.13,3.05-.13s2.13.04,3.04.12c.91.08,1.69.27,2.33.57s1.15.73,1.51,1.3c.36.57.54,1.35.54,2.35v2.66c0,.12-.04.22-.13.31s-.19.13-.31.13h-4.34c-.14,0-.25-.04-.34-.13s-.13-.19-.13-.31v-2.66c0-1.08-.14-1.88-.42-2.41s-.86-.79-1.74-.79-1.48.26-1.75.78c-.27.52-.4,1.33-.4,2.42v1.8c0,1.1.15,1.91.45,2.42.3.52.9.78,1.8.78h8.29c.12,0,.22.04.31.13s.13.21.13.34v.18c0,.14-.04.25-.13.34s-.19.13-.31.13h-.96Zm-7.51,9.34c.9,0,1.5-.26,1.79-.79.3-.53.45-1.33.45-2.41v-6.13h-2.06c-.9,0-1.53.26-1.9.78-.37.52-.55,1.33-.55,2.42v2.93c0,1.1.15,1.91.46,2.42.31.52.91.78,1.81.78Z"/>
      <polygon class="cls-1" points="284.75 102.19 255.41 107.35 255.41 102.19 284.75 97.04 284.75 102.19"/>
    </g>
  </g>
</svg>