<?xml version="1.0" encoding="UTF-8"?>
<svg id="Layer_2" data-name="Layer 2" xmlns="http://www.w3.org/2000/svg" viewBox="0 0 261.27 83.72">
  <defs>
    <style>
      .cls-1 {
        fill: #232323;
        stroke-width: 0px;
      }
    </style>
  </defs>
  <g id="Layer_2-2" data-name="Layer 2">
    <g>
      <path class="cls-1" d="m13.5,72.59c6.55,0,11.68-.32,11.68-6.98v-2.48c0-.48-.37-.85-.85-.85h-7.51c-.42,0-.85.37-.85.85v2.48c0,3.85-.69,5.02-2.49,5.02s-2.49-1.16-2.49-5.02v-15.21c0-3.85.64-5.02,2.49-5.02s2.49,1.16,2.49,5.02v2.48c0,.42.42.85.85.85h7.51c.48,0,.85-.42.85-.85v-2.48c0-6.66-5.14-7.03-11.68-7.03s-11.62.37-11.62,7.03v15.21c0,6.66,5.07,6.98,11.62,6.98Z"/>
      <path class="cls-1" d="m37.12,32.86c0-.31-.26-.58-.53-.58h-8.08c-.26,0-.53.26-.53.58v6.87c0,.31.26.53.53.53h8.08c.26,0,.53-.21.53-.53v-6.87Z"/>
      <path class="cls-1" d="m28.51,43.74c-.26,0-.53.21-.53.53v27.48c0,.26.26.53.53.53h8.08c.26,0,.53-.26.53-.53v-27.48c0-.31-.26-.53-.53-.53h-8.08Z"/>
      <path class="cls-1" d="m53.98,43.74s-3.07,0-3.07,0v-5.97c0-.42-.37-.85-.85-.85h-3.07c-.37,0-.74.31-.79.69-.64,2.8-2.17,4.97-4.28,6.03-.11.05-.21.1-.37.1h-1.53c-.48,0-.85.37-.85.79v.37c0,.42.37.79.85.79h1.74v19.6c0,6.34,4.65,6.93,10.78,6.98.48,0,.85-.37.85-.85v-.42c0-.37-.26-.69-.64-.79-1.32-.26-1.85-1.54-1.85-4.92v-19.6h3.07c.48,0,.85-.37.85-.79v-.37c0-.42-.37-.79-.85-.79Z"/>
      <path class="cls-1" d="m79.02,50.39c0-6.66-4.97-7.03-11.47-7.03s-11.47.37-11.47,7.03v2.48c0,.42.37.85.85.85h7.45c.48,0,.85-.42.85-.85v-2.48c0-3.85.58-5.02,2.33-5.02s2.33,1.16,2.33,5.02v6.92h-3.17c-6.55,0-11.62.32-11.62,6.98v1.32c0,6.66,5.39,6.98,12,6.98,4.59,0,7.13-.26,11.15-.31.42,0,.79-.37.79-.85h0v-21.04Zm-9.13,15.23c0,3.85-.95,5.02-2.8,5.02s-2.85-1.16-2.85-5.02v-1.32c0-3.85.69-4.97,2.49-4.97h3.17s0,6.29,0,6.29Z"/>
      <path class="cls-1" d="m104.66,32.26h-7.51c-.42,0-.85.37-.85.85v10.31c-.79,0-1.63-.05-2.48-.05-6.55,0-11.62.37-11.62,7.03v15.21c0,6.66,5.07,7.19,11.62,6.98l10.83-.31c.48,0,.85-.37.85-.79h0v-38.38c0-.48-.42-.85-.85-.85Zm-8.35,33.35c0,3.85-.68,5.02-2.48,5.02s-2.49-1.16-2.49-5.02v-15.21c0-3.85.69-5.02,2.49-5.02h2.48v20.23Z"/>
      <path class="cls-1" d="m131.2,61.81h-7.51c-.42,0-.85.37-.85.85v2.96c0,3.85-.68,5.02-2.48,5.02s-2.49-1.16-2.49-5.02v-9.46h13.31c.48,0,.85-.37.85-.79v-4.97c0-6.66-5.13-7.03-11.67-7.03s-11.62.37-11.62,7.03v15.21c0,6.66,5.08,6.98,11.62,6.98s11.67-.32,11.67-6.98h0v-2.96c0-.48-.37-.85-.85-.85Zm-13.32-7.61v-3.8c0-3.85.65-5.02,2.49-5.02s2.48,1.16,2.48,5.02v3.8s-4.97,0-4.97,0Z"/>
      <rect class="cls-1" x="135.06" y="32.27" width="9.15" height="40.01" rx=".05" ry=".05"/>
      <path class="cls-1" d="m183.19,50.42c0-6.66-5.12-7.19-11.67-7.03l-10.83.31c-.42.06-.79.37-.79.85v38.37c0,.42.37.79.85.79h7.45c.48,0,.85-.37.85-.79v-10.31h2.49c6.55,0,11.67-.32,11.67-6.98h-.02v-15.21Zm-9.18,0v15.21c0,3.85-.64,5.02-2.49,5.02h-2.49v-20.24c0-3.85.64-5.02,2.49-5.02s2.49,1.16,2.49,5.02h0Z"/>
      <path class="cls-1" d="m209.52,50.41c0-6.66-4.97-7.03-11.47-7.03s-11.47.37-11.47,7.03v2.48c0,.42.37.85.85.85h7.45c.48,0,.85-.42.85-.85v-2.48c0-3.85.58-5.02,2.33-5.02s2.33,1.16,2.33,5.02v6.92h-3.17c-6.55,0-11.62.32-11.62,6.98v1.32c0,6.66,5.39,6.98,12,6.98,4.59,0,7.13-.26,11.15-.31.42,0,.79-.37.79-.85h0v-21.04Zm-9.14,15.23c0,3.85-.95,5.02-2.8,5.02s-2.85-1.16-2.85-5.02v-1.32c0-3.85.69-4.97,2.49-4.97h3.17v6.29Z"/>
      <path class="cls-1" d="m230.66,43.28c-2.48,0-5.65.74-8.56,1.95h-.02v-.69c0-.42-.37-.79-.85-.79h-7.45c-.48,0-.85.37-.85.79v26.9c0,.48.37.85.85.85h7.45c.48,0,.85-.37.85-.85v-23.14c.85-1.21,2.01-1.95,2.96-1.95.8,0,1.38.53,1.38,1.74v2.96c0,.48.37.85.85.85h7.45c.48,0,.85-.37.85-.85v-4.65c0-2.17-2.06-3.12-4.92-3.12Z"/>
      <path class="cls-1" d="m260.21,50.42l1.06-6.03c.05-.32-.21-.64-.53-.64h-8.03c-.26,0-.48.16-.53.42l-1.32,7.45c-.79,4.54-1.69,5.39-4.28,5.39v-24.15c0-.31-.26-.58-.53-.58h-8.08c-.26,0-.53.26-.53.58v38.89c0,.26.26.53.53.53h8.08c.26,0,.53-.26.53-.53v-12.74c2.59,0,3.49.79,4.28,5.39l1.32,7.4c.05.26.26.48.53.48h8.03c.31,0,.58-.32.53-.64l-1.06-6.08c-.69-4.02-2.06-6.5-6.13-7.56,4.07-1.1,5.44-3.54,6.13-7.61Z"/>
      <path class="cls-1" d="m10.83,26.37h3.23l1.48-6.68h0s3.61,0,3.61,0l.62-2.84h-3.61L19.77.46h-4.43L.59,17.01l-.59,2.68h12.31l-1.48,6.68Zm-6.98-9.52L15.89,3.46l-2.95,13.4H3.85Z"/>
      <path class="cls-1" d="m33.26,22.3c7.34,0,11.11-7.42,11.11-13.09S41.18,0,35.12,0c-7.34,0-11.15,7.42-11.15,13.09s3.22,9.2,9.28,9.2h0Zm-5.94-9.36c0-3.92,2.48-10.06,7.8-10.06h0c3.92,0,5.94,2.33,5.94,6.49,0,3.92-2.49,10.06-7.81,10.06-3.92,0-5.94-2.33-5.94-6.49Z"/>
      <path class="cls-1" d="m56.27,26.37h3.23l1.48-6.68h0s3.61,0,3.61,0l.62-2.84h-3.61L65.21.46h-4.42l-14.76,16.55-.59,2.68h12.31l-1.48,6.68Zm-6.98-9.52l12.04-13.4h0l-2.95,13.4h-9.09Z"/>
      <path class="cls-1" d="m78.69,22.3h0c7.34,0,11.11-7.42,11.11-13.09s-3.18-9.2-9.25-9.2c-7.34,0-11.15,7.42-11.15,13.09s3.22,9.2,9.28,9.2Zm1.87-19.42h0c3.92,0,5.94,2.33,5.94,6.49,0,3.92-2.49,10.06-7.81,10.06-3.92,0-5.94-2.33-5.94-6.49,0-3.92,2.48-10.06,7.8-10.06Z"/>
    </g>
  </g>
</svg>