<?xml version="1.0" encoding="UTF-8"?>
<svg id="Layer_2" data-name="Layer 2" xmlns="http://www.w3.org/2000/svg" viewBox="0 0 1034.64 187.22">
  <defs>
    <style>
      .cls-1 {
        fill: #e84860;
      }

      .cls-1, .cls-2, .cls-3, .cls-4, .cls-5 {
        stroke-width: 0px;
      }

      .cls-2 {
        fill: #232323;
      }

      .cls-3 {
        fill: #fff;
      }

      .cls-4 {
        fill: #d1d1d1;
      }

      .cls-5 {
        fill: #f1637c;
      }
    </style>
  </defs>
  <g id="Layer_1-2" data-name="Layer 1">
    <g>
      <g>
        <path class="cls-3" d="m25.16,95.01c5.23-9.02,11.6-17.3,17.23-26.06,4.37-6.8,7.8-14.05,10.31-21.73.34-1.04.77-2.05,1.17-3.07,1.76-.16,3.32-.71,4.48-2.15.61-.76.74-1.53.28-2.37-.48-.87-1.32-1.15-2.2-.89-2.18.63-4.19,1.61-5.66,3.43-5.19,1.03-10.39,1.9-15.72,1.49,1.1-2.71,2.22-5.42,3.3-8.14,1.11-2.8,1.12-2.94,4.03-2.23,5.2,1.27,11.39-3.24,10.84-10.35-.34-4.45-4.45-7.09-9.74-6.65-5.51.46-8.9,4.87-7.79,10.24.21,1.01-.16,1.51-.96,1.87-1.37.62-2.8.82-4.29.61-2.13-.29-4.16-.94-6.14-1.76-3.33-1.38-6.63-2.84-10.36-2.68-.03-1.08.43-2.01.88-2.95C22.19,6.09,40.17-2.79,56.95.79c11.28,2.41,17.97,9.62,21.03,20.4,2.89,10.16,1.52,20.24-1.3,30.18-2.87,10.14-7.03,19.78-11.96,29.09-.42.8-.98,1.56-1.1,2.5-.17.18-.4.32-.49.53-3.94,8.6-7.73,17.22-9.15,26.72-1.44,9.62,4.35,17.17,14.11,17.91,23.28,8.05,65.75,7.88,86.12-1.45l.76-.39s0,0,0,0c5.11-.85,11.09-7,11.71-12.08.38-3.07-.45-5.84-2.47-8.16-2.2-2.52-5-4.27-8.01-5.68-7.69-3.59-15.79-5.61-24.2-6.68-7.39-.94-14.77-1.52-22.21-1.53-7.75-.01-15.45.48-23.14,1.46-9.08,1.16-17.87,3.24-26.01,7.58-.6.32-1.08,1.01-2.14.84.88-2.58,1.77-5.09,2.6-7.62,1.19-3.65,2.78-7.16,3.74-10.88,15.53-3.32,31.24-4.89,47.12-4.78,17.31.13,34.37,2.05,50.92,7.4,1.32.43,1.55-.14,1.83-1.17,1.53-5.65,3.78-10.97,7.53-15.55,1.63-1.99,3.43-3.82,5.62-5.21,1.2-.76,2.48-1.32,3.88-1.58,3.95-.72,6.59,1.83,6.09,5.81-.24,1.91-.99,3.64-1.74,5.38-1.38,2.24-3.13,4.19-4.8,6.2-.66.8-1.23,1.67-1.81,2.52-.33.49-.43,1.03.08,1.48.48.44,1.04.37,1.51.03.38-.28.78-.62,1.01-1.02,1.55-2.66,3.48-4.99,5.76-7.05.26-.23.39-.61.58-.92,1.51-.48,2.68-1.63,4.22-2.07,1.24-.35,2.45-.67,3.75-.46,3.24.54,4.6,2.88,3.54,5.98-.7,2.04-2.26,3.57-3.16,5.49-1.54,1.63-3.07,3.27-4.61,4.9-.6.64-1.36,1.42-.62,2.18.83.86,1.84.35,2.53-.45,1.67-1.9,3.29-3.85,4.93-5.78.97-.63,2.08-.7,3.16-.66,3.31.12,4.92,2.38,3.96,5.63-1.38,4.66-4.06,8.44-8.07,11.2-1.16.8-1.26,1.24-.22,2.28,6.7,6.7,10.55,14.68,10.62,24.29,0,.66-.11,1.33-.16,1.99-.51.9-1.03,1.8-1.53,2.7-2.59,4.64-5.91,8.72-10.12,11.93-8.42,6.42-17.78,10.99-27.86,14.33-19.23,6.36-39.06,8.91-59.15,9.76-9.19.39-18.41.25-27.61-.59-7.83-.71-15.63-1.56-23.36-3-13.2-2.47-26.06-5.95-37.98-12.33-5.41-2.9-10.31-6.43-14.41-11.07-2.12-2.4-3.76-5.09-5.49-7.74-.76-7.84,1.26-15.04,5.35-21.65,3.73-6.04,8.85-10.71,15-14.24.42-.24.79-.59,1.33-.55-.67,2.3-1.99,4.3-3,6.44-2.98,6.26-4.66,12.79-4.19,19.78.04.61.06,1.22.39,1.76.57.9,1.53.89,1.97-.09.21-.47.26-1.07.22-1.6-.5-6.58,1.08-12.8,3.16-18.96,1.11-3.3,2.81-6.32,4.17-9.51Z"/>
        <path class="cls-3" d="m206.22,143.13c-2.03,4.58-4.29,9.03-7.49,12.94-7.67,9.36-17.5,15.68-28.62,20.09-14.48,5.73-29.61,8.7-45.06,10.13-23.8,2.2-47.35.56-70.59-5.02-13.22-3.17-25.36-8.74-36.16-17.09-6.65-5.15-11.65-11.59-15.1-19.25-.25-1.36-1.14-2.54-1.12-3.97.41.36.86.69,1.22,1.09,7.06,7.94,15.88,13.23,25.63,17.14,9.78,3.93,19.95,6.48,30.3,8.36,11.59,2.11,23.28,3.26,35.06,3.46,8.17.14,16.33.06,24.5-.64,6.43-.55,12.87-1.05,19.25-2.01,14.47-2.17,28.65-5.47,42.02-11.62,7.91-3.64,15.45-7.82,21.61-14.17,2.3-2.37,4.09-5.15,6.43-7.47-.05,2.82-1.23,5.37-1.87,8.05Z"/>
        <path class="cls-4" d="m64.84,83.52c-.96,3.72-2.55,7.24-3.74,10.88-.83,2.53-1.71,5.04-2.6,7.62,1.06.18,1.54-.51,2.14-.84,8.15-4.34,16.94-6.42,26.01-7.58,7.69-.98,15.39-1.47,23.14-1.46,7.44.01,14.82.59,22.21,1.53,8.42,1.07,16.51,3.09,24.2,6.68,3,1.4,5.81,3.16,8.01,5.68,2.02,2.32,2.84,5.08,2.47,8.16-.62,5.08-6.6,11.23-11.71,12.08.27-.24.52-.5.81-.72,1.79-1.37,1.78-1.35-.02-2.83-2.6-2.12-5.62-3.42-8.72-4.56-8.81-3.24-18-4.39-27.29-4.87-14.65-.75-29.18,0-43.43,3.82-4.92,1.32-9.63,3.14-13.58,6.54-1.1.95-1.02,1.47.24,2.04,1.72.78,3.41,1.61,5.12,2.42-9.76-.74-15.55-8.29-14.11-17.91,1.42-9.5,5.21-18.12,9.15-26.72.1-.21.33-.36.49-.53.4.19.81.38,1.21.56Z"/>
        <path class="cls-4" d="m13.94,24.58c3.73-.17,7.03,1.3,10.36,2.68,1.98.82,4.01,1.47,6.14,1.76,1.49.2,2.92,0,4.29-.61.8-.36,1.17-.86.96-1.87-1.11-5.37,2.28-9.79,7.79-10.24,5.29-.44,9.39,2.2,9.74,6.65.55,7.12-5.64,11.62-10.84,10.35-2.91-.71-2.92-.57-4.03,2.23-1.08,2.72-2.2,5.43-3.3,8.14-3.63.78-5.99,3.35-8.22,6-2.78,3.3-5.14,6.9-7.1,10.76-.61-2.99-.85-6.01-.86-9.06,0-3.22.3-6.45-.24-9.66-1.03-6.14-4.81-8.94-10.9-8.08,1.83-3.18,4.11-6.05,6.21-9.04Zm34.35.37c.04-2.46-1.88-4.48-4.29-4.53-2.35-.05-4.3,1.86-4.35,4.24-.05,2.45,1.88,4.46,4.3,4.5,2.4.04,4.3-1.81,4.34-4.22Z"/>
        <path class="cls-2" d="m7.73,33.61c6.1-.87,9.87,1.93,10.9,8.08.54,3.21.23,6.44.24,9.66,0,3.06.25,6.07.86,9.06-.96,3.87-1.21,7.84-1.46,11.79-.31,4.75-2.85,6.32-7.13,4.25-6.21-3.01-9.06-8.48-10.46-14.87-1.85-8.4.28-16.09,4.41-23.38.87-1.54,1.76-3.06,2.65-4.59Z"/>
        <path class="cls-4" d="m208.09,135.08c-2.34,2.32-4.13,5.1-6.43,7.47-6.16,6.35-13.7,10.54-21.61,14.17-13.37,6.15-27.55,9.45-42.02,11.62-6.38.96-12.82,1.46-19.25,2.01-8.16.7-16.33.78-24.5.64-11.77-.2-23.47-1.35-35.06-3.46-10.35-1.88-20.51-4.43-30.3-8.36-9.75-3.91-18.57-9.2-25.63-17.14-.36-.41-.81-.73-1.22-1.09-.85-2.36-1.31-4.8-1.32-7.32,1.73,2.65,3.37,5.34,5.49,7.74,4.1,4.64,9,8.17,14.41,11.07,11.92,6.38,24.79,9.87,37.98,12.33,7.73,1.44,15.53,2.29,23.36,3,9.2.83,18.42.98,27.61.59,20.09-.86,39.92-3.4,59.15-9.76,10.08-3.34,19.44-7.91,27.86-14.33,4.21-3.21,7.53-7.29,10.12-11.93.5-.9,1.02-1.8,1.53-2.7.23,1.83.25,3.65-.19,5.46Z"/>
        <path class="cls-4" d="m25.16,95.01c-1.36,3.18-3.06,6.21-4.17,9.51-2.07,6.16-3.66,12.37-3.16,18.96.04.53,0,1.13-.22,1.6-.44.98-1.4.99-1.97.09-.34-.54-.35-1.15-.39-1.76-.47-6.99,1.21-13.52,4.19-19.78,1.02-2.14,2.33-4.14,3-6.44,0,0,.02.02.02.02.15-.11.3-.21.44-.32.75-.62,1.51-1.25,2.26-1.87Z"/>
        <path class="cls-4" d="m50.77,42.17c1.48-1.82,3.48-2.8,5.66-3.43.88-.25,1.72.02,2.2.89.45.83.33,1.61-.28,2.37-1.16,1.44-2.72,1.99-4.48,2.15-.76-1.09-2.23-1.07-3.1-1.98Z"/>
        <path class="cls-4" d="m188.41,75.08c-.19.31-.32.68-.58.92-2.28,2.06-4.21,4.39-5.76,7.05-.24.4-.63.74-1.01,1.02-.48.35-1.03.41-1.51-.03-.51-.46-.41-.99-.08-1.48.58-.86,1.15-1.73,1.81-2.52,1.67-2.01,3.42-3.96,4.8-6.2.78.41,1.55.83,2.33,1.24Z"/>
        <path class="cls-4" d="m198.99,84.88c-1.64,1.93-3.26,3.87-4.93,5.78-.7.79-1.71,1.3-2.53.45-.74-.77.01-1.55.62-2.18,1.54-1.63,3.08-3.27,4.61-4.9.67.49,1.32,1.02,2.24.86Z"/>
        <path class="cls-5" d="m22.9,96.88c-.15.11-.29.21-.44.32.15-.11.29-.21.44-.32Z"/>
        <path class="cls-1" d="m154.21,126.67c.25-.13.5-.26.76-.39-.25.13-.5.26-.76.39Z"/>
      </g>
      <path class="cls-3" d="m263.69,39.16h39.05v17.38h-21.68v19.52h19.88v17.38h-19.88v36.9h21.68v17.38h-39.05V39.16Z"/>
      <path class="cls-3" d="m326.97,39.16v91.18h48.55v17.38h-65.92V39.16h17.37Zm9.49,0h39.05v17.38h-21.68v9.67h19.88v17.38h-19.88v20.78h21.68v17.38h-39.05V39.16Z"/>
      <path class="cls-3" d="m434.12,39.16c6.63,0,12.9.36,18.81,1.25v16.66c-6.81-1.25-13.61-1.97-20.96-1.43-19.7,1.07-34.4,18.27-34.4,37.8s14.69,36.54,34.4,37.8c7.34.36,14.15-.18,20.96-1.43v16.66c-5.91.71-12.18,1.25-18.81,1.25-29.92.01-54.28-24.35-54.28-54.26s24.36-54.28,54.28-54.28Z"/>
      <path class="cls-3" d="m501.3,39.16v17.38h-12.72v91.18h-17.37V56.53h-12.72v-17.38h42.81Z"/>
      <path class="cls-3" d="m505.94,39.16h19.17c14.87,0,27.23,12.18,27.23,27.23,0,10.03-5.56,18.81-13.8,23.46,4.47,12.72,7.7,39.94,38.16,40.48v17.38c-36.36,0-50.69-29.02-53.38-51.95v51.95h-17.38V39.16Zm17.38,17.38v19.53h1.79c5.37,0,9.85-4.3,9.85-9.67s-4.48-9.85-9.85-9.85h-1.79Zm35.82-17.38h17.56v86.88c-6.81-.18-12.72-1.79-17.56-5.19V39.16Z"/>
      <path class="cls-3" d="m636.51,39.16c6.63,0,12.9.36,18.81,1.25v16.66c-6.81-1.25-13.61-1.97-20.96-1.43-19.7,1.07-34.4,18.27-34.4,37.8s14.69,36.54,34.4,37.8c7.34.36,14.15-.18,20.96-1.43v16.66c-5.91.71-12.18,1.25-18.81,1.25-29.92.01-54.28-24.35-54.28-54.26s24.36-54.28,54.28-54.28Z"/>
      <path class="cls-3" d="m721.91,39.16c6.63,0,12.9.36,18.81,1.25v16.66c-6.81-1.25-13.61-1.97-20.96-1.43-19.7,1.07-34.4,18.27-34.4,37.8s14.69,36.54,34.4,37.8c7.34.36,14.15-.18,20.96-1.43v16.66c-5.91.71-12.18,1.25-18.81,1.25-29.92.01-54.28-24.35-54.28-54.26s24.36-54.28,54.28-54.28Z"/>
      <path class="cls-3" d="m745.8,39.16h39.05v17.38h-21.68v19.52h19.88v17.38h-19.88v36.9h21.68v17.38h-39.05V39.16Z"/>
      <path class="cls-3" d="m821.43,39.16h17.38v108.55h-17.38v-32.24l-12.36-38.69v70.94h-17.37V39.16h17.37l12.36,38.69v-38.69Z"/>
      <path class="cls-3" d="m930.05,39.16v17.38h-56.61v91.18h-17.38V56.53h-12.72v-17.38h86.71Zm-29.75,26.33v60.37c0,3.4,3.22,4.83,6.09,4.83,3.05,0,6.27-1.43,6.27-4.83v-60.37h17.38v61.26c0,13.07-10.93,21.32-23.65,21.32s-23.46-8.24-23.46-21.32v-61.26h17.37Z"/>
      <path class="cls-3" d="m958.04,39.16c14.87,0,27.05,12.18,27.05,27.05,0,10.21-5.56,18.99-13.61,23.65,6.45,12.18,13.61,36.18,13.61,57.86h-15.94c0-18.09-6.63-40.31-12.9-53.74v53.74h-17.38V39.16h19.17Zm-1.79,17.38v19.53h1.79c5.37,0,9.67-4.48,9.67-9.85s-4.3-9.67-9.67-9.67h-1.79Z"/>
      <path class="cls-3" d="m1011.19,93.97c2.51-17.92,5.73-36.72,6.08-54.81h17.38c-1.43,21.14-7.88,53.74-14.51,77.92v30.63h-17.73v-30.63c-6.81-24.18-13.25-56.79-14.69-77.92h17.38c.54,18.09,3.58,36.9,6.09,54.81Z"/>
    </g>
  </g>
</svg>