<?xml version="1.0" encoding="UTF-8"?>
<svg id="Layer_2" data-name="Layer 2" xmlns="http://www.w3.org/2000/svg" viewBox="0 0 562 194.31">
  <defs>
    <style>
      .cls-1 {
        fill: #232323;
        stroke-width: 0px;
      }
    </style>
  </defs>
  <g id="Layer_1-2" data-name="Layer 1">
    <g>
      <path class="cls-1" d="m100.61,3.31c33.05.08,66.11-.16,99.15.09.65.06.96.39,1.01,1.01.06.65.06,1.31.06,1.97-.03,61.89.07,123.78-.04,185.66-.05.85-.36,1.14-1.23,1.25-12.96.15-25.94,0-38.91.06-1.28,0-2.45-.28-3.6-.85-6.89-3.45-13.79-6.87-20.69-10.28-3.84-1.9-7.68-3.77-11.53-5.65-.51-.2-1.63-1.02-1.8-.06-.14,2.63.07,5.27-.08,7.9-.06,1.41.54,2.15,1.75,2.72,3.04,1.43,6.02,2.97,9.03,4.46.47.23.94.48,1.4.73.23.13.45.31.35.61-.09.3-.39.34-.65.36-.52.04-1.05.05-1.58.05-12.11,0-24.23,0-36.34.01-1.49,0-2.83-.29-4.17-.97-4.04-2.07-8.12-4.07-12.2-6.07-1.69-.83-1.9-.69-1.93,1.15-.05,1.58.08,3.16-.09,4.73-.08.59-.41.98-1.01,1.04-.72.07-1.44.1-2.17.1-24.75-.09-49.51.2-74.26-.11-.51-.05-.83-.38-.92-.89-.36-61.67,0-123.38-.12-185.06,0-.92,0-1.85.08-2.76.07-.73.42-1.08,1.13-1.15,33.11-.2,66.23,0,99.35-.07Zm.03,11.53c-29.3.04-58.61-.07-87.91.04-.78.05-1.08.34-1.13,1.09-.05.79-.04,1.58-.04,2.37,0,53.53,0,107.07,0,160.6,0,3.01-.08,2.88,2.96,2.88,8.82-.03,17.65.05,26.47-.03.8-.05,1.09-.32,1.14-1.07.1-29.04,0-58.08.04-87.12,0-2.82-.21-2.63,2.37-3.9,10.7-5.24,21.38-10.53,32.06-15.82,1.64-.81,1.97-.61,2.01,1.19.04,2.7,0,5.4.02,8.1-.06,1.51,1.16,1.8,2.26,2.38,1.96.95,3.92,1.87,5.87,2.84,8.69,4.26,17.31,8.67,26.03,12.87,1.33.5.97-1.39,1.04-2.15,0-1.84,0-3.69,0-5.53q0-2.45-2.28-3.57c-7.68-3.78-15.34-7.6-23.05-11.32-1.46-.7-2.17-1.6-1.98-3.2.02-.13,0-.26,0-.39.01-8.63-.02-17.25.01-25.88,0-.94.37-1.65,1.25-2.06,10.78-5.24,21.49-10.61,32.23-15.92,2.99-1.48,2.5-1.44,5.46.02,4.96,2.44,9.91,4.91,14.87,7.36,5.67,2.8,11.33,5.61,17.02,8.36,1.19.57,1.61,1.36,1.58,2.64-.11,2.83.07,5.67-.07,8.49-.17,1.54-1.72.43-2.52.1-10.81-5.31-21.59-10.7-32.42-15.98-.57-.25-.92-.04-.92.57-.02,2.7.01,5.4-.03,8.1-.02,1.08.46,1.68,1.39,2.14,11.06,5.41,22.07,10.92,33.12,16.34,1.01.49,1.46,1.18,1.44,2.32-.05,2.7-.01,5.4-.02,8.1.02.69-.06,1.77-1.01,1.44-11.5-5.37-22.71-11.42-34.24-16.71-.64-.14-.68.72-.68,1.17,0,2.5.03,5.01-.02,7.51-.02,1.08.43,1.69,1.37,2.14,11.06,5.4,22.07,10.92,33.13,16.34,1.01.49,1.49,1.15,1.47,2.3-.05,2.7-.02,5.4-.02,8.1,0,.69-.11,1.75-1.04,1.43-11.02-5.18-21.85-10.77-32.8-16.09-.47-.23-.95-.45-1.45-.62-.29-.1-.53.09-.57.38-.16,2.36-.04,4.74-.07,7.11.01,2.87-.19,2.61,2.38,3.88,10.75,5.3,21.49,10.61,32.23,15.92.96.44,1.35,1.14,1.34,2.18-.03,2.77,0,5.53-.01,8.3,0,.6-.08,1.61-.93,1.34-11.44-5.36-22.64-11.25-34.05-16.67-.53-.21-.87.03-.92.64-.08,2.37-.02,4.74-.03,7.11,0,2.41-.13,2.27,2.17,3.41,10.81,5.32,21.61,10.66,32.41,15.99.94.45,1.37,1.11,1.36,2.17-.11,3.02.14,6.07-.11,9.08-.08.44-.46.7-.87.55-10.92-5.07-21.61-10.65-32.45-15.9-.53-.26-1.06-.54-1.6-.77-.54-.23-.89,0-.89.62-.02,2.3-.03,4.61-.02,6.91,0,2.74-.15,2.52,2.31,3.73,10.69,5.26,21.36,10.58,32.06,15.82,1.21.52,1.62,1.35,1.59,2.64-.07,2.57,0,5.14-.02,7.7-.02,1.83-.3,2.01-1.95,1.21-2.54-1.24-5.07-2.52-7.61-3.77-8.52-4.14-16.96-8.48-25.54-12.52-.35-.13-.7.06-.76.4-.04.26-.07.52-.07.78,0,2.5.02,5-.01,7.51-.01.97.31,1.65,1.23,2.03.49.2.94.47,1.42.7,10.56,5.22,21.18,10.35,31.69,15.68,1.27.65,2.56.92,3.97.91,9.02-.06,18.04.04,27.06-.04.8-.06,1.09-.32,1.14-1.08.09-54.72.01-109.44.03-164.16,0-.7-.06-1.64-.96-1.66-29.3-.18-58.6,0-87.9-.06Zm13.17,104.12c.05-1.21-.06-2.51.03-3.75.08-1.32-.48-2.07-1.66-2.58-1.87-.82-3.69-1.73-5.52-2.64-8.97-4.42-17.89-8.94-26.88-13.32-.75-.31-1.11-.08-1.14.77-.04,1.12-.03,2.24-.03,3.35,0,1.58.01,3.16.02,4.74-.04,1.49,1.22,1.77,2.3,2.36,10.68,5.1,21.22,10.52,31.86,15.71.64.27.99.05,1.01-.7.03-1.31,0-2.63,0-3.95Zm-.03,44.51c.09-1.3,0-2.78.03-4.14,0-.8-.32-1.39-1.05-1.74-2.29-1.15-4.63-2.22-6.92-3.36-8.61-4.26-17.2-8.55-25.81-12.81-1.24-.59-1.38.08-1.41,1.21,0,2.37.03,4.74-.02,7.1-.02,1.21.46,1.95,1.56,2.45,2.04.92,4.04,1.91,6.05,2.9,8.91,4.38,17.77,8.88,26.71,13.22.44.19.84-.02.85-.49.03-1.45,0-2.89,0-4.34Zm.04,22.19c.01-1.17-.04-2.37.01-3.55.05-1.2-.43-1.96-1.54-2.46-10.52-4.98-20.87-10.32-31.32-15.45-1.17-.51-2.43-1.63-2.35.57,0,2.43.04,4.87-.02,7.3-.03,1.24.5,1.94,1.58,2.43,1.62.72,3.22,1.5,4.81,2.29,9.08,4.5,18.15,9.01,27.22,13.51,1.24.57,1.56.41,1.6-.89.04-1.25,0-2.5,0-3.75Zm-35.16-61.94c-.07,1.31,0,2.78-.03,4.14,0,.81.34,1.38,1.07,1.73,2.11,1.07,4.27,2.05,6.39,3.1,8.98,4.38,17.86,9.01,26.9,13.26.84.23.81-.87.83-1.43,0-2.37-.03-4.74.02-7.1.02-1.22-.49-1.95-1.59-2.43-1.51-.66-2.98-1.39-4.45-2.12-9.44-4.64-18.82-9.43-28.29-14.01-.44-.19-.82.04-.83.51-.03,1.45,0,2.89,0,4.34Z"/>
      <g>
        <path class="cls-1" d="m261.64,4.16c3.88,0,7.8.3,11.75.88,3.95.59,7.52,1.79,10.71,3.59,3.19,1.8,5.79,4.39,7.8,7.75,2.01,3.36,3.02,7.82,3.02,13.36s-1.01,10-3.02,13.36c-2.01,3.36-4.61,5.95-7.8,7.75-3.19,1.8-6.76,3-10.71,3.59-3.95.59-7.87.88-11.75.88h-11.65v26.94h-16.22V4.16h27.87Zm16.22,19.97c0-3.12-.49-5.75-1.46-7.9-.97-2.15-2.24-3.88-3.8-5.2-1.56-1.32-3.35-2.25-5.36-2.81-2.01-.55-4.06-.83-6.14-.83h-11.13v44.72h11.13c2.08,0,4.12-.28,6.14-.83,2.01-.55,3.8-1.49,5.36-2.81,1.56-1.32,2.82-3.05,3.8-5.2.97-2.15,1.46-4.78,1.46-7.9v-11.23Z"/>
        <path class="cls-1" d="m333.61,79.04c2.01,0,3.76-.16,5.25-.47,1.49-.31,2.76-.74,3.8-1.3,1.04-.55,1.91-1.18,2.6-1.87.69-.69,1.25-1.39,1.66-2.08.9-1.59,1.28-3.47,1.14-5.62h3.85v14.56h-47.84V4.16h16.22v74.88h13.31Z"/>
        <path class="cls-1" d="m397.57,4.16l26.42,78.11h-17.47l-9.05-28.29h-27.04l-5.72,17.47c-.28.9-.35,1.77-.21,2.6.14.83.45,1.6.94,2.29.48.69,1.13,1.25,1.92,1.66.8.42,1.65.62,2.55.62h5.72v3.64h-17.99l25.48-78.11h14.46Zm-26.11,46.59h24.96l-12.38-38.69-12.58,38.69Z"/>
        <path class="cls-1" d="m474.11,4.06h14.87v78.21h-12.48l-42.43-62.61v47.84c0,3.12.81,5.76,2.44,7.9,1.63,2.15,4,3.22,7.12,3.22h2.08v3.64h-14.87V4.16h13.83l41.08,60.63V18.82c0-3.12-.82-5.75-2.44-7.9-1.63-2.15-4-3.22-7.12-3.22h-2.08v-3.64Z"/>
        <path class="cls-1" d="m532.36,0c4.51,0,8.58.73,12.22,2.18,3.64,1.46,6.74,3.47,9.31,6.03,2.56,2.57,4.56,5.55,5.98,8.94,1.42,3.4,2.13,7.04,2.13,10.92v26.31c0,4.02-.68,7.8-2.03,11.34-1.35,3.54-3.33,6.62-5.93,9.26-2.6,2.64-5.81,4.72-9.62,6.24-3.81,1.52-8.18,2.29-13.1,2.29h-3.22c-4.44,0-8.49-.73-12.17-2.18-3.68-1.46-6.8-3.47-9.36-6.03-2.57-2.56-4.56-5.55-5.98-8.94-1.42-3.4-2.13-7.04-2.13-10.92v-26.21c0-4.02.68-7.8,2.03-11.34,1.35-3.54,3.34-6.64,5.98-9.31,2.63-2.67,5.86-4.77,9.67-6.29,3.81-1.52,8.18-2.29,13.1-2.29h3.12Zm13.52,15.6c0-1.66-.33-3.26-.99-4.78-.66-1.52-1.54-2.84-2.65-3.95-1.11-1.11-2.41-1.99-3.9-2.65-1.49-.66-3.1-.99-4.84-.99h-6.55c-1.66,0-3.24.33-4.73.99-1.49.66-2.79,1.54-3.9,2.65-1.11,1.11-1.99,2.43-2.65,3.95-.66,1.53-.99,3.12-.99,4.78v52.31c0,1.73.33,3.35.99,4.84.66,1.49,1.54,2.79,2.65,3.9,1.11,1.11,2.41,1.99,3.9,2.65,1.49.66,3.07.99,4.73.99h6.55c1.73,0,3.34-.33,4.84-.99,1.49-.66,2.79-1.54,3.9-2.65,1.11-1.11,1.99-2.41,2.65-3.9.66-1.49.99-3.1.99-4.84V15.6Z"/>
        <path class="cls-1" d="m270.06,114.95l26.42,78.11h-17.47l-9.05-28.29h-27.04l-5.72,17.47c-.28.9-.35,1.77-.21,2.6.14.83.45,1.6.94,2.29.48.69,1.13,1.25,1.92,1.66.8.42,1.65.62,2.55.62h5.72v3.64h-17.99l25.48-78.11h14.46Zm-26.1,46.59h24.96l-12.38-38.69-12.58,38.69Z"/>
        <path class="cls-1" d="m332.88,189.84c2.01,0,3.76-.16,5.25-.47,1.49-.31,2.76-.74,3.8-1.3,1.04-.55,1.91-1.18,2.6-1.87s1.25-1.39,1.66-2.08c.9-1.59,1.28-3.47,1.14-5.62h3.85v14.56h-47.84v-78.11h16.22v74.88h13.31Z"/>
        <path class="cls-1" d="m402.46,114.95v14.46h-3.85c.14-2.08-.24-3.95-1.14-5.62-.42-.69-.97-1.39-1.66-2.08-.69-.69-1.56-1.3-2.6-1.82-1.04-.52-2.31-.94-3.8-1.25-1.49-.31-3.24-.47-5.25-.47h-2.91v74.88h-16.12v-74.88h-2.91c-4.02,0-7.04.59-9.05,1.77-2.01,1.18-3.43,2.46-4.26,3.85-.9,1.66-1.28,3.54-1.14,5.62h-3.85v-14.46h58.55Z"/>
        <path class="cls-1" d="m442.6,110.79c4.51,0,8.58.73,12.22,2.18,3.64,1.46,6.74,3.47,9.31,6.03,2.56,2.57,4.56,5.55,5.98,8.94,1.42,3.4,2.13,7.04,2.13,10.92v26.31c0,4.02-.68,7.8-2.03,11.34-1.35,3.54-3.33,6.62-5.93,9.26-2.6,2.64-5.81,4.72-9.62,6.24-3.81,1.52-8.18,2.29-13.1,2.29h-3.22c-4.44,0-8.49-.73-12.17-2.18-3.68-1.46-6.8-3.47-9.36-6.03-2.57-2.56-4.56-5.55-5.98-8.94-1.42-3.4-2.13-7.04-2.13-10.92v-26.21c0-4.02.68-7.8,2.03-11.34,1.35-3.54,3.34-6.64,5.98-9.31,2.63-2.67,5.86-4.77,9.67-6.29,3.81-1.52,8.18-2.29,13.1-2.29h3.12Zm13.52,15.6c0-1.66-.33-3.26-.99-4.78-.66-1.52-1.54-2.84-2.65-3.95-1.11-1.11-2.41-1.99-3.9-2.65-1.49-.66-3.1-.99-4.84-.99h-6.55c-1.66,0-3.24.33-4.73.99-1.49.66-2.79,1.54-3.9,2.65-1.11,1.11-1.99,2.43-2.65,3.95-.66,1.53-.99,3.12-.99,4.78v52.31c0,1.73.33,3.35.99,4.84.66,1.49,1.54,2.79,2.65,3.9,1.11,1.11,2.41,1.99,3.9,2.65,1.49.66,3.07.99,4.73.99h6.55c1.73,0,3.34-.33,4.84-.99,1.49-.66,2.79-1.54,3.9-2.65s1.99-2.41,2.65-3.9c.66-1.49.99-3.1.99-4.84v-52.31Z"/>
      </g>
    </g>
  </g>
</svg>