<?xml version="1.0" encoding="UTF-8"?>
<svg id="Layer_1" data-name="Layer 1" xmlns="http://www.w3.org/2000/svg" viewBox="0 0 4023.61 542.97">
  <defs>
    <style>
      .cls-1 {
        font-family: OverpassMono-SemiBold, 'Overpass Mono';
        font-size: 350.92px;
        font-weight: 600;
      }

      .cls-1, .cls-2 {
        fill: #fff;
      }

      .cls-3 {
        fill: #333;
      }

      .cls-3, .cls-2, .cls-4 {
        stroke-width: 0px;
      }

      .cls-4 {
        fill: #f33;
      }
    </style>
  </defs>
  <rect class="cls-3" width="4023.61" height="542.97"/>
  <rect class="cls-4" width="542.97" height="542.97"/>
  <text class="cls-1" transform="translate(638.39 391.88)"><tspan x="0" y="0">CLIMATE STORAGE</tspan></text>
  <path class="cls-2" d="m407.12,314.99c-26.29-5.91-44.24,1.32-54.09,7.68l-22.64-13.39c1.68-5.24,3.01-11.67,3.01-18.86s-1.37-13.75-3.09-18.97l22.72-13.43c7.28,4.71,18.97,9.88,35.18,9.88,5.73,0,12.03-.64,18.89-2.19,7.19-1.61,11.71-8.75,10.09-15.92-1.61-7.2-8.84-11.72-15.92-10.09-19.62,4.39-30.88-1.73-35.09-4.85-.71-5.4-.53-18.28,12.79-33.33,4.88-5.52,4.36-13.95-1.15-18.82-5.52-4.89-13.95-4.36-18.82,1.15-17.9,20.25-20.28,39.5-19.49,51.21l-25.46,15.05-28.54-18.26v-27.86c10.45-5.28,25.77-17.12,34.06-42.86,2.25-7.01-1.6-14.52-8.61-16.77-7.03-2.25-14.52,1.61-16.77,8.61-6.16,19.17-17.13,25.85-21.97,27.93-4.99-2.13-15.89-8.83-22.04-27.93-2.25-7-9.75-10.87-16.77-8.61-7.01,2.25-10.87,9.76-8.61,16.77,8.28,25.74,23.6,37.58,34.06,42.86v27.86l-28.54,18.26-25.46-15.05c.79-11.71-1.59-30.96-19.49-51.21-4.89-5.51-13.29-6.04-18.82-1.15-5.52,4.88-6.03,13.31-1.15,18.82,13.37,15.12,13.49,28.04,12.81,33.28-4.33,3.23-15.6,9.28-35.13,4.91-7.12-1.59-14.31,2.91-15.92,10.09-1.61,7.19,2.91,14.32,10.09,15.92,6.87,1.55,13.16,2.19,18.89,2.19,16.22,0,27.92-5.17,35.18-9.88l22.73,13.44c-1.72,5.24-3.11,11.71-3.11,18.97s1.35,13.6,3.03,18.85l-22.65,13.39c-9.85-6.36-27.78-13.6-54.09-7.68-7.19,1.61-11.71,8.75-10.09,15.92,1.61,7.19,8.8,11.68,15.92,10.09,19.61-4.41,30.88,1.72,35.09,4.85.71,5.4.53,18.28-12.79,33.33-4.88,5.52-4.36,13.95,1.15,18.82,2.53,2.24,5.69,3.35,8.83,3.35,3.69,0,7.36-1.52,10-4.49,17.9-20.25,20.28-39.5,19.49-51.21l25.13-14.87,28.88,18.14v27.8c-10.45,5.28-25.77,17.12-34.06,42.86-2.25,7.01,1.6,14.52,8.61,16.77,7.03,2.25,14.52-1.61,16.77-8.61,6.16-19.17,17.13-25.85,21.97-27.93,4.99,2.13,15.89,8.83,22.04,27.93,1.83,5.65,7.05,9.25,12.69,9.25,1.35,0,2.73-.21,4.08-.64,7.01-2.25,10.87-9.76,8.61-16.77-8.28-25.74-23.6-37.58-34.06-42.86v-27.8l28.88-18.14,25.13,14.87c-.79,11.71,1.59,30.96,19.49,51.21,2.64,2.97,6.31,4.49,10,4.49,3.13,0,6.29-1.11,8.83-3.35,5.52-4.88,6.03-13.31,1.15-18.82-13.37-15.12-13.49-28.04-12.81-33.28,4.35-3.23,15.64-9.27,35.13-4.91,7.19,1.64,14.32-2.89,15.92-10.09,1.61-7.19-2.91-14.32-10.09-15.92h.03Zm-134.95,10.83l-30.62-19.25c-1.52-3.09-3.95-9.15-3.95-16.15s2.44-12.89,3.91-15.84l30.66-19.64,30.68,19.64c1.48,2.95,3.89,8.81,3.89,15.83s-2.43,13.07-3.93,16.13l-30.65,19.26h.01Z"/>
</svg>