<?xml version="1.0" encoding="UTF-8"?>
<svg id="Layer_1" data-name="Layer 1" xmlns="http://www.w3.org/2000/svg" viewBox="0 0 4422.58 542.97">
  <defs>
    <style>
      .cls-1 {
        font-family: OverpassMono-SemiBold, 'Overpass Mono';
        font-size: 350.92px;
        font-weight: 600;
      }

      .cls-1, .cls-2 {
        fill: #fff;
      }

      .cls-3 {
        fill: #333;
      }

      .cls-3, .cls-2, .cls-4 {
        stroke-width: 0px;
      }

      .cls-4 {
        fill: #f33;
      }
    </style>
  </defs>
  <rect class="cls-3" width="4422.58" height="542.97"/>
  <rect class="cls-4" width="542.97" height="542.97"/>
  <text class="cls-1" transform="translate(638.39 391.89)"><tspan x="0" y="0">PRODUCT DEPARTURE</tspan></text>
  <path class="cls-2" d="m375.83,323.17v-142.15c0-21.41,17.36-38.77,38.77-38.77,7.14,0,12.92-5.79,12.92-12.92s-5.79-12.92-12.92-12.92c-35.67.04-64.57,28.95-64.61,64.61v145.75l-35.33,11.79c.06-4.39-.62-8.76-2.02-12.92l-20.07-65.91c-6.53-20.37-28.31-31.63-48.71-25.19l-86.58,27.53c-20.12,6.52-31.36,27.91-25.32,48.18l21.12,69.43c1.38,3.87,3.37,7.5,5.91,10.74l-32.77,10.92c-6.78,2.26-10.45,9.58-8.19,16.36,2.26,6.78,9.58,10.45,16.36,8.19l191.05-63.66c-6.85,27.84,10.16,55.96,38,62.81,3.95.97,8,1.48,12.06,1.5,67.95-1.76,68.24-101.2.34-103.38Zm-198.21,48.43l-20.92-68.84c-2-6.77,1.77-13.9,8.49-16.06l86.58-27.53c6.74-2.14,13.95,1.53,16.18,8.24l20,65.98.14.4c2.1,6.16-.71,12.92-6.56,15.78l-89.01,29.72c-6.18,1.44-12.5-1.82-14.9-7.7Zm197.87,29.1c-14.27,0-25.85-11.57-25.85-25.85s11.57-25.85,25.85-25.85,25.85,11.57,25.85,25.85-11.57,25.85-25.85,25.85Zm-128.24-103.38c2.16,6.8-1.6,14.07-8.4,16.23h0s-31.84,10.14-31.84,10.14c-6.81,2.16-14.07-1.6-16.24-8.41-2.16-6.81,1.6-14.07,8.41-16.24h0l31.85-10.13c6.8-2.15,14.06,1.6,16.22,8.4Z"/>
</svg>