<?xml version="1.0" encoding="UTF-8"?>
<svg id="Layer_1" data-name="Layer 1" xmlns="http://www.w3.org/2000/svg" viewBox="0 0 1203.6 542.97">
  <defs>
    <style>
      .cls-1 {
        font-family: OverpassMono-SemiBold, 'Overpass Mono';
        font-size: 350.92px;
        font-weight: 600;
      }

      .cls-1, .cls-2 {
        fill: #fff;
      }

      .cls-3 {
        fill: #333;
      }

      .cls-3, .cls-2, .cls-4 {
        stroke-width: 0px;
      }

      .cls-4 {
        fill: #f33;
      }
    </style>
  </defs>
  <rect class="cls-3" width="1203.6" height="542.97"/>
  <rect class="cls-4" width="542.97" height="542.97"/>
  <text class="cls-1" transform="translate(638.39 391.89)"><tspan x="0" y="0">QA</tspan></text>
  <g id="Icons">
    <path class="cls-2" d="m321.35,232.88l-37.5,40.29c-6.39,6.39-14.51,9.77-23.15,9.77s-16.76-3.38-22.85-9.47l-17.14-17.14c-4.51-4.51-4.51-11.88,0-16.38,4.51-4.51,11.88-4.51,16.38,0l17.14,17.14c3.46,3.46,9.47,3.46,12.93,0l37.2-39.99c4.36-4.66,11.73-4.96,16.38-.6s4.96,11.73.6,16.38Zm89.22,132.73c-2.63,6.31-8.42,10.22-15.26,10.22h-18.11v18.11c0,10.37-8.42,16.54-16.61,16.54-4.36,0-8.34-1.65-11.57-4.89l-50.66-50.66v-.08c-1.95,1.58-3.83,3.16-6.09,4.36-6.09,3.38-12.85,5.04-19.62,5.04s-13.6-1.65-19.62-5.04c-2.25-1.28-4.21-2.86-6.24-4.43,0,0,0,.15-.15.15l-50.66,50.66c-3.16,3.16-7.14,4.89-11.57,4.89-8.19,0-16.61-6.16-16.61-16.54v-18.11h-18.11c-6.84,0-12.63-3.91-15.26-10.15-2.63-6.31-1.2-13.23,3.61-18.04l41.04-41.04c-.68-4.89-.53-9.77.6-14.58.75-3.31-.83-6.84-3.91-8.87-5.79-3.76-10.45-8.79-13.9-15.03-3.31-5.94-5.04-12.78-5.04-19.84s1.73-13.75,5.04-19.69c3.46-6.24,8.12-11.35,13.9-15.03,3.08-2.03,4.66-5.56,3.91-8.87-1.58-6.84-1.35-13.9.68-20.89,3.83-13.3,14.43-23.98,27.73-27.73,6.99-2.03,14.05-2.25,20.89-.68,3.31.75,6.84-.83,8.87-3.98,3.76-5.79,8.79-10.45,15.03-13.9,12.1-6.69,27.13-6.69,39.31,0,6.24,3.46,11.27,8.12,15.03,13.9,2.03,3.08,5.64,4.74,8.87,3.91,6.84-1.58,13.9-1.35,20.89.68,13.3,3.83,23.98,14.43,27.81,27.73,2.03,6.99,2.25,14.05.68,20.97-.75,3.31.83,6.84,3.91,8.87,5.79,3.76,10.45,8.79,13.9,15.03,3.31,5.94,5.04,12.78,5.04,19.84s-1.73,13.75-5.04,19.69c-3.46,6.24-8.12,11.27-13.9,15.03-3.08,2.03-4.74,5.56-3.98,8.87,1.13,4.81,1.28,9.77.6,14.73l40.89,40.89c4.81,4.81,6.16,11.73,3.61,17.96h.08Zm-183.47-23.9c-6.24,1.13-12.63.83-19.02-.98-7.29-2.1-13.6-6.31-18.56-11.8l-23.68,23.68h13.6c6.39,0,11.57,5.19,11.57,11.57v13.6l36.15-36.15h0l-.08.08Zm94.18-22.92c3.01.68,6.16.53,9.4-.38,5.64-1.58,10.3-6.24,11.88-11.88.9-3.23,1.05-6.39.38-9.4-2.93-12.78,2.71-26.23,13.98-33.52,2.56-1.65,4.66-3.91,6.24-6.76,1.35-2.48,2.1-5.41,2.1-8.49s-.75-6.09-2.1-8.57h0c-1.58-2.86-3.68-5.19-6.24-6.76-11.27-7.29-16.91-20.74-13.98-33.45.68-3.01.6-6.16-.38-9.4-1.58-5.56-6.24-10.22-11.88-11.88-3.23-.9-6.39-1.05-9.4-.38-12.7,2.93-26.16-2.71-33.45-13.98-1.65-2.56-3.91-4.66-6.76-6.24-5.11-2.86-11.73-2.78-16.76,0-2.86,1.58-5.19,3.68-6.76,6.24-7.29,11.27-20.67,16.91-33.52,13.98-3.01-.68-6.16-.6-9.4.38-5.64,1.58-10.3,6.24-11.88,11.88-.9,3.23-1.05,6.39-.38,9.4,2.93,12.78-2.71,26.23-13.98,33.45-2.56,1.65-4.66,3.91-6.24,6.76-1.43,2.48-2.1,5.41-2.1,8.49s.75,6.09,2.1,8.57c1.58,2.86,3.68,5.19,6.24,6.84,11.27,7.29,16.91,20.74,13.98,33.45-.68,3.01-.53,6.16.38,9.4,1.58,5.56,6.24,10.22,11.88,11.88,3.23.9,6.39,1.05,9.4.38,2.25-.53,4.51-.75,6.76-.75,10.52,0,20.74,5.49,26.76,14.73,1.65,2.56,3.91,4.66,6.76,6.24,5.11,2.86,11.65,2.86,16.76,0,2.86-1.58,5.11-3.68,6.76-6.24,7.29-11.27,20.74-16.91,33.52-13.98h-.08Zm57.95,33.82l-23.6-23.6c-4.96,5.41-11.27,9.62-18.56,11.73-6.46,1.8-12.85,2.1-19.17.98l36.15,36.15v-13.6c0-6.39,5.19-11.57,11.57-11.57h13.6v-.08Z"/>
  </g>
</svg>