<?xml version="1.0" encoding="UTF-8"?>
<svg id="Layer_1" data-name="Layer 1" xmlns="http://www.w3.org/2000/svg" viewBox="0 0 4213.84 542.97">
  <defs>
    <style>
      .cls-1 {
        font-family: OverpassMono-SemiBold, 'Overpass Mono';
        font-size: 350.92px;
        font-weight: 600;
      }

      .cls-1, .cls-2 {
        fill: #fff;
      }

      .cls-3 {
        fill: #333;
      }

      .cls-3, .cls-2, .cls-4 {
        stroke-width: 0px;
      }

      .cls-4 {
        fill: #f33;
      }
    </style>
  </defs>
  <rect class="cls-3" width="4213.84" height="542.97"/>
  <rect class="cls-4" width="542.97" height="542.97"/>
  <text class="cls-1" transform="translate(638.39 391.89)"><tspan x="0" y="0">MATERIAL ARRIVAL</tspan></text>
  <g id="Icons">
    <path class="cls-2" d="m417.55,280.98c0,56.42-12.85,113.01-13.46,115.43-1.12,5-4.83,8.97-9.75,10.61-1.73.52-42.27,13.11-121.9,13.11s-120.26-12.6-121.9-13.11c-4.92-1.55-8.63-5.61-9.75-10.61-.52-2.42-13.46-59.01-13.46-115.43s12.85-113.01,13.46-115.43c1.12-5,4.83-8.97,9.75-10.61.86-.26,21.83-6.82,62.55-10.61,7.94-.78,15.01,5.18,15.79,13.11.78,8.02-5.18,15.01-13.11,15.79-23.38,2.16-39.6,5.26-48.48,7.25-3.54,17.6-10.87,59.61-10.87,100.33s7.42,82.73,10.87,100.33c14.75,3.36,50.04,9.75,105.16,9.75s90.41-6.38,105.16-9.75c3.54-17.6,10.87-59.7,10.87-100.33s-7.42-82.73-10.87-100.33c-8.89-2.07-25.1-5.18-48.48-7.25-8.02-.78-13.89-7.76-13.11-15.79.78-7.94,7.76-13.89,15.79-13.11,40.81,3.71,61.68,10.27,62.55,10.61,4.92,1.55,8.63,5.61,9.75,10.61.52,2.42,13.46,59.01,13.46,115.34v.09Zm-206.1-29.25c-4.83-6.38-13.89-7.68-20.27-2.93-6.38,4.83-7.68,13.89-2.93,20.27,21.48,28.64,46.84,54.01,75.49,75.49,5.18,3.88,12.25,3.88,17.43,0,28.64-21.48,54.01-46.84,75.49-75.49,4.83-6.38,3.54-15.53-2.93-20.27-6.47-4.74-15.53-3.54-20.27,2.93-13.8,18.38-29.33,35.28-46.41,50.47V115.34c0-8.02-6.47-14.49-14.49-14.49s-14.49,6.47-14.49,14.49v186.95c-17.08-15.27-32.61-32.18-46.41-50.47h0l-.17-.09Z"/>
  </g>
</svg>