<?xml version="1.0" encoding="UTF-8"?>
<svg id="Layer_1" data-name="Layer 1" xmlns="http://www.w3.org/2000/svg" viewBox="0 0 2023.46 542.97">
  <defs>
    <style>
      .cls-1 {
        font-family: OverpassMono-SemiBold, 'Overpass Mono';
        font-size: 350.92px;
        font-weight: 600;
      }

      .cls-1, .cls-2 {
        fill: #fff;
      }

      .cls-3 {
        fill: #333;
      }

      .cls-3, .cls-2, .cls-4 {
        stroke-width: 0px;
      }

      .cls-4 {
        fill: #f33;
      }
    </style>
  </defs>
  <rect class="cls-3" width="2023.46" height="542.97"/>
  <rect class="cls-4" width="542.97" height="542.97"/>
  <text class="cls-1" transform="translate(638.39 391.89)"><tspan x="0" y="0">OFFICE</tspan></text>
  <g id="Text">
    <path class="cls-2" d="m406.45,259.53c0-26.92-21.9-48.74-48.74-48.74v-24.41c0-33.61-27.34-60.94-60.94-60.94h-48.74c-33.61,0-60.94,27.34-60.94,60.94v24.41c-26.92,0-48.74,21.9-48.74,48.74v61.61c.33,19.9,16.64,35.95,36.53,35.95h85.35v36.62h-48.74c-6.77,0-12.21,5.43-12.21,12.21s5.43,12.21,12.21,12.21h121.88c6.77,0,12.21-5.43,12.21-12.21s-5.43-12.21-12.21-12.21h-48.74v-36.62h85.35c19.98,0,36.2-16.05,36.53-35.95v-61.61h-.08Zm-24.41,0v26.5c-3.85-1.34-7.94-2.09-12.21-2.09h-12.21v-48.74c13.46,0,24.41,10.95,24.41,24.41v-.08Zm-170.62-73.15c0-20.15,16.39-36.62,36.62-36.62h48.74c20.15,0,36.62,16.39,36.62,36.62v97.56h-121.88v-97.56h-.08Zm-24.41,48.74v48.74h-12.21c-4.26,0-8.36.75-12.21,2.09v-26.5c0-13.46,10.95-24.41,24.41-24.41v.08Zm182.91,97.56h-195.03c-6.69,0-12.21-5.43-12.21-12.21s5.43-12.21,12.21-12.21h195.03c6.69,0,12.21,5.43,12.21,12.21s-5.43,12.21-12.21,12.21Z"/>
  </g>
</svg>