<?xml version="1.0" encoding="UTF-8"?>
<svg id="Layer_1" data-name="Layer 1" xmlns="http://www.w3.org/2000/svg" viewBox="0 0 4005.11 542.97">
  <defs>
    <style>
      .cls-1 {
        font-family: OverpassMono-SemiBold, 'Overpass Mono';
        font-size: 350.92px;
        font-weight: 600;
      }

      .cls-1, .cls-2 {
        fill: #fff;
      }

      .cls-3 {
        fill: #333;
      }

      .cls-3, .cls-2, .cls-4 {
        stroke-width: 0px;
      }

      .cls-4 {
        fill: #f33;
      }
    </style>
  </defs>
  <rect class="cls-3" width="4005.11" height="542.97"/>
  <rect class="cls-4" width="542.97" height="542.97"/>
  <text class="cls-1" transform="translate(638.39 391.88)"><tspan x="0" y="0">PRODUCTION LINE</tspan></text>
  <path class="cls-2" d="m192.03,285.88c1.11.39,27.75,9.65,79.45,9.65s78.35-9.26,79.45-9.65c3.69-1.32,6.64-4.2,8.03-7.88.37-1,9.17-24.92,9.17-62.46s-8.8-61.44-9.17-62.46c-1.39-3.68-4.32-6.56-8.03-7.88-1.11-.39-27.75-9.65-79.45-9.65s-78.35,9.26-79.45,9.65c-3.69,1.32-6.64,4.2-8.03,7.88-.37,1-9.17,24.92-9.17,62.46s8.8,61.44,9.17,62.46c1.39,3.68,4.32,6.56,8.03,7.88Zm79.45-123.66c4.11,0,8.03.07,11.78.17-.44,6.47-.92,12.1-1.39,16.72-.56,5.45-4.97,9.73-10.72,9.77-5.09-.03-9.5-4.32-10.06-9.76-.47-4.61-.96-10.25-1.39-16.73,3.75-.12,7.68-.17,11.78-.17h-.01Zm-64.35,6.41c5.28-1.28,14.02-3.01,25.97-4.36.47,6.79.97,12.7,1.47,17.56,1.96,19.1,17.62,33.61,37.41,33.71,18.81-.11,34.47-14.61,36.43-33.73.48-4.84,1-10.76,1.45-17.54,11.94,1.35,20.7,3.09,25.97,4.36,2.21,8.43,5.64,24.96,5.64,46.91s-3.43,38.5-5.64,46.91c-9.86,2.39-31.41,6.41-64.35,6.41s-54.51-4.04-64.35-6.41c-2.21-8.43-5.64-24.96-5.64-46.91s3.43-38.49,5.64-46.91Zm-2.31,200.22c0,7.36-5.97,13.33-13.33,13.33s-13.33-5.97-13.33-13.33,5.97-13.33,13.33-13.33,13.33,5.97,13.33,13.33Zm163.7-55.23c-19.72-2.17-52.54-4.76-97.05-4.76s-77.35,2.59-97.05,4.76c-28.11,3.11-49.43,26.52-49.59,54.46-.64,28.47,20.92,52.87,49.59,56,19.72,2.17,52.54,4.76,97.05,4.76s77.35-2.59,97.05-4.76c28.67-3.12,50.22-27.52,49.59-56-.16-27.94-21.46-51.36-49.59-54.46Zm22.93,55.9c-.11,14.38-11.21,26.45-25.84,28.06-19.05,2.11-50.83,4.6-94.14,4.6s-75.09-2.51-94.14-4.6c-14.65-1.61-25.77-13.69-25.84-29.35.08-14.41,11.2-26.49,25.84-28.1,19.05-2.11,50.83-4.6,94.14-4.6s75.09,2.51,94.14,4.6c14.65,1.61,25.77,13.69,25.84,28.73v.67Zm-106.65-.67c0,7.36-5.97,13.33-13.33,13.33s-13.33-5.97-13.33-13.33,5.97-13.33,13.33-13.33,13.33,5.97,13.33,13.33Zm79.99,0c0,7.36-5.97,13.33-13.33,13.33s-13.33-5.97-13.33-13.33,5.97-13.33,13.33-13.33,13.33,5.97,13.33,13.33Z"/>
</svg>